<svg xmlns="http://www.w3.org/2000/svg"><defs><font id="SpaceGrotesk-Bold" horiz-adv-x="0"><font-face font-family="Space Grotesk" font-weight="700" ascent="800" descent="-200" x-height="496" cap-height="700" bbox="-83 -292 1238 1134" underline-thickness="50" underline-position="-125" unicode-range="U+000D-FB04"/><glyph glyph-name="f_f" unicode="ff" horiz-adv-x="762" d="M152 0v392H26v104h126v92q0 51 30.5 81.5T262 700h130V596h-86q-28 0-28-30v-70h100V392H278V0H152zm326 0v392H378v104h100v92q0 51 30.5 81.5T588 700h130V596h-86q-28 0-28-30v-70h130V392H604V0H478z"/><glyph glyph-name="fi" unicode="fi" horiz-adv-x="674" d="M152 0v392H26v104h126v92q0 51 30.5 81.5T262 700h120V596h-76q-28 0-28-30v-70h200V392H278V0H152zm326 0v496h126V0H478zm63 550q-34 0-57.5 22T460 630t23.5 58 57.5 22q35 0 58-22t23-58-23-58-58-22z"/><glyph glyph-name="fl" unicode="fl" horiz-adv-x="674" d="M152 0v392H26v104h126v92q0 51 30.5 81.5T262 700h130V596h-86q-28 0-28-30v-70h130V392H278V0H152zm326 0v700h126V0H478z"/><glyph glyph-name="f_f_i" unicode="ffi" horiz-adv-x="1000" d="M478 0v392H378v104h100v92q0 51 30.5 81.5T588 700h120V596h-76q-28 0-28-30v-70h200V392H604V0H478zM152 0v392H26v104h126v92q0 51 30.5 81.5T262 700h130V596h-86q-28 0-28-30v-70h100V392H278V0H152zm652 0v496h126V0H804zm63 550q-34 0-57.5 22T786 630t23.5 58 57.5 22q35 0 58-22t23-58-23-58-58-22z"/><glyph glyph-name="f_f_l" unicode="ffl" horiz-adv-x="1000" d="M152 0v392H26v104h126v92q0 51 30.5 81.5T262 700h130V596h-86q-28 0-28-30v-70h100V392H278V0H152zm326 0v392H378v104h100v92q0 51 30.5 81.5T588 700h130V596h-86q-28 0-28-30v-70h130V392H604V0H478zm326 0v700h126V0H804z"/><glyph glyph-name="f_f_j.liga" unicode="ffj" horiz-adv-x="1000" d="M478 0v392H378v104h100v92q0 51 30.5 81.5T588 700h120V596h-76q-28 0-28-30v-70h200V392H604V0H478zM152 0v392H26v104h126v92q0 51 30.5 81.5T262 700h130V596h-86q-28 0-28-30v-70h100V392H278V0H152zm558-200v108h66q28 0 28 30v558h126V-88q0-51-30-81.5T820-200H710zm157 750q-34 0-57.5 22T786 630t23.5 58 57.5 22q35 0 58-22t23-58-23-58-58-22z"/><glyph glyph-name="f_j.liga" unicode="fj" horiz-adv-x="674" d="M152 0v392H26v104h126v92q0 51 30.5 81.5T262 700h120V596h-76q-28 0-28-30v-70h200V392H278V0H152zm232-200v108h66q28 0 28 30v558h126V-88q0-51-30-81.5T494-200H384zm157 750q-34 0-57.5 22T460 630t23.5 58 57.5 22q35 0 58-22t23-58-23-58-58-22z"/><glyph glyph-name="f_lcaron.liga" unicode="fľ" horiz-adv-x="764" d="M152 0v392H26v104h126v92q0 51 30.5 81.5T262 700h130V596h-86q-28 0-28-30v-70h130V392H278V0H152zm326 0v700h126V0H478zm182 498 8 202h120l-42-202h-86z"/><glyph glyph-name="t_t.liga" unicode="tt" horiz-adv-x="782" d="M260 0q-49 0-79.5 30.5T150 112v280H26v104h124v154h126V496h106V392H276V134q0-30 28-30h96V0H260zm326 0q-49 0-79.5 30.5T476 112v280h-94v104h94v154h126V496h136V392H602V134q0-30 28-30h96V0H586z"/><glyph glyph-name=".notdef" horiz-adv-x="910" d="M289-130q-89 0-141.5 51T95 70v550q0 98 52.5 149T289 820h332q89 0 141.5-51T815 620V70q0-98-52.5-149T621-130H289zm22 96h288q59 0 86.5 32T713 90v510q0 60-27.5 92T599 724H311q-59 0-86.5-32T197 600V90q0-60 27.5-92T311-34zm141 140q-28 0-46.5 17.5T387 169t18.5 45.5T452 232t46.5-17.5T517 169t-18.5-45.5T452 106zm-48 160v22q0 34 14 57t46 36l12 5q30 13 46 27t16 39q0 27-21.5 43.5T460 512q-36 0-60-17.5T376 443v-16h-90v20q0 46 23.5 79t63 51 87.5 18 86-17.5 60-48.5 22-73v-3q0-39-15-64.5t-38-41-47-25.5l-12-5q-11-4-15.5-12.5T496 281v-15h-92z"/><glyph glyph-name=".null"/><glyph glyph-name="nonmarkingreturn" horiz-adv-x="333"/><glyph glyph-name="CR" horiz-adv-x="600"/><glyph glyph-name="space" horiz-adv-x="254"/><glyph glyph-name="exclam" unicode="!" horiz-adv-x="298" d="M85 230v470h128V230H85zm65-244q-41 0-68.5 26.5T54 81t27.5 68.5T150 176q40 0 67-26.5T244 81t-27-68.5T150-14z"/><glyph glyph-name="quotedbl" unicode="&quot;" horiz-adv-x="514" d="M79 393v68h39q46 0 46 46v32h-17q-40 0-66.5 24T54 624q0 40 26.5 65t66.5 25q41 0 67-25.5t26-68.5V505q0-112-112-112H79zm220 0v68h39q46 0 46 46v32h-17q-40 0-66.5 24T274 624q0 40 26.5 65t66.5 25q41 0 67-25.5t26-68.5V505q0-112-112-112h-49z"/><glyph glyph-name="numbersign" unicode="#" horiz-adv-x="636" d="M148 0v186H40v108h108v112H40v108h108v186h114V514h112v186h114V514h108V406H488V294h108V186H488V0H374v186H262V0H148zm114 294h112v112H262V294z"/><glyph glyph-name="dollar" unicode="$" horiz-adv-x="606" d="M309-14q-81 0-143 29T69 98 34 228v28h130v-28q0-63 39-94.5T309 102q68 0 101.5 27t33.5 69q0 29-16 47t-47 29.5-76 21.5l-23 5q-72 16-123.5 40.5t-79 64.5T52 510t30.5 109.5 86 70T299 714t133.5-25.5 92-76T558 486v-30H428v30q0 40-15.5 64.5t-44.5 36-69 11.5q-60 0-88.5-22.5T182 514q0-26 13.5-44t40.5-30 69-21l23-5q75-16 130-41t85.5-66T574 202 541.5 89.5t-92-76T309-14zm-61-102v932h120v-932H248z"/><glyph glyph-name="percent" unicode="%" horiz-adv-x="758" d="M148-13 72 48l538 665 76-61zm422 3q-76 0-119 40.5T408 141v7q0 71 43 111.5T570 300q74 0 118-40.5T732 148v-7q0-70-43-110.5T570-10zm0 82q29 0 45.5 18t16.5 47v16q0 29-16.5 47T570 218t-45.5-18-16.5-47v-16q0-29 16.5-47T570 72zM188 400q-76 0-119 40.5T26 551v7q0 71 43 111.5T188 710q74 0 118-40.5T350 558v-7q0-70-43-110.5T188 400zm0 82q29 0 45.5 18t16.5 47v16q0 29-16.5 47T188 628t-45.5-18-16.5-47v-16q0-29 16.5-47t45.5-18z"/><glyph glyph-name="ampersand" unicode="&amp;" horiz-adv-x="591" d="M235 0q-62 0-108.5 22.5T54 87.5 28 189q0 43 15.5 75T86 317t60 31v14q-50 15-82 52t-32 98 27 103 73.5 63.5T239 700h109V596h-86q-45 0-74.5-24T158 501q0-33 14.5-54t38-31 51.5-10h97v90h126v-90h92V302h-92V0H235zm23 104h101v198H258q-44 0-74-25t-30-74q0-50 31.5-74.5T258 104z"/><glyph glyph-name="quotesingle" unicode="'" horiz-adv-x="294" d="M79 393v68h39q46 0 46 46v32h-17q-40 0-66.5 24T54 624q0 40 26.5 65t66.5 25q41 0 67-25.5t26-68.5V505q0-112-112-112H79z"/><glyph glyph-name="parenleft" unicode="(" horiz-adv-x="398" d="M390-246q-111 0-187 39T88.5-88 50 116v278q0 124 38.5 204T203 717t187 39V648q-109 0-163.5-62.5T172 390V120q0-133 54.5-195.5T390-138v-108z"/><glyph glyph-name="parenright" unicode=")" horiz-adv-x="390" d="M0-246v108q110 0 164 62.5T218 120v270q0 133-54 195.5T0 648v108q112 0 187.5-39t114-119T340 394V116q0-124-38.5-204t-114-119T0-246z"/><glyph glyph-name="asterisk" unicode="*" horiz-adv-x="540" d="M44 437v74h78l72-13 5 13-60 41-55 56 52 52 56-55 41-60 13 5-13 72v78h74v-78l-13-72 13-5 41 60 56 55 52-52-55-56-60-41 5-13 72 13h78v-74h-78l-72 13-5-13 60-41 55-56-52-52-56 55-41 60-13-5 13-72v-78h-74v78l13 72-13 5-41-60-56-55-52 52 55 56 60 41-5 13-72-13H44z"/><glyph glyph-name="plus" unicode="+" horiz-adv-x="620" d="M251 141v152H101v114h150v152h118V407h150V293H369V141H251z"/><glyph glyph-name="comma" unicode="," horiz-adv-x="294" d="M79-147v68h39q46 0 46 46v32h-17q-40 0-66.5 24T54 84q0 40 26.5 65t66.5 25q41 0 67-25.5T240 80V-35q0-112-112-112H79z"/><glyph glyph-name="hyphen" unicode="-" horiz-adv-x="432" d="M68 198v114h296V198H68z"/><glyph glyph-name="period" unicode="." horiz-adv-x="298" d="M150-14q-41 0-68.5 26.5T54 81t27.5 68.5T150 176q40 0 67-26.5T244 81t-27-68.5T150-14z"/><glyph glyph-name="slash" unicode="/" horiz-adv-x="388" d="m-16-200 294 900h126L110-200H-16z"/><glyph glyph-name="zero" unicode="0" horiz-adv-x="648" d="M324-14q-124 0-199 68.5T50 262v176q0 135 75 205.5T324 714q125 0 199.5-70.5T598 438V262q0-139-74.5-207.5T324-14zm0 114q75 0 110.5 41T470 258v186q0 77-39.5 116.5T324 600q-69 0-107.5-41T178 444V258q0-79 36.5-118.5T324 100z"/><glyph glyph-name="one" unicode="1" horiz-adv-x="452" d="M258 0v606h-18l-94-222H12l143 316h231V0H258z"/><glyph glyph-name="two" unicode="2" horiz-adv-x="594" d="M42 0v84q0 73 24 121.5t69.5 80T247 337l67 21q37 12 62 29.5t38.5 42.5 13.5 57v4q0 50-34 79.5T301 600q-58 0-93.5-31.5T172 478v-18H44v16q0 76 34 129t92.5 81T301 714t130-27.5 91.5-77T556 493v-10q0-67-27.5-113.5t-74.5-76T347 245l-64-20q-43-13-67-28.5t-33.5-34T173 118v-4h377V0H42z"/><glyph glyph-name="three" unicode="3" horiz-adv-x="608" d="M304-14q-79 0-140 28T68.5 94.5 34 219v18h128v-14q0-56 39-89.5T304 100q65 0 100.5 31t35.5 78v10q0 32-16 52t-43 29.5-61 9.5H180v140l226 120v16H52v114h496V530L337 418v-16h37q47 0 91.5-19t73.5-58.5T568 222v-12q0-68-33-118.5t-92.5-78T304-14z"/><glyph glyph-name="four" unicode="4" horiz-adv-x="636" d="M370 0v142H26v148l242 410h230V256h116V142H498V0H370zM148 256h222v362h-18L148 272v-16z"/><glyph glyph-name="five" unicode="5" horiz-adv-x="600" d="M303-14q-82 0-141.5 29T70 97 38 220v10h130v-9q0-50 33.5-85.5T301 100t101.5 35.5T438 228v10q0 56-35.5 89T314 360q-29 0-48-8t-31-20-20-24H60v392h478V584H188V413h18q10 13 27 25t44 20 64 8q62 0 113-26t81.5-76.5T566 239v-12q0-74-31.5-128T444 15.5 303-14z"/><glyph glyph-name="six" unicode="6" horiz-adv-x="618" d="M312-14q-80 0-139 30T82 99 50 221v239q0 85 34.5 141.5t95 84.5T318 714t135.5-26 89-75T574 496H444q0 42-29 73t-97 31q-67 0-103.5-35T178 468v-72h18q17 20 52 38t102 18q61 0 112.5-26t83.5-75.5T578 231v-12q0-69-33-121.5t-93-82T312-14zm2 114q63 0 99.5 33t36.5 88v8q0 37-16.5 64t-47 42-72.5 15q-41 0-72-15t-47.5-42-16.5-64v-8q0-55 36.5-88t99.5-33z"/><glyph glyph-name="seven" unicode="7" horiz-adv-x="554" d="M131 0v26q0 39 6 66.5t26 62.5l235 415v16H26v114h504V548L282 105q-13-23-18-41t-5-44V0H131z"/><glyph glyph-name="eight" unicode="8" horiz-adv-x="600" d="M300-14q-80 0-141.5 24t-96 69.5T28 187v12q0 48 17 79.5T87.5 328t48.5 25v18q-23 8-46 26t-37.5 48T38 517v12q0 55 32.5 96.5t91.5 65T300 714t138-23.5 91.5-65T562 529v-12q0-42-14.5-72t-37-48-46.5-26v-18q24-7 49-25t42-49.5 17-79.5v-12q0-62-34.5-107.5t-96-69.5T300-14zm0 114q69 0 106.5 26.5T444 197v8q0 44-36.5 70.5T300 302q-70 0-107-26.5T156 205v-8q0-44 37.5-70.5T300 100zm0 316q64 0 99 23t35 65v8q0 42-36 65t-98 23-98-23-36-65v-8q0-42 35-65t99-23z"/><glyph glyph-name="nine" unicode="9" horiz-adv-x="618" d="M300-14q-78 0-135.5 26t-89 75T44 204h130q0-42 29.5-73t96.5-31q68 0 104 35.5t36 96.5v72h-18q-17-20-51.5-38T268 248q-60 0-112 26t-84 75.5T40 469v12q0 70 33 122t93 81.5T306 714t139-30 91-83 32-122V240q0-85-34.5-141.5t-95-84.5T300-14zm4 364q42 0 72.5 15t47 42 16.5 64v8q0 56-36.5 88.5T304 600t-99.5-32.5T168 479v-8q0-37 16.5-64t47.5-42 72-15z"/><glyph glyph-name="colon" unicode=":" horiz-adv-x="298" d="M150-14q-41 0-68.5 26.5T54 81t27.5 68.5T150 176q40 0 67-26.5T244 81t-27-68.5T150-14zm0 334q-41 0-68.5 26.5T54 415t27.5 68.5T150 510q40 0 67-26.5t27-68.5-27-68.5-67-26.5z"/><glyph glyph-name="semicolon" unicode=";" horiz-adv-x="298" d="M150 320q-41 0-68.5 26.5T54 415t27.5 68.5T150 510q40 0 67-26.5t27-68.5-27-68.5-67-26.5zM81-147v68h39q46 0 46 46v32h-17q-40 0-66.5 24T56 84q0 40 26.5 65t66.5 25q41 0 67-25.5T242 80V-35q0-112-112-112H81z"/><glyph glyph-name="less" unicode="&lt;" horiz-adv-x="620" d="M520 130 100 272v156l420 142V450l-298-91v-18l298-91V130z"/><glyph glyph-name="equal" unicode="=" horiz-adv-x="620" d="M101 380v114h418V380H101zm0-174v114h418V206H101z"/><glyph glyph-name="greater" unicode="&gt;" horiz-adv-x="620" d="M100 130v120l298 91v18l-298 91v120l420-142V272z"/><glyph glyph-name="question" unicode="?" horiz-adv-x="578" d="M209 230v24q0 51 20.5 84t66.5 55l17 8q45 21 69 45t24 64q0 29-14.5 49.5T351 591t-61 11q-36 0-64.5-12t-45-36-16.5-60v-22H34v20q0 69 34 119t92 76.5T290 714q71 0 126.5-26t87.5-72 32-106-22-98.5-55.5-62T390 309l-17-8q-18-8-25-19.5t-7-33.5v-18H209zm70-244q-40 0-67.5 26.5T184 81t27.5 68.5T279 176q41 0 68-26.5T374 81t-27-68.5T279-14z"/><glyph glyph-name="at" unicode="@" horiz-adv-x="1014" d="M524-200q-143 0-245.5 54.5T121 9 66 246v24q0 137 54 236.5T274 660t238 54h22q126 0 220-52.5T900 515t52-219v-74q0-105-43-163.5T780 0h-58q-47 0-72 19t-25 51v2h-18q-8-21-23.5-39T544 4.5 483-6q-63 0-108.5 33.5t-70 89.5T280 242v16q0 70 23.5 126t67 89T473 506q37 0 61-9t39-24 25-33h18v60h122V146q0-17 7-25.5t24-8.5h4q29 0 42 27.5t13 82.5v72q0 95-32.5 163.5T697 563t-167 37h-14q-101 0-174-38T229.5 449.5 190 266v-16q0-109 40.5-184t117-113.5T532-86h208v-114H524zm-15 302q49 0 78 38t29 104v12q0 66-29 104t-78 38-77-38-28-104v-12q0-66 28-104t77-38z"/><glyph glyph-name="A" unicode="A" horiz-adv-x="634" d="m18 0 184 700h230L616 0H480l-38 154H192L154 0H18zm205 276h188l-85 341h-18z"/><glyph glyph-name="B" unicode="B" horiz-adv-x="664" d="M46 0v116h92v468H46v116h360q64 0 111.5-21.5t74-61T618 523v-10q0-48-18-78.5t-42.5-47T511 364v-18q22-6 48-22.5t44.5-47.5 18.5-81v-10q0-58-27-99.5T520.5 22 410 0H46zm224 120h124q43 0 69.5 21t26.5 60v10q0 39-26 60t-70 21H270V120zm0 292h122q41 0 67.5 21t26.5 58v10q0 38-26 58.5T392 580H270V412z"/><glyph glyph-name="C" unicode="C" horiz-adv-x="644" d="M332-14q-130 0-206 72.5T50 266v168q0 135 76 207.5T332 714q129 0 199.5-70.5T602 450v-6H472v10q0 62-34.5 102T332 596q-70 0-110-43t-40-117V264q0-73 40-116.5T332 104q71 0 105.5 40.5T472 246v18h130v-14q0-123-70.5-193.5T332-14z"/><glyph glyph-name="D" unicode="D" horiz-adv-x="666" d="M46 0v116h92v468H46v116h288q141 0 214.5-71.5T622 416V284q0-141-73.5-212.5T334 0H46zm224 120h66q80 0 117 42t37 118v140q0 77-37 118.5T336 580h-66V120z"/><glyph glyph-name="E" unicode="E" horiz-adv-x="554" d="M66 0v700h450V580H198V413h290V293H198V120h324V0H66z"/><glyph glyph-name="F" unicode="F" horiz-adv-x="534" d="M66 0v700h440V580H198V411h284V291H198V0H66z"/><glyph glyph-name="G" unicode="G" horiz-adv-x="662" d="M308-14q-72 0-130.5 32.5t-93 95T50 266v168q0 135 76 207.5T332 714q129 0 199.5-68.5T602 460v-4H472v8q0 37-15.5 67T410 578.5 332 596q-70 0-110-43t-40-117V264q0-73 40-117.5T334 102t105 38 33 96v10H306v112h296V0H480v67h-18q-7-17-22.5-36T393-1t-85-13z"/><glyph glyph-name="H" unicode="H" horiz-adv-x="656" d="M66 0v700h132V411h260v289h132V0H458v291H198V0H66z"/><glyph glyph-name="I" unicode="I" horiz-adv-x="264" d="M66 0v700h132V0H66z"/><glyph glyph-name="J" unicode="J" horiz-adv-x="610" d="M267-14Q159-14 95.5 45T32 210v66h132v-66q0-47 26-73.5t73-26.5q44 0 68.5 26t24.5 74v370H236v120h332V580h-80V210q0-109-59-166.5T267-14z"/><glyph glyph-name="K" unicode="K" horiz-adv-x="626" d="M66 0v700h132V422h18l227 278h169L320 355 622 0H448L216 284h-18V0H66z"/><glyph glyph-name="L" unicode="L" horiz-adv-x="542" d="M66 0v700h132V120h320V0H66z"/><glyph glyph-name="M" unicode="M" horiz-adv-x="882" d="M66 0v700h245L432 90h18l121 610h245V0H688v603h-18L550 0H332L212 603h-18V0H66z"/><glyph glyph-name="N" unicode="N" horiz-adv-x="670" d="M66 0v700h251L456 90h18v610h130V0H353L214 610h-18V0H66z"/><glyph glyph-name="O" unicode="O" horiz-adv-x="676" d="M338-14q-132 0-210 72.5T50 266v168q0 135 78 207.5T338 714t210-72.5T626 434V266q0-135-78-207.5T338-14zm0 118q74 0 115 43t41 115v176q0 72-41 115t-115 43q-73 0-114.5-43T182 438V262q0-72 41.5-115T338 104z"/><glyph glyph-name="P" unicode="P" horiz-adv-x="604" d="M66 0v700h288q66 0 116.5-26.5t79-74.5T578 485v-14q0-65-29.5-113.5t-80-75T354 256H198V0H66zm132 376h143q47 0 76 26t29 71v10q0 45-29 71t-76 26H198V376z"/><glyph glyph-name="Q" unicode="Q" horiz-adv-x="676" d="M338-14q-132 0-210 72.5T50 266v168q0 135 78 207.5T338 714t210-72.5T626 434V266q0-135-78-207.5T338-14zm0 118q74 0 115 43t41 115v176q0 72-41 115t-115 43q-73 0-114.5-43T182 438V262q0-72 41.5-115T338 104zm46-284q-49 0-79.5 30.5T274-68V0h128v-48q0-30 28-30h59v-102H384z"/><glyph glyph-name="R" unicode="R" horiz-adv-x="632" d="M66 0v700h304q66 0 115-23t76-65 27-99v-12q0-63-30-102t-74-57v-18q40-2 62-27.5t22-67.5V0H436v210q0 24-12.5 39T382 264H198V0H66zm132 384h158q47 0 73.5 25.5T456 477v10q0 42-26 67.5T356 580H198V384z"/><glyph glyph-name="S" unicode="S" horiz-adv-x="606" d="M309-14q-81 0-143 29T69 98 34 228v28h130v-28q0-63 39-94.5T309 102q68 0 101.5 27t33.5 69q0 29-16.5 47t-48 29.5T303 296l-23 5q-72 16-123.5 40.5t-79 64.5T50 510t30.5 109.5 86 70T297 714t133.5-25.5 92-76T556 486v-30H426v30q0 40-15.5 64.5t-44.5 36-69 11.5q-60 0-88.5-22.5T180 514q0-26 13.5-44t40.5-30 69-21l23-5q75-16 130.5-41t86.5-66 31-105-32.5-112.5-92-76T309-14z"/><glyph glyph-name="T" unicode="T" horiz-adv-x="588" d="M228 0v580H24v120h540V580H360V0H228z"/><glyph glyph-name="U" unicode="U" horiz-adv-x="672" d="M336-14q-86 0-147.5 31.5t-94 90T62 246v454h132V242q0-64 36.5-101T336 104t105.5 37T478 242v458h132V246q0-80-32.5-138.5t-94-90T336-14z"/><glyph glyph-name="V" unicode="V" horiz-adv-x="618" d="M196 0 18 700h136L302 85h14l148 615h136L422 0H196z"/><glyph glyph-name="W" unicode="W" horiz-adv-x="898" d="M122 0 30 700h131l68-608h18l88 608h228l88-608h18l68 608h131L776 0H548l-90 622h-18L350 0H122z"/><glyph glyph-name="X" unicode="X" horiz-adv-x="644" d="m22 0 205 353L24 700h150l139-253h18l139 253h150L417 353 622 0H472L331 259h-18L172 0H22z"/><glyph glyph-name="Y" unicode="Y" horiz-adv-x="624" d="M246 0v241L8 700h147l148-300h18l148 300h147L378 241V0H246z"/><glyph glyph-name="Z" unicode="Z" horiz-adv-x="576" d="M46 0v168l346 398v16H56v118h474V532L184 134v-16h348V0H46z"/><glyph glyph-name="bracketleft" unicode="[" horiz-adv-x="358" d="M172-246q-45 0-73.5 28.5T70-144v798q0 45 28.5 73.5T172 756h170V648H219q-27 0-27-30v-726q0-30 27-30h123v-108H172z"/><glyph glyph-name="backslash" unicode="\" horiz-adv-x="388" d="M278-200-16 700h126l294-900H278z"/><glyph glyph-name="bracketright" unicode="]" horiz-adv-x="358" d="M16-246v108h123q27 0 27 30v726q0 30-27 30H16v108h170q45 0 73.5-28.5T288 654v-798q0-45-28.5-73.5T186-246H16z"/><glyph glyph-name="asciicircum" unicode="^" horiz-adv-x="620" d="m70 424 146 276h188l146-276H410l-91 196h-18l-91-196H70z"/><glyph glyph-name="underscore" unicode="_" horiz-adv-x="620" d="M65-162v114h490v-114H65z"/><glyph glyph-name="grave" unicode="`" horiz-adv-x="296" d="M146 552 40 700h142l74-148H146z"/><glyph glyph-name="a" unicode="a" horiz-adv-x="578" d="M224-14q-53 0-95 18.5t-66.5 54T38 145t24.5 85.5 68 52T230 300h136v28q0 35-22 57.5T274 408q-47 0-70-21.5T174 331L58 370q12 38 38.5 69.5t71 51T276 510q98 0 155-49t57-142V134q0-30 28-30h40V0h-84q-37 0-61 18t-24 48v1h-19q-4-12-18-31.5T306 1t-82-15zm22 102q53 0 86.5 29.5T366 196v10H239q-35 0-55-15t-20-42 21-44 61-17z"/><glyph glyph-name="b" unicode="b" horiz-adv-x="638" d="M368-14q-67 0-103 23t-53 51h-18V0H70v700h126V439h18q11 18 29.5 34t49 26.5T368 510q60 0 111-29.5t82-86.5 31-138v-16q0-81-31-138t-82-86.5T368-14zM330 96q58 0 97 37.5T466 243v10q0 72-38.5 109.5T330 400q-58 0-97-37.5T194 253v-10q0-72 39-109.5T330 96z"/><glyph glyph-name="c" unicode="c" horiz-adv-x="586" d="M303-14q-72 0-130.5 30T80 103 46 241v14q0 81 34 138t92.5 87T303 510q71 0 122-25t82.5-68.5T549 318l-122-26q-4 30-18 54t-39.5 38-63.5 14-68.5-16.5-48-49T172 253v-10q0-47 17.5-79.5t48-49T306 98q57 0 86.5 29.5T430 205l122-29q-13-53-44.5-96.5T425 11 303-14z"/><glyph glyph-name="d" unicode="d" horiz-adv-x="638" d="M270-14q-59 0-110.5 29.5T77 102 46 240v16q0 81 31 138t82 86.5T270 510q45 0 75.5-10.5T395 473t29-34h18v261h126V0H444v60h-18q-17-28-52.5-51T270-14zm38 110q58 0 97 37.5T444 243v10q0 72-38.5 109.5T308 400q-58 0-97-37.5T172 253v-10q0-72 39-109.5T308 96z"/><glyph glyph-name="e" unicode="e" horiz-adv-x="577" d="M296-14q-74 0-130.5 31.5t-88 89T46 242v12q0 78 31 135.5t87 89T294 510q73 0 127-32.5t84-90T535 254v-43H174q2-51 38-83t88-32q53 0 78 23t38 51l103-54q-14-26-40.5-56.5T408 7.5 296-14zM175 305h232q-4 43-34.5 69T293 400q-51 0-81-26t-37-69z"/><glyph glyph-name="f" unicode="f" horiz-adv-x="436" d="M152 0v392H26v104h126v92q0 51 30.5 81.5T262 700h130V596h-86q-28 0-28-30v-70h130V392H278V0H152z"/><glyph glyph-name="g" unicode="g" horiz-adv-x="638" d="M46 246v16q0 78 31 133.5t82.5 85T272 510q68 0 103-24t51-50h18v60h124V-88q0-51-30-81.5T458-200H126v110h288q28 0 28 30V69h-18q-10-16-28-32.5T348 9 272-2q-61 0-112.5 29.5t-82.5 85T46 246zm262-138q58 0 97 37t39 104v10q0 68-38.5 104.5T308 400q-58 0-97-36.5T172 259v-10q0-67 39-104t97-37z"/><glyph glyph-name="h" unicode="h" horiz-adv-x="616" d="M70 0v700h126V435h18q8 16 25 32t45.5 26.5T357 504q58 0 101.5-26.5t67.5-73T550 296V0H424v286q0 56-27.5 84T318 398q-58 0-90-38.5T196 252V0H70z"/><glyph glyph-name="i" unicode="i" horiz-adv-x="266" d="M70 0v496h126V0H70zm63 554q-34 0-57.5 22T52 634t23.5 58 57.5 22q35 0 58-22t23-58-23-58-58-22z"/><glyph glyph-name="j" unicode="j" horiz-adv-x="268" d="M-22-200v108h66q28 0 28 30v558h126V-88q0-51-30-81.5T88-200H-22zm157 754q-34 0-57.5 22T54 634t23.5 58 57.5 22q35 0 58-22t23-58-23-58-58-22z"/><glyph glyph-name="k" unicode="k" horiz-adv-x="564" d="M70 0v700h126V313h18l164 183h164L313 256 550 0H388L214 197h-18V0H70z"/><glyph glyph-name="l" unicode="l" horiz-adv-x="266" d="M70 0v700h126V0H70z"/><glyph glyph-name="m" unicode="m" horiz-adv-x="854" d="M70 0v496h124v-54h18q13 25 43 43.5t79 18.5q53 0 85-20.5t49-53.5h18q17 32 48 53t88 21q46 0 83.5-19.5t60-59T788 326V0H662v317q0 41-21 61.5T582 399q-43 0-66.5-27.5T492 293V0H366v317q0 41-21 61.5T286 399q-43 0-66.5-27.5T196 293V0H70z"/><glyph glyph-name="n" unicode="n" horiz-adv-x="616" d="M70 0v496h124v-65h18q12 26 45 49.5T357 504q58 0 101.5-26.5t67.5-73T550 296V0H424v286q0 56-27.5 84T318 398q-58 0-90-38.5T196 252V0H70z"/><glyph glyph-name="o" unicode="o" horiz-adv-x="612" d="M306-14q-74 0-133 30t-93 87-34 137v16q0 80 34 137t93 87 133 30 133-30 93-87 34-137v-16q0-80-34-137t-93-87-133-30zm0 112q58 0 96 37.5T440 243v10q0 70-37.5 107.5T306 398q-58 0-96-37.5T172 253v-10q0-70 38-107.5T306 98z"/><glyph glyph-name="p" unicode="p" horiz-adv-x="638" d="M70-200v696h124v-60h18q17 29 53 51.5T368 510q60 0 111-29.5t82-86.5 31-138v-16q0-81-31-138t-82-86.5T368-14q-45 0-75.5 10.5t-49 27T214 57h-18v-257H70zM330 96q59 0 97.5 37.5T466 243v10q0 72-39 109.5T330 400t-97-37.5T194 253v-10q0-72 39-109.5T330 96z"/><glyph glyph-name="q" unicode="q" horiz-adv-x="638" d="M442-200V57h-18q-10-17-29-33.5t-49.5-27T270-14q-60 0-111 29.5T77 102 46 240v16q0 81 31 138t82.5 86.5T270 510q68 0 103.5-22.5T426 436h18v60h124v-696H442zM308 96q59 0 97.5 37.5T444 243v10q0 72-39 109.5T308 400t-97-37.5T172 253v-10q0-72 39-109.5T308 96z"/><glyph glyph-name="r" unicode="r" horiz-adv-x="396" d="M70 0v496h124v-56h18q11 30 36.5 44t59.5 14h60V386h-62q-48 0-79-25.5T196 282V0H70z"/><glyph glyph-name="s" unicode="s" horiz-adv-x="524" d="M276-14q-97 0-159 42T42 148l116 30q7-35 23.5-55t41-28.5T276 86q44 0 65 15.5t21 38.5-20 35.5-64 20.5l-28 5q-52 10-95 27.5T86 277t-26 80q0 74 54 113.5T256 510q83 0 138-37t72-97l-117-36q-8 38-32.5 54T256 410t-55-12.5-19-34.5q0-24 20-35.5t54-17.5l28-5q56-10 101.5-26.5t72-47T484 149q0-78-56.5-120.5T276-14z"/><glyph glyph-name="t" unicode="t" horiz-adv-x="456" d="M260 0q-49 0-79.5 30.5T150 112v280H26v104h124v154h126V496h136V392H276V134q0-30 28-30h96V0H260z"/><glyph glyph-name="u" unicode="u" horiz-adv-x="616" d="M259-8q-58 0-101.5 26.5T90 92 66 200v296h126V210q0-56 27.5-84T298 98q58 0 90 38.5T420 244v252h126V0H422v65h-18q-12-25-45-49T259-8z"/><glyph glyph-name="v" unicode="v" horiz-adv-x="548" d="M174 0 16 496h134L265 92h18l115 404h134L374 0H174z"/><glyph glyph-name="w" unicode="w" horiz-adv-x="784" d="M110 0 40 496h125l44-411h18l64 411h202l64-411h18l44 411h125L674 0H465l-64 411h-18L319 0H110z"/><glyph glyph-name="x" unicode="x" horiz-adv-x="592" d="m26 0 180 250L28 496h146l113-165h18l113 165h146L386 250 566 0H418L305 167h-18L174 0H26z"/><glyph glyph-name="y" unicode="y" horiz-adv-x="616" d="M124-200v110h270q28 0 28 30V65h-18q-8-17-25-34T333 3 259-8q-58 0-101.5 26.5T90 92 66 200v296h126V210q0-56 27.5-84T298 98q58 0 90 38.5T420 244v252h126V-88q0-51-30-81.5T436-200H124z"/><glyph glyph-name="z" unicode="z" horiz-adv-x="518" d="M52 0v150l272 226v16H62v104h400V346L190 120v-16h280V0H52z"/><glyph glyph-name="braceleft" unicode="{" horiz-adv-x="466" d="M280-246q-45 0-73.5 28.5T178-144v310q0 29-27 29H36v120h115q27 0 27 29v310q0 45 28.5 73.5T280 756h170V648H327q-27 0-27-30V344q0-34-21.5-57T222 264h-16v-18h16q35 0 56.5-23t21.5-57v-274q0-30 27-30h123v-108H280z"/><glyph glyph-name="bar" unicode="|" horiz-adv-x="258" d="M66-246V806h126V-246H66z"/><glyph glyph-name="braceright" unicode="}" horiz-adv-x="466" d="M16-246v108h123q27 0 27 30v274q0 34 21.5 57t56.5 23h16v18h-16q-35 0-56.5 23T166 344v274q0 30-27 30H16v108h170q45 0 73.5-28.5T288 654V344q0-29 27-29h115V195H315q-27 0-27-29v-310q0-45-28.5-73.5T186-246H16z"/><glyph glyph-name="asciitilde" unicode="~" horiz-adv-x="620" d="m113 237-70 93 120 90q20 16 42.5 26.5T257 457t48.5-11.5T338 416q14-19 22-27t21-8q12 0 22.5 6.5T427 404l79 59 70-93-120-90q-20-16-42.5-26.5T362 243t-48.5 11.5T281 284q-14 20-21.5 27.5T238 319q-12 0-22.5-6.5T192 296z"/><glyph glyph-name="uni00A0" horiz-adv-x="254"/><glyph glyph-name="exclamdown" unicode="¡" horiz-adv-x="298" d="M85-200v466h128v-466H85zm65 710q40 0 67-26.5t27-68.5-27-68.5-67-26.5q-41 0-68.5 26.5T54 415t27.5 68.5T150 510z"/><glyph glyph-name="cent" unicode="¢" horiz-adv-x="598" d="M307-14q-72 0-130.5 30T84 103 50 241v14q0 81 34 138t92.5 87T307 510q71 0 122-25t82.5-68.5T553 318l-122-26q-4 30-18 54t-39.5 38-63.5 14-68.5-16.5-48-49T176 253v-10q0-47 17.5-79.5t48-49T310 98q57 0 86.5 29.5T434 205l122-29q-13-53-44.5-96.5T429 11 307-14zm-54-102v728h112v-728H253z"/><glyph glyph-name="sterling" unicode="£" horiz-adv-x="638" d="M52 0v114h74v172H56v102h70v106q0 104 61.5 162T354 714t166.5-58T582 494v-62H456v66q0 48-27.5 75T354 600q-46 0-74-27t-28-75V388h100V286H252V114h334V0H52z"/><glyph glyph-name="currency" unicode="¤" horiz-adv-x="620" d="m115 78-77 77 61 61q-19 29-29 62.5T60 350q0 37 10 71t29 63l-61 61 77 77 61-61q29 18 62.5 28.5T310 600q37 0 71-10.5t63-28.5l61 61 77-77-61-61q18-29 28.5-63t10.5-71q0-38-10.5-71.5T521 216l61-61-77-77-61 61q-29-19-63-29t-71-10q-38 0-71.5 10T176 139zm195 130q40 0 72 19t51 51 19 72-19 72-51 51-72 19q-39 0-71.5-19T187 422t-19-72q0-39 19-71.5t51-51.5 72-19z"/><glyph glyph-name="yen" unicode="¥" horiz-adv-x="620" d="M244 0v267l-21 10L-2 700h150l153-298h18l153 298h150L397 277l-21-10V0H244zM83 106v102h454V106H83zm0 156v102h454V262H83z"/><glyph glyph-name="brokenbar" unicode="¦" horiz-adv-x="258" d="M66 366v440h126V366H66zm0-612v440h126v-440H66z"/><glyph glyph-name="section" unicode="§" horiz-adv-x="474" d="M240-14q-97 0-153.5 54.5T30 184v14h108v-12q0-44 24.5-71T239 88q43 0 64 16t21 48q0 30-20 46.5T231 225q-84 15-131.5 54T52 390q0 24 5.5 44.5T73 472q-21 33-21 78v6q0 50 23.5 85t64 54 92.5 19q86 0 140-44.5T426 548v-22H318v12q0 20-8 37t-26.5 27-48.5 10q-34 0-53.5-15T162 556q0-32 29-46.5t72-22.5q90-16 130.5-56.5T434 324q0-50-18-86 9-16 13.5-34.5T434 164v-8q0-75-50.5-122.5T240-14zm80 323q1 2 1 4.5v6.5q0 26-18.5 43T231 389q-17 3-33 7.5t-32 9.5q-3-6-3-16 0-31 29.5-45t70.5-22q17-3 30-6t27-8z"/><glyph glyph-name="dieresis" unicode="¨" horiz-adv-x="448" d="M327 550q-34 0-57.5 21.5T246 630t23.5 58.5T327 710q35 0 58-21.5t23-58.5-23-58.5-58-21.5zm-206 0q-34 0-57.5 21.5T40 630t23.5 58.5T121 710q35 0 58-21.5t23-58.5-23-58.5-58-21.5z"/><glyph glyph-name="copyright" unicode="©" horiz-adv-x="720" d="M350-12q-92 0-159.5 36t-104 103.5T50 290v120q0 95 36.5 162.5t104 103.5T350 712h20q92 0 159.5-36t104-103.5T670 410V290q0-95-36.5-162.5T529.5 24 370-12h-20zm2 96h16q96 0 148 52.5T568 288v124q0 99-52 151.5T368 616h-16q-96 0-148-52.5T152 412V288q0-99 52-151.5T352 84zm10 70q-64 0-102 39t-38 111v94q0 72 38 111t102 39q71 0 104.5-38.5T500 408v-14h-94v20q0 20-10.5 32T362 458q-22 0-33-12t-11-32V288q0-20 11-32t33-12q23 0 33.5 12t10.5 32v20h94v-14q0-63-33.5-101.5T362 154z"/><glyph glyph-name="ordfeminine" unicode="ª" horiz-adv-x="419" d="M161 340q-55 0-91 28.5T34 452q0 53 37 81.5t95 28.5h89v16q0 26-13.5 42T196 636q-31 0-47-15t-21-35l-81 27q11 40 48.5 68.5T199 710t107-33.5T347 574V443q0-21 19-21h33v-72h-66q-26 0-41.5 12T274 395h-12q-3-9-14-22t-32-23-55-10zm18 74q35 0 55.5 17t20.5 54v11h-80q-22 0-35.5-11.5T126 456q0-18 14-30t39-12z"/><glyph glyph-name="guillemotleft" unicode="«" horiz-adv-x="720" d="M646 6 352 180v136l294 174h6V354l-181-97v-18l181-97V6h-6zM346 6 52 180v136l294 174h6V354l-181-97v-18l181-97V6h-6z"/><glyph glyph-name="logicalnot" unicode="¬" horiz-adv-x="620" d="M408 162v131H100v114h420V162H408z"/><glyph glyph-name="uni00AD" unicode="­" horiz-adv-x="432" d="M68 198v114h296V198H68z"/><glyph glyph-name="registered" unicode="®" horiz-adv-x="516" d="M258 298q-60 0-107.5 26.5t-75 73.5T48 506t27.5 108 75 73.5T258 714t107.5-26.5 75-73.5T468 506t-27.5-108-75-73.5T258 298zm0 42q75 0 120.5 45.5T424 506t-45.5 120.5T258 672t-120.5-45.5T92 506t45.5-120.5T258 340zm-72 57v222h85q37 0 56-18t19-42q0-19-9.5-33.5T306 503v-10q17-1 24.5-11t7.5-27v-58h-42v60q0 21-21 21h-47v-81h-42zm42 119h43q17 0 25 10t8 23q0 14-8 23t-25 9h-43v-65z"/><glyph glyph-name="macron" unicode="¯" horiz-adv-x="408" d="M40 566v100h328V566H40z"/><glyph glyph-name="degree" unicode="°" horiz-adv-x="394" d="M197 394q-46 0-83.5 20.5t-59.5 57T32 555q0 46 22 82t59.5 56.5T197 714t83.5-20.5T340 637t22-83q0-46-22-82.5t-59.5-57T197 394zm0 96q28 0 46.5 18t18.5 46q0 29-18.5 46.5T197 618t-46.5-17.5T132 554q0-28 18.5-46t46.5-18z"/><glyph glyph-name="plusminus" unicode="±" horiz-adv-x="620" d="M251 162v132H101v114h150v132h118V408h150V294H369V162H251zM101 0v114h418V0H101z"/><glyph glyph-name="uni00B2" unicode="²" horiz-adv-x="364" d="M26 350v44q0 60 32 94t99 49q44 10 64.5 23t20.5 34q0 20-16 31t-40 11-42-12.5-20-43.5l-94 7q5 61 48 93t108 32 107.5-32.5T336 593t-37.5-81T197 471q-40-8-55.5-18T126 426h208v-76H26z"/><glyph glyph-name="uni00B3" unicode="³" horiz-adv-x="363" d="M181 338q-66 0-111 32t-50 90l93 10q3-25 22.5-40.5T181 414q29 0 45.5 15t16.5 36q0 22-16.5 33.5T179 510h-66v66l85 36v14H27v74h308v-78l-106-50v-14q51-2 79.5-25.5T337 461q0-36-20.5-63.5t-56-43.5-79.5-16z"/><glyph glyph-name="acute" unicode="´" horiz-adv-x="296" d="m40 552 74 148h142L150 552H40z"/><glyph glyph-name="uni00B5" unicode="µ" horiz-adv-x="624" d="M66-200v696h126V208q0-52 27.5-81T298 98q58 0 88 36t30 102v260h126V134q0-30 28-30h40V0h-84q-37 0-60.5 18T440 70v4h-18q-13-35-46.5-58.5T289-8Q257-8 237.5.5T206 18h-18v-218H66z"/><glyph glyph-name="paragraph" unicode="¶" horiz-adv-x="614" d="M254 0v284h-26q-62 0-110 26.5t-75 72T16 486v12q0 60 28 105.5t77.5 71T234 700h314V0H440v598h-78V0H254zm-32 386h32v212h-32q-43 0-70.5-28T124 495v-6q0-47 29-75t69-28z"/><glyph glyph-name="periodcentered" unicode="·" horiz-adv-x="218" d="M110 191q-41 0-68.5 26.5T14 286t27.5 68.5T110 381q40 0 67-26.5t27-68.5-27-68.5-67-26.5z"/><glyph glyph-name="cedilla" unicode="¸" horiz-adv-x="328" d="M155-214q-32 0-62.5 6T40-195l20 75q19-6 40.5-11t48.5-5q20 0 33 7t13 22q0 14-11.5 20.5T146-80h-38l7 100h86l-4-59q38 0 64.5-21t26.5-62q0-32-19-52.5t-49.5-30T155-214z"/><glyph glyph-name="uni00B9" unicode="¹" horiz-adv-x="262" d="M130 350v272h-14l-15-78H16l38 156h168V350h-92z"/><glyph glyph-name="ordmasculine" unicode="º" horiz-adv-x="436" d="M218 340q-84 0-135 48.5T32 525q0 89 51 137t135 48 135-48 51-137q0-88-51-136.5T218 340zm0 76q42 0 67 27.5t25 81.5-25 81.5-67 27.5-67-27.5-25-81.5 25-81.5 67-27.5z"/><glyph glyph-name="guillemotright" unicode="»" horiz-adv-x="720" d="M368 6v136l181 97v18l-181 97v136h6l294-174V180L374 6h-6zM68 6v136l181 97v18L68 354v136h6l294-174V180L74 6h-6z"/><glyph glyph-name="onequarter" unicode="¼" horiz-adv-x="830" d="M130 350v272h-14l-15-78H16l38 156h168V350h-92zm15-360L78 45l539 665 67-55zM660 0v71H458v88l133 191h163V147h60V71h-60V0h-94zM558 147h102v139h-14l-88-127v-12z"/><glyph glyph-name="onehalf" unicode="½" horiz-adv-x="824" d="M130 350v272h-14l-15-78H16l38 156h168V350h-92zm15-360L78 45l539 665 67-55zM486 0v44q0 60 32 94t99 49q44 10 64.5 23t20.5 34q0 20-16 31t-40 11-42-12.5-20-43.5l-94 7q5 61 48 93t108 32 107.5-32.5T796 243t-37.5-81T657 121q-40-8-55.5-18T586 76h208V0H486z"/><glyph glyph-name="threequarters" unicode="¾" horiz-adv-x="891" d="M181 338q-66 0-111 32t-50 90l93 10q3-25 22.5-40.5T181 414q29 0 45.5 15t16.5 36q0 22-16.5 33.5T179 510h-66v66l85 36v14H27v74h308v-78l-106-50v-14q51-2 79.5-25.5T337 461q0-36-20.5-63.5t-56-43.5-79.5-16zm25-348-67 55 539 665 67-55zM721 0v71H519v88l133 191h163V147h60V71h-60V0h-94zM619 147h102v139h-14l-88-127v-12z"/><glyph glyph-name="questiondown" unicode="¿" horiz-adv-x="578" d="M288-214q-71 0-126.5 26T74-116 42-10t22 98.5 55.5 62.5 68.5 40l17 8q18 8 25 19.5t7 33.5v14h132v-20q0-51-20-84t-67-55l-17-8q-45-21-69-44.5T172-10q0-29 14.5-49.5T227-91t61-11q36 0 64.5 12t45 36T414 6v22h130V8q0-69-34-118.5T418-187t-130-27zm11 724q41 0 68-26.5t27-68.5-27-68.5-68-26.5q-40 0-67.5 26.5T204 415t27.5 68.5T299 510z"/><glyph glyph-name="Agrave" unicode="À" horiz-adv-x="634" d="m18 0 184 700h230L616 0H480l-38 154H192L154 0H18zm205 276h188l-85 341h-18zm60 482L179 888h146l70-130H283z"/><glyph glyph-name="Aacute" unicode="Á" horiz-adv-x="634" d="m18 0 184 700h230L616 0H480l-38 154H192L154 0H18zm205 276h188l-85 341h-18zm16 482 70 130h146L351 758H239z"/><glyph glyph-name="Acircumflex" unicode="Â" horiz-adv-x="634" d="m18 0 184 700h230L616 0H480l-38 154H192L154 0H18zm205 276h188l-85 341h-18zm-98 482 114 130h156l114-130H375l-49 66h-18l-49-66H125z"/><glyph glyph-name="Atilde" unicode="Ã" horiz-adv-x="634" d="m18 0 184 700h230L616 0H480l-38 154H192L154 0H18zm205 276h188l-85 341h-18zm-23 470-64 51 32 43q18 24 38.5 37t48.5 13q24 0 39-7t32-21q10-8 20.5-16.5T372 837q16 0 26 10t19 21l17 22 64-51-32-43q-18-24-38.5-37T379 746q-24 0-39 7t-32 21q-10 8-20.5 16.5T262 799q-16 0-26-10t-19-21z"/><glyph glyph-name="Adieresis" unicode="Ä" horiz-adv-x="634" d="m18 0 184 700h230L616 0H480l-38 154H192L154 0H18zm205 276h188l-85 341h-18zm205 478q-34 0-57.5 21.5T347 834t23.5 58.5T428 914q35 0 58-21.5t23-58.5-23-58.5-58-21.5zm-222 0q-34 0-57.5 21.5T125 834t23.5 58.5T206 914q35 0 58-21.5t23-58.5-23-58.5-58-21.5z"/><glyph glyph-name="Aring" unicode="Å" horiz-adv-x="634" d="m18 0 184 700h230L616 0H480l-38 154H192L154 0H18zm205 276h188l-85 341h-18zm94 472q-43 0-73.5 28.5T213 848t30 71.5 74 28.5 74-28 30-72q0-46-31.5-73T317 748zm0 70q14 0 22 8.5t8 21.5-8 21.5-22 8.5q-13 0-21.5-8.5T287 848t8.5-21.5T317 818z"/><glyph glyph-name="AE" unicode="Æ" horiz-adv-x="821" d="M375 0v700h408V580H505V413h250V293H505V120h284V0H375zM18 0l234 700h123v-70h-18L242 276h133V154H203L153 0H18z"/><glyph glyph-name="Ccedilla" unicode="Ç" horiz-adv-x="644" d="M332-14q-130 0-206 72.5T50 266v168q0 135 76 207.5T332 714q129 0 199.5-70.5T602 450v-6H472v10q0 62-34.5 102T332 596q-70 0-110-43t-40-117V264q0-73 40-116.5T332 104q71 0 105.5 40.5T472 246v18h130v-14q0-123-70.5-193.5T332-14zm0-200q-32 0-62.5 6T217-195l20 75q19-6 40.5-11t48.5-5q20 0 33 7t13 22q0 14-11.5 20.5T323-80h-38l7 100h86l-4-59q38 0 64.5-21t26.5-62q0-32-19-52.5t-49.5-30T332-214z"/><glyph glyph-name="Egrave" unicode="È" horiz-adv-x="554" d="M66 0v700h450V580H198V413h290V293H198V120h324V0H66zm196 758L158 888h146l70-130H262z"/><glyph glyph-name="Eacute" unicode="É" horiz-adv-x="554" d="M66 0v700h450V580H198V413h290V293H198V120h324V0H66zm152 758 70 130h146L330 758H218z"/><glyph glyph-name="Ecircumflex" unicode="Ê" horiz-adv-x="554" d="M66 0v700h450V580H198V413h290V293H198V120h324V0H66zm38 758 114 130h156l114-130H354l-49 66h-18l-49-66H104z"/><glyph glyph-name="Edieresis" unicode="Ë" horiz-adv-x="554" d="M66 0v700h450V580H198V413h290V293H198V120h324V0H66zm341 754q-34 0-57.5 21.5T326 834t23.5 58.5T407 914q35 0 58-21.5t23-58.5-23-58.5-58-21.5zm-222 0q-34 0-57.5 21.5T104 834t23.5 58.5T185 914q35 0 58-21.5t23-58.5-23-58.5-58-21.5z"/><glyph glyph-name="Igrave" unicode="Ì" horiz-adv-x="264" d="M66 0v700h132V0H66zm32 758L-6 888h146l70-130H98z"/><glyph glyph-name="Iacute" unicode="Í" horiz-adv-x="264" d="M66 0v700h132V0H66zM54 758l70 130h146L166 758H54z"/><glyph glyph-name="Icircumflex" unicode="Î" horiz-adv-x="264" d="M66 0v700h132V0H66zM-60 758 54 888h156l114-130H190l-49 66h-18l-49-66H-60z"/><glyph glyph-name="Idieresis" unicode="Ï" horiz-adv-x="264" d="M66 0v700h132V0H66zm177 754q-34 0-57.5 21.5T162 834t23.5 58.5T243 914q35 0 58-21.5t23-58.5-23-58.5-58-21.5zm-222 0q-34 0-57.5 21.5T-60 834t23.5 58.5T21 914q35 0 58-21.5t23-58.5-23-58.5T21 754z"/><glyph glyph-name="Eth" unicode="Ð" horiz-adv-x="666" d="M46 0v116h92v468H46v116h288q141 0 214.5-71.5T622 416V284q0-141-73.5-212.5T334 0H46zm224 120h66q80 0 117 42t37 118v140q0 77-37 118.5T336 580h-66V120zM46 306v90h340v-90H46z"/><glyph glyph-name="Ntilde" unicode="Ñ" horiz-adv-x="670" d="M66 0v700h251L456 90h18v610h130V0H353L214 610h-18V0H66zm151 746-64 51 32 43q18 24 38.5 37t48.5 13q24 0 39-7t32-21q10-8 20.5-16.5T389 837q16 0 26 10t19 21l17 22 64-51-32-43q-18-24-38.5-37T396 746q-24 0-39 7t-32 21q-10 8-20.5 16.5T279 799q-16 0-26-10t-19-21z"/><glyph glyph-name="Ograve" unicode="Ò" horiz-adv-x="676" d="M338-14q-132 0-210 72.5T50 266v168q0 135 78 207.5T338 714t210-72.5T626 434V266q0-135-78-207.5T338-14zm0 118q74 0 115 43t41 115v176q0 72-41 115t-115 43q-73 0-114.5-43T182 438V262q0-72 41.5-115T338 104zm-34 654L200 888h146l70-130H304z"/><glyph glyph-name="Oacute" unicode="Ó" horiz-adv-x="676" d="M338-14q-132 0-210 72.5T50 266v168q0 135 78 207.5T338 714t210-72.5T626 434V266q0-135-78-207.5T338-14zm0 118q74 0 115 43t41 115v176q0 72-41 115t-115 43q-73 0-114.5-43T182 438V262q0-72 41.5-115T338 104zm-78 654 70 130h146L372 758H260z"/><glyph glyph-name="Ocircumflex" unicode="Ô" horiz-adv-x="676" d="M338-14q-132 0-210 72.5T50 266v168q0 135 78 207.5T338 714t210-72.5T626 434V266q0-135-78-207.5T338-14zm0 118q74 0 115 43t41 115v176q0 72-41 115t-115 43q-73 0-114.5-43T182 438V262q0-72 41.5-115T338 104zM146 758l114 130h156l114-130H396l-49 66h-18l-49-66H146z"/><glyph glyph-name="Otilde" unicode="Õ" horiz-adv-x="676" d="M338-14q-132 0-210 72.5T50 266v168q0 135 78 207.5T338 714t210-72.5T626 434V266q0-135-78-207.5T338-14zm0 118q74 0 115 43t41 115v176q0 72-41 115t-115 43q-73 0-114.5-43T182 438V262q0-72 41.5-115T338 104zM221 746l-64 51 32 43q18 24 38.5 37t48.5 13q24 0 39-7t32-21q10-8 20.5-16.5T393 837q16 0 26 10t19 21l17 22 64-51-32-43q-18-24-38.5-37T400 746q-24 0-39 7t-32 21q-10 8-20.5 16.5T283 799q-16 0-26-10t-19-21z"/><glyph glyph-name="Odieresis" unicode="Ö" horiz-adv-x="676" d="M338-14q-132 0-210 72.5T50 266v168q0 135 78 207.5T338 714t210-72.5T626 434V266q0-135-78-207.5T338-14zm0 118q74 0 115 43t41 115v176q0 72-41 115t-115 43q-73 0-114.5-43T182 438V262q0-72 41.5-115T338 104zm111 650q-34 0-57.5 21.5T368 834t23.5 58.5T449 914q35 0 58-21.5t23-58.5-23-58.5-58-21.5zm-222 0q-34 0-57.5 21.5T146 834t23.5 58.5T227 914q35 0 58-21.5t23-58.5-23-58.5-58-21.5z"/><glyph glyph-name="multiply" unicode="×" horiz-adv-x="620" d="m177 138-81 81 132 131L96 481l81 81 133-131 133 131 81-81-132-131 132-131-81-81-133 131z"/><glyph glyph-name="Oslash" unicode="Ø" horiz-adv-x="676" d="M338-14q-132 0-210 72.5T50 266v168q0 135 78 207.5T338 714t210-72.5T626 434V266q0-135-78-207.5T338-14zm0 118q74 0 115 43t41 115v176q0 72-41 115t-115 43q-73 0-114.5-43T182 438V262q0-72 41.5-115T338 104zM207-93l-83 34 346 840 83-34z"/><glyph glyph-name="Ugrave" unicode="Ù" horiz-adv-x="672" d="M336-14q-86 0-147.5 31.5t-94 90T62 246v454h132V242q0-64 36.5-101T336 104t105.5 37T478 242v458h132V246q0-80-32.5-138.5t-94-90T336-14zm-34 772L198 888h146l70-130H302z"/><glyph glyph-name="Uacute" unicode="Ú" horiz-adv-x="672" d="M336-14q-86 0-147.5 31.5t-94 90T62 246v454h132V242q0-64 36.5-101T336 104t105.5 37T478 242v458h132V246q0-80-32.5-138.5t-94-90T336-14zm-78 772 70 130h146L370 758H258z"/><glyph glyph-name="Ucircumflex" unicode="Û" horiz-adv-x="672" d="M336-14q-86 0-147.5 31.5t-94 90T62 246v454h132V242q0-64 36.5-101T336 104t105.5 37T478 242v458h132V246q0-80-32.5-138.5t-94-90T336-14zM144 758l114 130h156l114-130H394l-49 66h-18l-49-66H144z"/><glyph glyph-name="Udieresis" unicode="Ü" horiz-adv-x="672" d="M336-14q-86 0-147.5 31.5t-94 90T62 246v454h132V242q0-64 36.5-101T336 104t105.5 37T478 242v458h132V246q0-80-32.5-138.5t-94-90T336-14zm111 768q-34 0-57.5 21.5T366 834t23.5 58.5T447 914q35 0 58-21.5t23-58.5-23-58.5-58-21.5zm-222 0q-34 0-57.5 21.5T144 834t23.5 58.5T225 914q35 0 58-21.5t23-58.5-23-58.5-58-21.5z"/><glyph glyph-name="Yacute" unicode="Ý" horiz-adv-x="624" d="M246 0v241L8 700h147l148-300h18l148 300h147L378 241V0H246zm-12 758 70 130h146L346 758H234z"/><glyph glyph-name="Thorn" unicode="Þ" horiz-adv-x="604" d="M198 138v120h143q47 0 76 26t29 71v10q0 45-29 71t-76 26H198v120h156q66 0 116.5-26.5t79-74.5T578 367v-14q0-65-29.5-113.5t-80-75T354 138H198zM66 0v700h132V0H66z"/><glyph glyph-name="germandbls" unicode="ß" horiz-adv-x="651" d="M426-14q-63 0-106 21.5t-67.5 54T219 127l114 37q8-34 30.5-55T426 88q36 0 56.5 20.5T503 159q0 20-9 33.5t-26 23-41 17.5l-42 15q-44 16-64.5 41T300 347q0 35 16.5 57.5T365 450q24 17 43.5 39.5T428 543q0 29-25.5 47T336 608q-33 0-65.5-16.5T217 537t-21-103V0H70v430q0 90 34 153.5t94 97T336 714q62 0 111-21.5t77-59.5 28-86q0-43-15-73.5t-39.5-52T446 382q-8-5-12.5-10t-4.5-12q0-14 26-23l25-9q42-15 75.5-36t52.5-53 19-81-24-88-69-61.5T426-14z"/><glyph glyph-name="agrave" unicode="à" horiz-adv-x="578" d="M224-14q-53 0-95 18.5t-66.5 54T38 145t24.5 85.5 68 52T230 300h136v28q0 35-22 57.5T274 408q-47 0-70-21.5T174 331L58 370q12 38 38.5 69.5t71 51T276 510q98 0 155-49t57-142V134q0-30 28-30h40V0h-84q-37 0-61 18t-24 48v1h-19q-4-12-18-31.5T306 1t-82-15zm22 102q53 0 86.5 29.5T366 196v10H239q-35 0-55-15t-20-42 21-44 61-17zm1 464L141 700h142l74-148H247z"/><glyph glyph-name="aacute" unicode="á" horiz-adv-x="578" d="M224-14q-53 0-95 18.5t-66.5 54T38 145t24.5 85.5 68 52T230 300h136v28q0 35-22 57.5T274 408q-47 0-70-21.5T174 331L58 370q12 38 38.5 69.5t71 51T276 510q98 0 155-49t57-142V134q0-30 28-30h40V0h-84q-37 0-61 18t-24 48v1h-19q-4-12-18-31.5T306 1t-82-15zm22 102q53 0 86.5 29.5T366 196v10H239q-35 0-55-15t-20-42 21-44 61-17zm-41 464 74 148h142L315 552H205z"/><glyph glyph-name="acircumflex" unicode="â" horiz-adv-x="578" d="M224-14q-53 0-95 18.5t-66.5 54T38 145t24.5 85.5 68 52T230 300h136v28q0 35-22 57.5T274 408q-47 0-70-21.5T174 331L58 370q12 38 38.5 69.5t71 51T276 510q98 0 155-49t57-142V134q0-30 28-30h40V0h-84q-37 0-61 18t-24 48v1h-19q-4-12-18-31.5T306 1t-82-15zm22 102q53 0 86.5 29.5T366 196v10H239q-35 0-55-15t-20-42 21-44 61-17zM89 552l117 148h150l117-148H346l-56 74h-18l-56-74H89z"/><glyph glyph-name="atilde" unicode="ã" horiz-adv-x="578" d="M224-14q-53 0-95 18.5t-66.5 54T38 145t24.5 85.5 68 52T230 300h136v28q0 35-22 57.5T274 408q-47 0-70-21.5T174 331L58 370q12 38 38.5 69.5t71 51T276 510q98 0 155-49t57-142V134q0-30 28-30h40V0h-84q-37 0-61 18t-24 48v1h-19q-4-12-18-31.5T306 1t-82-15zm22 102q53 0 86.5 29.5T366 196v10H239q-35 0-55-15t-20-42 21-44 61-17zm-77 454-69 44 33 57q15 26 36.5 37.5T216 692q22 0 38.5-8.5T287 661q9-8 19.5-16t23.5-8q15 0 24.5 10t16.5 21l16 24 69-44-33-57q-15-25-36-37t-47-12q-22 0-38.5 8.5T269 573q-9 8-19 16t-24 8q-15 0-24-10t-17-21z"/><glyph glyph-name="adieresis" unicode="ä" horiz-adv-x="578" d="M224-14q-53 0-95 18.5t-66.5 54T38 145t24.5 85.5 68 52T230 300h136v28q0 35-22 57.5T274 408q-47 0-70-21.5T174 331L58 370q12 38 38.5 69.5t71 51T276 510q98 0 155-49t57-142V134q0-30 28-30h40V0h-84q-37 0-61 18t-24 48v1h-19q-4-12-18-31.5T306 1t-82-15zm22 102q53 0 86.5 29.5T366 196v10H239q-35 0-55-15t-20-42 21-44 61-17zm138 462q-34 0-57.5 21.5T303 630t23.5 58.5T384 710q35 0 58-21.5t23-58.5-23-58.5-58-21.5zm-206 0q-34 0-57.5 21.5T97 630t23.5 58.5T178 710q35 0 58-21.5t23-58.5-23-58.5-58-21.5z"/><glyph glyph-name="aring" unicode="å" horiz-adv-x="578" d="M224-14q-53 0-95 18.5t-66.5 54T38 145t24.5 85.5 68 52T230 300h136v28q0 35-22 57.5T274 408q-47 0-70-21.5T174 331L58 370q12 38 38.5 69.5t71 51T276 510q98 0 155-49t57-142V134q0-30 28-30h40V0h-84q-37 0-61 18t-24 48v1h-19q-4-12-18-31.5T306 1t-82-15zm22 102q53 0 86.5 29.5T366 196v10H239q-35 0-55-15t-20-42 21-44 61-17zm35 451q-43 0-73.5 28.5T177 639t30 71.5 74 28.5 74-28 30-72q0-46-31.5-73T281 539zm0 70q14 0 22 8.5t8 21.5-8 21.5-22 8.5q-13 0-21.5-8.5T251 639t8.5-21.5T281 609z"/><glyph glyph-name="ae" unicode="æ" horiz-adv-x="874" d="M615-14q-71 0-124.5 36t-83 96.5T378 252t29.5 131.5 81 92.5T607 510q72 0 122-33t76.5-88.5T832 266v-61H491q2-47 34-78t84-31q51 0 77.5 21.5T726 161l93-67q-19-27-45.5-52T709 1.5 615-14zM250 88q53 0 85.5 30.5T368 198v7H243q-38 0-59.5-14.5T162 149t22.5-44T250 88zM236-14q-87 0-142.5 41T38 144q0 77 54.5 116T234 299h134v29q0 34-25 57t-73 23q-46 0-71-22t-35-55L52 370q14 38 41 69.5t71 51T270 510q61 0 98.5-19t61.5-49h28l-22-182 9-185h-28q-9-15-29-36T331.5 2 236-14zm256 313h216q-1 47-30 74t-76 27q-50 0-79-27.5T492 299z"/><glyph glyph-name="ccedilla" unicode="ç" horiz-adv-x="586" d="M303-14q-72 0-130.5 30T80 103 46 241v14q0 81 34 138t92.5 87T303 510q71 0 122-25t82.5-68.5T549 318l-122-26q-4 30-18 54t-39.5 38-63.5 14-68.5-16.5-48-49T172 253v-10q0-47 17.5-79.5t48-49T306 98q57 0 86.5 29.5T430 205l122-29q-13-53-44.5-96.5T425 11 303-14zm0-200q-32 0-62.5 6T188-195l20 75q19-6 40.5-11t48.5-5q20 0 33 7t13 22q0 14-11.5 20.5T294-80h-38l7 100h86l-4-59q38 0 64.5-21t26.5-62q0-32-19-52.5t-49.5-30T303-214z"/><glyph glyph-name="egrave" unicode="è" horiz-adv-x="577" d="M296-14q-74 0-130.5 31.5t-88 89T46 242v12q0 78 31 135.5t87 89T294 510q73 0 127-32.5t84-90T535 254v-43H174q2-51 38-83t88-32q53 0 78 23t38 51l103-54q-14-26-40.5-56.5T408 7.5 296-14zM175 305h232q-4 43-34.5 69T293 400q-51 0-81-26t-37-69zm85 247L154 700h142l74-148H260z"/><glyph glyph-name="eacute" unicode="é" horiz-adv-x="577" d="M296-14q-74 0-130.5 31.5t-88 89T46 242v12q0 78 31 135.5t87 89T294 510q73 0 127-32.5t84-90T535 254v-43H174q2-51 38-83t88-32q53 0 78 23t38 51l103-54q-14-26-40.5-56.5T408 7.5 296-14zM175 305h232q-4 43-34.5 69T293 400q-51 0-81-26t-37-69zm43 247 74 148h142L328 552H218z"/><glyph glyph-name="ecircumflex" unicode="ê" horiz-adv-x="577" d="M296-14q-74 0-130.5 31.5t-88 89T46 242v12q0 78 31 135.5t87 89T294 510q73 0 127-32.5t84-90T535 254v-43H174q2-51 38-83t88-32q53 0 78 23t38 51l103-54q-14-26-40.5-56.5T408 7.5 296-14zM175 305h232q-4 43-34.5 69T293 400q-51 0-81-26t-37-69zm-73 247 117 148h150l117-148H359l-56 74h-18l-56-74H102z"/><glyph glyph-name="edieresis" unicode="ë" horiz-adv-x="577" d="M296-14q-74 0-130.5 31.5t-88 89T46 242v12q0 78 31 135.5t87 89T294 510q73 0 127-32.5t84-90T535 254v-43H174q2-51 38-83t88-32q53 0 78 23t38 51l103-54q-14-26-40.5-56.5T408 7.5 296-14zM175 305h232q-4 43-34.5 69T293 400q-51 0-81-26t-37-69zm222 245q-34 0-57.5 21.5T316 630t23.5 58.5T397 710q35 0 58-21.5t23-58.5-23-58.5-58-21.5zm-206 0q-34 0-57.5 21.5T110 630t23.5 58.5T191 710q35 0 58-21.5t23-58.5-23-58.5-58-21.5z"/><glyph glyph-name="igrave" unicode="ì" horiz-adv-x="266" d="M70 0v496h126V0H70zm29 552L-7 700h142l74-148H99z"/><glyph glyph-name="iacute" unicode="í" horiz-adv-x="266" d="M70 0v496h126V0H70zM57 552l74 148h142L167 552H57z"/><glyph glyph-name="icircumflex" unicode="î" horiz-adv-x="266" d="M70 0v496h126V0H70zM-59 552 58 700h150l117-148H198l-56 74h-18l-56-74H-59z"/><glyph glyph-name="idieresis" unicode="ï" horiz-adv-x="266" d="M70 0v496h126V0H70zm166 550q-34 0-57.5 21.5T155 630t23.5 58.5T236 710q35 0 58-21.5t23-58.5-23-58.5-58-21.5zm-206 0q-34 0-57.5 21.5T-51 630t23.5 58.5T30 710q35 0 58-21.5t23-58.5-23-58.5T30 550z"/><glyph glyph-name="eth" unicode="ð" horiz-adv-x="616" d="M307-14q-77-1-136 31t-92 90.5T46 242v10q0 75 31 130t82 86 112 32q51 1 85-16t57-44h18q-19 79-82.5 137T188 669l40 101q112-37 187.5-107.5t114-166T568 289q0-100-33-167T443.5 21 307-14zm-1 112q39 0 69 17t47.5 50 17.5 80v4q0 71-37.5 109T306 396q-58 0-96-38t-38-109v-4q0-70 38-108.5T306 98zm-24 432-58 43 153 211 59-44z"/><glyph glyph-name="ntilde" unicode="ñ" horiz-adv-x="616" d="M70 0v496h124v-65h18q12 26 45 49.5T357 504q58 0 101.5-26.5t67.5-73T550 296V0H424v286q0 56-27.5 84T318 398q-58 0-90-38.5T196 252V0H70zm121 542-69 44 33 57q15 26 36.5 37.5T238 692q22 0 38.5-8.5T309 661q9-8 19.5-16t23.5-8q15 0 24.5 10t16.5 21l16 24 69-44-33-57q-15-25-36-37t-47-12q-22 0-38.5 8.5T291 573q-9 8-19 16t-24 8q-15 0-24-10t-17-21z"/><glyph glyph-name="ograve" unicode="ò" horiz-adv-x="612" d="M306-14q-74 0-133 30t-93 87-34 137v16q0 80 34 137t93 87 133 30 133-30 93-87 34-137v-16q0-80-34-137t-93-87-133-30zm0 112q58 0 96 37.5T440 243v10q0 70-37.5 107.5T306 398q-58 0-96-37.5T172 253v-10q0-70 38-107.5T306 98zm-34 454L166 700h142l74-148H272z"/><glyph glyph-name="oacute" unicode="ó" horiz-adv-x="612" d="M306-14q-74 0-133 30t-93 87-34 137v16q0 80 34 137t93 87 133 30 133-30 93-87 34-137v-16q0-80-34-137t-93-87-133-30zm0 112q58 0 96 37.5T440 243v10q0 70-37.5 107.5T306 398q-58 0-96-37.5T172 253v-10q0-70 38-107.5T306 98zm-76 454 74 148h142L340 552H230z"/><glyph glyph-name="ocircumflex" unicode="ô" horiz-adv-x="612" d="M306-14q-74 0-133 30t-93 87-34 137v16q0 80 34 137t93 87 133 30 133-30 93-87 34-137v-16q0-80-34-137t-93-87-133-30zm0 112q58 0 96 37.5T440 243v10q0 70-37.5 107.5T306 398q-58 0-96-37.5T172 253v-10q0-70 38-107.5T306 98zM114 552l117 148h150l117-148H371l-56 74h-18l-56-74H114z"/><glyph glyph-name="otilde" unicode="õ" horiz-adv-x="612" d="M306-14q-74 0-133 30t-93 87-34 137v16q0 80 34 137t93 87 133 30 133-30 93-87 34-137v-16q0-80-34-137t-93-87-133-30zm0 112q58 0 96 37.5T440 243v10q0 70-37.5 107.5T306 398q-58 0-96-37.5T172 253v-10q0-70 38-107.5T306 98zM194 542l-69 44 33 57q15 26 36.5 37.5T241 692q22 0 38.5-8.5T312 661q9-8 19.5-16t23.5-8q15 0 24.5 10t16.5 21l16 24 69-44-33-57q-15-25-36-37t-47-12q-22 0-38.5 8.5T294 573q-9 8-19 16t-24 8q-15 0-24-10t-17-21z"/><glyph glyph-name="odieresis" unicode="ö" horiz-adv-x="612" d="M306-14q-74 0-133 30t-93 87-34 137v16q0 80 34 137t93 87 133 30 133-30 93-87 34-137v-16q0-80-34-137t-93-87-133-30zm0 112q58 0 96 37.5T440 243v10q0 70-37.5 107.5T306 398q-58 0-96-37.5T172 253v-10q0-70 38-107.5T306 98zm103 452q-34 0-57.5 21.5T328 630t23.5 58.5T409 710q35 0 58-21.5t23-58.5-23-58.5-58-21.5zm-206 0q-34 0-57.5 21.5T122 630t23.5 58.5T203 710q35 0 58-21.5t23-58.5-23-58.5-58-21.5z"/><glyph glyph-name="divide" unicode="÷" horiz-adv-x="620" d="M101 293v114h418V293H101zM310 73q-36 0-61 25.5T224 159t25 60.5 61 25.5 61-25.5 25-60.5-25-60.5T310 73zm0 382q-36 0-61 25.5T224 541t25 60.5 61 25.5 61-25.5 25-60.5-25-60.5-61-25.5z"/><glyph glyph-name="oslash" unicode="ø" horiz-adv-x="612" d="M306-14q-74 0-133 30t-93 87-34 137v16q0 80 34 137t93 87 133 30 133-30 93-87 34-137v-16q0-80-34-137t-93-87-133-30zm0 112q58 0 96 37.5T440 243v10q0 70-37.5 107.5T306 398q-58 0-96-37.5T172 253v-10q0-70 38-107.5T306 98zM148-71 78-25l386 588 70-46z"/><glyph glyph-name="ugrave" unicode="ù" horiz-adv-x="616" d="M259-8q-58 0-101.5 26.5T90 92 66 200v296h126V210q0-56 27.5-84T298 98q58 0 90 38.5T420 244v252h126V0H422v65h-18q-12-25-45-49T259-8zm13 560L166 700h142l74-148H272z"/><glyph glyph-name="uacute" unicode="ú" horiz-adv-x="616" d="M259-8q-58 0-101.5 26.5T90 92 66 200v296h126V210q0-56 27.5-84T298 98q58 0 90 38.5T420 244v252h126V0H422v65h-18q-12-25-45-49T259-8zm-29 560 74 148h142L340 552H230z"/><glyph glyph-name="ucircumflex" unicode="û" horiz-adv-x="616" d="M259-8q-58 0-101.5 26.5T90 92 66 200v296h126V210q0-56 27.5-84T298 98q58 0 90 38.5T420 244v252h126V0H422v65h-18q-12-25-45-49T259-8zM114 552l117 148h150l117-148H371l-56 74h-18l-56-74H114z"/><glyph glyph-name="udieresis" unicode="ü" horiz-adv-x="616" d="M259-8q-58 0-101.5 26.5T90 92 66 200v296h126V210q0-56 27.5-84T298 98q58 0 90 38.5T420 244v252h126V0H422v65h-18q-12-25-45-49T259-8zm150 558q-34 0-57.5 21.5T328 630t23.5 58.5T409 710q35 0 58-21.5t23-58.5-23-58.5-58-21.5zm-206 0q-34 0-57.5 21.5T122 630t23.5 58.5T203 710q35 0 58-21.5t23-58.5-23-58.5-58-21.5z"/><glyph glyph-name="yacute" unicode="ý" horiz-adv-x="616" d="M124-200v110h270q28 0 28 30V65h-18q-8-17-25-34T333 3 259-8q-58 0-101.5 26.5T90 92 66 200v296h126V210q0-56 27.5-84T298 98q58 0 90 38.5T420 244v252h126V-88q0-51-30-81.5T436-200H124zm106 752 74 148h142L340 552H230z"/><glyph glyph-name="thorn" unicode="þ" horiz-adv-x="638" d="M70-200v900h126V439h18q11 18 29.5 34t49 26.5T368 510q60 0 111-29.5t82-86.5 31-138v-16q0-81-31-138t-82-86.5T368-14q-45 0-75.5 10.5t-49 27T214 57h-18v-257H70zM330 96q59 0 97.5 37.5T466 243v10q0 72-38.5 109.5T330 400q-58 0-97-37.5T194 253v-10q0-72 39-109.5T330 96z"/><glyph glyph-name="ydieresis" unicode="ÿ" horiz-adv-x="616" d="M124-200v110h270q28 0 28 30V65h-18q-8-17-25-34T333 3 259-8q-58 0-101.5 26.5T90 92 66 200v296h126V210q0-56 27.5-84T298 98q58 0 90 38.5T420 244v252h126V-88q0-51-30-81.5T436-200H124zm285 750q-34 0-57.5 21.5T328 630t23.5 58.5T409 710q35 0 58-21.5t23-58.5-23-58.5-58-21.5zm-206 0q-34 0-57.5 21.5T122 630t23.5 58.5T203 710q35 0 58-21.5t23-58.5-23-58.5-58-21.5z"/><glyph glyph-name="Amacron" unicode="Ā" horiz-adv-x="634" d="m18 0 184 700h230L616 0H480l-38 154H192L154 0H18zm205 276h188l-85 341h-18zm-70 486v100h328V762H153z"/><glyph glyph-name="amacron" unicode="ā" horiz-adv-x="578" d="M224-14q-53 0-95 18.5t-66.5 54T38 145t24.5 85.5 68 52T230 300h136v28q0 35-22 57.5T274 408q-47 0-70-21.5T174 331L58 370q12 38 38.5 69.5t71 51T276 510q98 0 155-49t57-142V134q0-30 28-30h40V0h-84q-37 0-61 18t-24 48v1h-19q-4-12-18-31.5T306 1t-82-15zm22 102q53 0 86.5 29.5T366 196v10H239q-35 0-55-15t-20-42 21-44 61-17zM117 566v100h328V566H117z"/><glyph glyph-name="Abreve" unicode="Ă" horiz-adv-x="634" d="m18 0 184 700h230L616 0H480l-38 154H192L154 0H18zm205 276h188l-85 341h-18zm94 476q-77 0-120.5 35.5T153 884v4h102v-4q0-24 14.5-41t47.5-17 47.5 17 14.5 41v4h102v-4q0-61-43.5-96.5T317 752z"/><glyph glyph-name="abreve" unicode="ă" horiz-adv-x="578" d="M224-14q-53 0-95 18.5t-66.5 54T38 145t24.5 85.5 68 52T230 300h136v28q0 35-22 57.5T274 408q-47 0-70-21.5T174 331L58 370q12 38 38.5 69.5t71 51T276 510q98 0 155-49t57-142V134q0-30 28-30h40V0h-84q-37 0-61 18t-24 48v1h-19q-4-12-18-31.5T306 1t-82-15zm22 102q53 0 86.5 29.5T366 196v10H239q-35 0-55-15t-20-42 21-44 61-17zm35 460q-79 0-122.5 39T115 694v6h104v-4q0-28 14.5-47t47.5-19 47.5 19 14.5 47v4h104v-6q0-68-43.5-107T281 548z"/><glyph glyph-name="Aogonek" unicode="Ą" horiz-adv-x="634" d="m18 0 184 700h230L616 0H480l-38 154H192L154 0H18zm205 276h188l-85 341h-18zm344-446q-34 0-56 19t-22 50q0 15 2.5 32t6.5 33l13 56h81l-10-55q-1-7-2.5-14.5T578-64q0-22 23-22h46v-84h-80z"/><glyph glyph-name="aogonek" unicode="ą" horiz-adv-x="578" d="M224-14q-53 0-95 18.5t-66.5 54T38 145t24.5 85.5 68 52T230 300h136v28q0 35-22 57.5T274 408q-47 0-70-21.5T174 331L58 370q12 38 38.5 69.5t71 51T276 510q98 0 155-49t57-142V134q0-30 28-30h40V0h-84q-37 0-61 18t-24 48v1h-19q-4-12-18-31.5T306 1t-82-15zm22 102q53 0 86.5 29.5T366 196v10H239q-35 0-55-15t-20-42 21-44 61-17zm238-258q-34 0-56 19t-22 50q0 15 2.5 32t6.5 33l13 56h81l-10-55q-1-7-2.5-14.5T495-64q0-22 23-22h46v-84h-80z"/><glyph glyph-name="Cacute" unicode="Ć" horiz-adv-x="644" d="M332-14q-130 0-206 72.5T50 266v168q0 135 76 207.5T332 714q129 0 199.5-70.5T602 450v-6H472v10q0 62-34.5 102T332 596q-70 0-110-43t-40-117V264q0-73 40-116.5T332 104q71 0 105.5 40.5T472 246v18h130v-14q0-123-70.5-193.5T332-14zm-78 772 70 130h146L366 758H254z"/><glyph glyph-name="cacute" unicode="ć" horiz-adv-x="586" d="M303-14q-72 0-130.5 30T80 103 46 241v14q0 81 34 138t92.5 87T303 510q71 0 122-25t82.5-68.5T549 318l-122-26q-4 30-18 54t-39.5 38-63.5 14-68.5-16.5-48-49T172 253v-10q0-47 17.5-79.5t48-49T306 98q57 0 86.5 29.5T430 205l122-29q-13-53-44.5-96.5T425 11 303-14zm-76 566 74 148h142L337 552H227z"/><glyph glyph-name="Ccircumflex" unicode="Ĉ" horiz-adv-x="644" d="M332-14q-130 0-206 72.5T50 266v168q0 135 76 207.5T332 714q129 0 199.5-70.5T602 450v-6H472v10q0 62-34.5 102T332 596q-70 0-110-43t-40-117V264q0-73 40-116.5T332 104q71 0 105.5 40.5T472 246v18h130v-14q0-123-70.5-193.5T332-14zM140 758l114 130h156l114-130H390l-49 66h-18l-49-66H140z"/><glyph glyph-name="ccircumflex" unicode="ĉ" horiz-adv-x="586" d="M303-14q-72 0-130.5 30T80 103 46 241v14q0 81 34 138t92.5 87T303 510q71 0 122-25t82.5-68.5T549 318l-122-26q-4 30-18 54t-39.5 38-63.5 14-68.5-16.5-48-49T172 253v-10q0-47 17.5-79.5t48-49T306 98q57 0 86.5 29.5T430 205l122-29q-13-53-44.5-96.5T425 11 303-14zM111 552l117 148h150l117-148H368l-56 74h-18l-56-74H111z"/><glyph glyph-name="Cdotaccent" unicode="Ċ" horiz-adv-x="644" d="M332-14q-130 0-206 72.5T50 266v168q0 135 76 207.5T332 714q129 0 199.5-70.5T602 450v-6H472v10q0 62-34.5 102T332 596q-70 0-110-43t-40-117V264q0-73 40-116.5T332 104q71 0 105.5 40.5T472 246v18h130v-14q0-123-70.5-193.5T332-14zm0 768q-34 0-57.5 22T251 834t23.5 58 57.5 22q35 0 58-22t23-58-23-58-58-22z"/><glyph glyph-name="cdotaccent" unicode="ċ" horiz-adv-x="586" d="M303-14q-72 0-130.5 30T80 103 46 241v14q0 81 34 138t92.5 87T303 510q71 0 122-25t82.5-68.5T549 318l-122-26q-4 30-18 54t-39.5 38-63.5 14-68.5-16.5-48-49T172 253v-10q0-47 17.5-79.5t48-49T306 98q57 0 86.5 29.5T430 205l122-29q-13-53-44.5-96.5T425 11 303-14zm0 568q-34 0-57.5 22T222 634t23.5 58 57.5 22q35 0 58-22t23-58-23-58-58-22z"/><glyph glyph-name="Ccaron" unicode="Č" horiz-adv-x="644" d="M332-14q-130 0-206 72.5T50 266v168q0 135 76 207.5T332 714q129 0 199.5-70.5T602 450v-6H472v10q0 62-34.5 102T332 596q-70 0-110-43t-40-117V264q0-73 40-116.5T332 104q71 0 105.5 40.5T472 246v18h130v-14q0-123-70.5-193.5T332-14zm-78 772L140 888h134l49-66h18l49 66h134L410 758H254z"/><glyph glyph-name="ccaron" unicode="č" horiz-adv-x="586" d="M303-14q-72 0-130.5 30T80 103 46 241v14q0 81 34 138t92.5 87T303 510q71 0 122-25t82.5-68.5T549 318l-122-26q-4 30-18 54t-39.5 38-63.5 14-68.5-16.5-48-49T172 253v-10q0-47 17.5-79.5t48-49T306 98q57 0 86.5 29.5T430 205l122-29q-13-53-44.5-96.5T425 11 303-14zm-75 566L111 700h127l56-74h18l56 74h127L378 552H228z"/><glyph glyph-name="Dcaron" unicode="Ď" horiz-adv-x="666" d="M46 0v116h92v468H46v116h288q141 0 214.5-71.5T622 416V284q0-141-73.5-212.5T334 0H46zm224 120h66q80 0 117 42t37 118v140q0 77-37 118.5T336 580h-66V120zm-28 638L128 888h134l49-66h18l49 66h134L398 758H242z"/><glyph glyph-name="dcaron" unicode="ď" horiz-adv-x="728" d="M270-14q-59 0-110.5 29.5T77 102 46 240v16q0 81 31 138t82 86.5T270 510q45 0 75.5-10.5T395 473t29-34h18v261h126V0H444v60h-18q-17-28-52.5-51T270-14zm38 110q58 0 97 37.5T444 243v10q0 72-38.5 109.5T308 400q-58 0-97-37.5T172 253v-10q0-72 39-109.5T308 96zm316 402 8 202h120l-42-202h-86z"/><glyph glyph-name="Dcroat" unicode="Đ" horiz-adv-x="666" d="M46 0v116h92v468H46v116h288q141 0 214.5-71.5T622 416V284q0-141-73.5-212.5T334 0H46zm224 120h66q80 0 117 42t37 118v140q0 77-37 118.5T336 580h-66V120zM46 306v90h340v-90H46z"/><glyph glyph-name="dcroat" unicode="đ" horiz-adv-x="638" d="M270-14q-59 0-110.5 29.5T77 102 46 240v16q0 81 31 138t82 86.5T270 510q45 0 75.5-10.5T395 473t29-34h18v261h126V0H444v60h-18q-17-28-52.5-51T270-14zm38 110q58 0 97 37.5T444 243v10q0 72-38.5 109.5T308 400q-58 0-97-37.5T172 253v-10q0-72 39-109.5T308 96zm-10 460v70h340v-70H298z"/><glyph glyph-name="Emacron" unicode="Ē" horiz-adv-x="554" d="M66 0v700h450V580H198V413h290V293H198V120h324V0H66zm66 762v100h328V762H132z"/><glyph glyph-name="emacron" unicode="ē" horiz-adv-x="577" d="M296-14q-74 0-130.5 31.5t-88 89T46 242v12q0 78 31 135.5t87 89T294 510q73 0 127-32.5t84-90T535 254v-43H174q2-51 38-83t88-32q53 0 78 23t38 51l103-54q-14-26-40.5-56.5T408 7.5 296-14zM175 305h232q-4 43-34.5 69T293 400q-51 0-81-26t-37-69zm-45 261v100h328V566H130z"/><glyph glyph-name="Ebreve" unicode="Ĕ" horiz-adv-x="554" d="M66 0v700h450V580H198V413h290V293H198V120h324V0H66zm230 752q-77 0-120.5 35.5T132 884v4h102v-4q0-24 14.5-41t47.5-17 47.5 17 14.5 41v4h102v-4q0-61-43.5-96.5T296 752z"/><glyph glyph-name="ebreve" unicode="ĕ" horiz-adv-x="577" d="M296-14q-74 0-130.5 31.5t-88 89T46 242v12q0 78 31 135.5t87 89T294 510q73 0 127-32.5t84-90T535 254v-43H174q2-51 38-83t88-32q53 0 78 23t38 51l103-54q-14-26-40.5-56.5T408 7.5 296-14zM175 305h232q-4 43-34.5 69T293 400q-51 0-81-26t-37-69zm119 243q-79 0-122.5 39T128 694v6h104v-4q0-28 14.5-47t47.5-19 47.5 19 14.5 47v4h104v-6q0-68-43.5-107T294 548z"/><glyph glyph-name="Edotaccent" unicode="Ė" horiz-adv-x="554" d="M66 0v700h450V580H198V413h290V293H198V120h324V0H66zm230 754q-34 0-57.5 22T215 834t23.5 58 57.5 22q35 0 58-22t23-58-23-58-58-22z"/><glyph glyph-name="edotaccent" unicode="ė" horiz-adv-x="577" d="M296-14q-74 0-130.5 31.5t-88 89T46 242v12q0 78 31 135.5t87 89T294 510q73 0 127-32.5t84-90T535 254v-43H174q2-51 38-83t88-32q53 0 78 23t38 51l103-54q-14-26-40.5-56.5T408 7.5 296-14zM175 305h232q-4 43-34.5 69T293 400q-51 0-81-26t-37-69zm119 249q-34 0-57.5 22T213 634t23.5 58 57.5 22q35 0 58-22t23-58-23-58-58-22z"/><glyph glyph-name="Eogonek" unicode="Ę" horiz-adv-x="554" d="M66 0v700h450V580H198V413h290V293H198V120h324V0H66zm376-170q-34 0-56 19t-22 50q0 15 2.5 32t6.5 33l13 56h81l-10-55q-1-7-2.5-14.5T453-64q0-22 23-22h46v-84h-80z"/><glyph glyph-name="eogonek" unicode="ę" horiz-adv-x="577" d="M296-14q-74 0-130.5 31.5t-88 89T46 242v12q0 78 31 135.5t87 89T294 510q73 0 127-32.5t84-90T535 254v-43H174q2-51 38-83t88-32q53 0 78 23t38 51l103-54q-14-26-40.5-56.5T408 7.5 296-14zM175 305h232q-4 43-34.5 69T293 400q-51 0-81-26t-37-69zm225-475q-34 0-56 19t-22 50q0 15 2.5 32t6.5 33l13 56h81l-10-55q-1-7-2.5-14.5T411-64q0-22 23-22h46v-84h-80z"/><glyph glyph-name="Ecaron" unicode="Ě" horiz-adv-x="554" d="M66 0v700h450V580H198V413h290V293H198V120h324V0H66zm152 758L104 888h134l49-66h18l49 66h134L374 758H218z"/><glyph glyph-name="ecaron" unicode="ě" horiz-adv-x="577" d="M296-14q-74 0-130.5 31.5t-88 89T46 242v12q0 78 31 135.5t87 89T294 510q73 0 127-32.5t84-90T535 254v-43H174q2-51 38-83t88-32q53 0 78 23t38 51l103-54q-14-26-40.5-56.5T408 7.5 296-14zM175 305h232q-4 43-34.5 69T293 400q-51 0-81-26t-37-69zm44 247L102 700h127l56-74h18l56 74h127L369 552H219z"/><glyph glyph-name="Gcircumflex" unicode="Ĝ" horiz-adv-x="662" d="M308-14q-72 0-130.5 32.5t-93 95T50 266v168q0 135 76 207.5T332 714q129 0 199.5-68.5T602 460v-4H472v8q0 37-15.5 67T410 578.5 332 596q-70 0-110-43t-40-117V264q0-73 40-117.5T334 102t105 38 33 96v10H306v112h296V0H480v67h-18q-7-17-22.5-36T393-1t-85-13zM143 758l114 130h156l114-130H393l-49 66h-18l-49-66H143z"/><glyph glyph-name="gcircumflex" unicode="ĝ" horiz-adv-x="638" d="M46 246v16q0 78 31 133.5t82.5 85T272 510q68 0 103-24t51-50h18v60h124V-88q0-51-30-81.5T458-200H126v110h288q28 0 28 30V69h-18q-10-16-28-32.5T348 9 272-2q-61 0-112.5 29.5t-82.5 85T46 246zm262-138q58 0 97 37t39 104v10q0 68-38.5 104.5T308 400q-58 0-97-36.5T172 259v-10q0-67 39-104t97-37zM136 552l117 148h150l117-148H393l-56 74h-18l-56-74H136z"/><glyph glyph-name="Gbreve" unicode="Ğ" horiz-adv-x="662" d="M308-14q-72 0-130.5 32.5t-93 95T50 266v168q0 135 76 207.5T332 714q129 0 199.5-68.5T602 460v-4H472v8q0 37-15.5 67T410 578.5 332 596q-70 0-110-43t-40-117V264q0-73 40-117.5T334 102t105 38 33 96v10H306v112h296V0H480v67h-18q-7-17-22.5-36T393-1t-85-13zm27 766q-77 0-120.5 35.5T171 884v4h102v-4q0-24 14.5-41t47.5-17 47.5 17 14.5 41v4h102v-4q0-61-43.5-96.5T335 752z"/><glyph glyph-name="gbreve" unicode="ğ" horiz-adv-x="638" d="M46 246v16q0 78 31 133.5t82.5 85T272 510q68 0 103-24t51-50h18v60h124V-88q0-51-30-81.5T458-200H126v110h288q28 0 28 30V69h-18q-10-16-28-32.5T348 9 272-2q-61 0-112.5 29.5t-82.5 85T46 246zm262-138q58 0 97 37t39 104v10q0 68-38.5 104.5T308 400q-58 0-97-36.5T172 259v-10q0-67 39-104t97-37zm20 440q-79 0-122.5 39T162 694v6h104v-4q0-28 14.5-47t47.5-19 47.5 19 14.5 47v4h104v-6q0-68-43.5-107T328 548z"/><glyph glyph-name="Gdotaccent" unicode="Ġ" horiz-adv-x="662" d="M308-14q-72 0-130.5 32.5t-93 95T50 266v168q0 135 76 207.5T332 714q129 0 199.5-68.5T602 460v-4H472v8q0 37-15.5 67T410 578.5 332 596q-70 0-110-43t-40-117V264q0-73 40-117.5T334 102t105 38 33 96v10H306v112h296V0H480v67h-18q-7-17-22.5-36T393-1t-85-13zm27 768q-34 0-57.5 22T254 834t23.5 58 57.5 22q35 0 58-22t23-58-23-58-58-22z"/><glyph glyph-name="gdotaccent" unicode="ġ" horiz-adv-x="638" d="M46 246v16q0 78 31 133.5t82.5 85T272 510q68 0 103-24t51-50h18v60h124V-88q0-51-30-81.5T458-200H126v110h288q28 0 28 30V69h-18q-10-16-28-32.5T348 9 272-2q-61 0-112.5 29.5t-82.5 85T46 246zm262-138q58 0 97 37t39 104v10q0 68-38.5 104.5T308 400q-58 0-97-36.5T172 259v-10q0-67 39-104t97-37zm20 446q-34 0-57.5 22T247 634t23.5 58 57.5 22q35 0 58-22t23-58-23-58-58-22z"/><glyph glyph-name="uni0122" unicode="Ģ" horiz-adv-x="662" d="M308-14q-72 0-130.5 32.5t-93 95T50 266v168q0 135 76 207.5T332 714q129 0 199.5-68.5T602 460v-4H472v8q0 37-15.5 67T410 578.5 332 596q-70 0-110-43t-40-117V264q0-73 40-117.5T334 102t105 38 33 96v10H306v112h296V0H480v67h-18q-7-17-22.5-36T393-1t-85-13zm-32-278v59h30q23 0 32 9t9 29v6h-13q-35 0-55 19t-20 50q0 32 21 51t55 19q35 0 56.5-20.5T413-130v-68q0-45-26.5-69.5T309-292h-33z"/><glyph glyph-name="uni0123" unicode="ģ" horiz-adv-x="638" d="M46 246v16q0 78 31 133.5t82.5 85T272 510q68 0 103-24t51-50h18v60h124V-88q0-51-30-81.5T458-200H126v110h288q28 0 28 30V69h-18q-10-16-28-32.5T348 9 272-2q-61 0-112.5 29.5t-82.5 85T46 246zm262-138q58 0 97 37t39 104v10q0 68-38.5 104.5T308 400q-58 0-97-36.5T172 259v-10q0-67 39-104t97-37zm80 680v-59h-30q-22 0-31.5-9t-9.5-29v-6h13q35 0 55-19t20-50q0-32-20.5-51T329 546q-34 0-56 20.5T251 626v68q0 45 26.5 69.5T355 788h33z"/><glyph glyph-name="Hcircumflex" unicode="Ĥ" horiz-adv-x="656" d="M66 0v700h132V411h260v289h132V0H458v291H198V0H66zm70 758 114 130h156l114-130H386l-49 66h-18l-49-66H136z"/><glyph glyph-name="hcircumflex" unicode="ĥ" horiz-adv-x="616" d="M70 0v700h126V435h18q8 16 25 32t45.5 26.5T357 504q58 0 101.5-26.5t67.5-73T550 296V0H424v286q0 56-27.5 84T318 398q-58 0-90-38.5T196 252V0H70zM-59 758 55 888h156l114-130H191l-49 66h-18l-49-66H-59z"/><glyph glyph-name="Hbar" unicode="Ħ" horiz-adv-x="656" d="M66 0v700h132V411h260v289h132V0H458v291H198V0H66zm-78 506v90h680v-90H-12z"/><glyph glyph-name="hbar" unicode="ħ" horiz-adv-x="616" d="M70 0v700h126V435h18q8 16 25 32t45.5 26.5T357 504q58 0 101.5-26.5t67.5-73T550 296V0H424v286q0 56-27.5 84T318 398q-58 0-90-38.5T196 252V0H70zM0 556v70h340v-70H0z"/><glyph glyph-name="Itilde" unicode="Ĩ" horiz-adv-x="264" d="M66 0v700h132V0H66zM15 746l-64 51 32 43q18 24 38.5 37T70 890q24 0 39-7t32-21q10-8 20.5-16.5T187 837q16 0 26 10t19 21l17 22 64-51-32-43q-18-24-38.5-37T194 746q-24 0-39 7t-32 21q-10 8-20.5 16.5T77 799q-16 0-26-10t-19-21z"/><glyph glyph-name="itilde" unicode="ĩ" horiz-adv-x="266" d="M70 0v496h126V0H70zM21 542l-69 44 33 57q15 26 36.5 37.5T68 692q22 0 38.5-8.5T139 661q9-8 19.5-16t23.5-8q15 0 24.5 10t16.5 21l16 24 69-44-33-57q-15-25-36-37t-47-12q-22 0-38.5 8.5T121 573q-9 8-19 16t-24 8q-15 0-24-10t-17-21z"/><glyph glyph-name="Imacron" unicode="Ī" horiz-adv-x="264" d="M66 0v700h132V0H66zm-98 762v100h328V762H-32z"/><glyph glyph-name="imacron" unicode="ī" horiz-adv-x="266" d="M70 0v496h126V0H70zM-31 566v100h328V566H-31z"/><glyph glyph-name="Ibreve" unicode="Ĭ" horiz-adv-x="264" d="M66 0v700h132V0H66zm66 752q-77 0-120.5 35.5T-32 884v4H70v-4q0-24 14.5-41t47.5-17 47.5 17 14.5 41v4h102v-4q0-61-43.5-96.5T132 752z"/><glyph glyph-name="ibreve" unicode="ĭ" horiz-adv-x="266" d="M70 0v496h126V0H70zm63 548q-79 0-122.5 39T-33 694v6H71v-4q0-28 14.5-47t47.5-19 47.5 19 14.5 47v4h104v-6q0-68-43.5-107T133 548z"/><glyph glyph-name="Iogonek" unicode="Į" horiz-adv-x="264" d="M66 0v700h132V0H66zm82-170q-34 0-56 19t-22 50q0 15 2.5 32T79-36l13 56h81l-10-55q-1-7-2.5-14.5T159-64q0-22 23-22h46v-84h-80z"/><glyph glyph-name="iogonek" unicode="į" horiz-adv-x="266" d="M70 0v496h126V0H70zm63 554q-34 0-57.5 22T52 634t23.5 58 57.5 22q35 0 58-22t23-58-23-58-58-22zm16-724q-34 0-56 19t-22 50q0 15 2.5 32T80-36l13 56h81l-10-55q-1-7-2.5-14.5T160-64q0-22 23-22h46v-84h-80z"/><glyph glyph-name="Idotaccent" unicode="İ" horiz-adv-x="264" d="M66 0v700h132V0H66zm66 754q-34 0-57.5 22T51 834t23.5 58 57.5 22q35 0 58-22t23-58-23-58-58-22z"/><glyph glyph-name="dotlessi" unicode="ı" horiz-adv-x="266" d="M70 0v496h126V0H70z"/><glyph glyph-name="IJ" unicode="Ĳ" horiz-adv-x="730" d="M369-14q-117 0-185 59t-68 165v20h132v-20q0-47 30.5-73.5T365 110q53 0 82 26t29 74v370h-80v120h292V580h-80V210q0-109-63.5-166.5T369-14zM116 320v260H36v120h292V580h-80V320H116z"/><glyph glyph-name="ij" unicode="ĳ" horiz-adv-x="534" d="M70 0v496h126V0H70zm63 554q-34 0-57.5 22T52 634t23.5 58 57.5 22q35 0 58-22t23-58-23-58-58-22zm111-754v108h66q28 0 28 30v558h126V-88q0-51-30-81.5T354-200H244zm157 754q-34 0-57.5 22T320 634t23.5 58 57.5 22q35 0 58-22t23-58-23-58-58-22z"/><glyph glyph-name="Jcircumflex" unicode="Ĵ" horiz-adv-x="610" d="M267-14Q159-14 95.5 45T32 210v66h132v-66q0-47 26-73.5t73-26.5q44 0 68.5 26t24.5 74v370H236v120h332V580h-80V210q0-109-59-166.5T267-14zm-57 772 114 130h156l114-130H460l-49 66h-18l-49-66H210z"/><glyph glyph-name="jcircumflex" unicode="ĵ" horiz-adv-x="268" d="M-22-200v108h66q28 0 28 30v558h126V-88q0-51-30-81.5T88-200H-22zm-35 752L60 700h150l117-148H200l-56 74h-18l-56-74H-57z"/><glyph glyph-name="uni0136" unicode="Ķ" horiz-adv-x="626" d="M66 0v700h132V422h18l227 278h169L320 355 622 0H448L216 284h-18V0H66zm185-292v59h30q23 0 32 9t9 29v6h-13q-35 0-55 19t-20 50q0 32 21 51t55 19q35 0 56.5-20.5T388-130v-68q0-45-26.5-69.5T284-292h-33z"/><glyph glyph-name="uni0137" unicode="ķ" horiz-adv-x="564" d="M70 0v700h126V313h18l164 183h164L313 256 550 0H388L214 197h-18V0H70zm153-292v59h30q23 0 32 9t9 29v6h-13q-35 0-55 19t-20 50q0 32 21 51t55 19q35 0 56.5-20.5T360-130v-68q0-45-26.5-69.5T256-292h-33z"/><glyph glyph-name="kgreenlandic" unicode="ĸ" horiz-adv-x="564" d="M70 0v496h126V313h18l164 183h164L313 256 550 0H388L214 197h-18V0H70z"/><glyph glyph-name="Lacute" unicode="Ĺ" horiz-adv-x="542" d="M66 0v700h132V120h320V0H66zM54 758l70 130h146L166 758H54z"/><glyph glyph-name="lacute" unicode="ĺ" horiz-adv-x="266" d="M70 0v700h126V0H70zM55 758l70 130h146L167 758H55z"/><glyph glyph-name="uni013B" unicode="Ļ" horiz-adv-x="542" d="M66 0v700h132V120h320V0H66zm166-292v59h30q23 0 32 9t9 29v6h-13q-35 0-55 19t-20 50q0 32 21 51t55 19q35 0 56.5-20.5T369-130v-68q0-45-26.5-69.5T265-292h-33z"/><glyph glyph-name="uni013C" unicode="ļ" horiz-adv-x="266" d="M70 0v700h126V0H70zm3-292v59h30q23 0 32 9t9 29v6h-13q-35 0-55 19t-20 50q0 32 21 51t55 19q35 0 56.5-20.5T210-130v-68q0-45-26.5-69.5T106-292H73z"/><glyph glyph-name="Lcaron" unicode="Ľ" horiz-adv-x="542" d="M66 0v700h132V120h320V0H66zm188 498 8 202h120l-42-202h-86z"/><glyph glyph-name="lcaron" unicode="ľ" horiz-adv-x="356" d="M70 0v700h126V0H70zm182 498 8 202h120l-42-202h-86z"/><glyph glyph-name="Ldot" unicode="Ŀ" horiz-adv-x="542" d="M66 0v700h132V120h320V0H66zm324 284q-34 0-57.5 22T309 364t23.5 58 57.5 22q35 0 58-22t23-58-23-58-58-22z"/><glyph glyph-name="ldot" unicode="ŀ" horiz-adv-x="448" d="M70 0v700h126V0H70zm287 178q-34 0-57.5 22T276 258t23.5 58 57.5 22q35 0 58-22t23-58-23-58-58-22z"/><glyph glyph-name="Lslash" unicode="Ł" horiz-adv-x="612" d="M136 0v700h132V120h320V0H136zM48 221 8 302l348 172 40-81z"/><glyph glyph-name="lslash" unicode="ł" horiz-adv-x="420" d="m53 187-37 75 351 172 37-75zM147 0v700h126V0H147z"/><glyph glyph-name="Nacute" unicode="Ń" horiz-adv-x="670" d="M66 0v700h251L456 90h18v610h130V0H353L214 610h-18V0H66zm190 758 70 130h146L368 758H256z"/><glyph glyph-name="nacute" unicode="ń" horiz-adv-x="616" d="M70 0v496h124v-65h18q12 26 45 49.5T357 504q58 0 101.5-26.5t67.5-73T550 296V0H424v286q0 56-27.5 84T318 398q-58 0-90-38.5T196 252V0H70zm157 552 74 148h142L337 552H227z"/><glyph glyph-name="uni0145" unicode="Ņ" horiz-adv-x="670" d="M66 0v700h251L456 90h18v610h130V0H353L214 610h-18V0H66zm210-292v59h30q23 0 32 9t9 29v6h-13q-35 0-55 19t-20 50q0 32 21 51t55 19q35 0 56.5-20.5T413-130v-68q0-45-26.5-69.5T309-292h-33z"/><glyph glyph-name="uni0146" unicode="ņ" horiz-adv-x="616" d="M70 0v496h124v-65h18q12 26 45 49.5T357 504q58 0 101.5-26.5t67.5-73T550 296V0H424v286q0 56-27.5 84T318 398q-58 0-90-38.5T196 252V0H70zm180-292v59h30q23 0 32 9t9 29v6h-13q-35 0-55 19t-20 50q0 32 21 51t55 19q35 0 56.5-20.5T387-130v-68q0-45-26.5-69.5T283-292h-33z"/><glyph glyph-name="Ncaron" unicode="Ň" horiz-adv-x="670" d="M66 0v700h251L456 90h18v610h130V0H353L214 610h-18V0H66zm190 758L142 888h134l49-66h18l49 66h134L412 758H256z"/><glyph glyph-name="ncaron" unicode="ň" horiz-adv-x="616" d="M70 0v496h124v-65h18q12 26 45 49.5T357 504q58 0 101.5-26.5t67.5-73T550 296V0H424v286q0 56-27.5 84T318 398q-58 0-90-38.5T196 252V0H70zm158 552L111 700h127l56-74h18l56 74h127L378 552H228z"/><glyph glyph-name="napostrophe" unicode="ŉ" horiz-adv-x="616" d="M70 0v496h124v-65h18q12 26 45 49.5T357 504q58 0 101.5-26.5t67.5-73T550 296V0H424v286q0 56-27.5 84T318 398q-58 0-90-38.5T196 252V0H70zm0 550v59h30q23 0 32 9t9 31v20h-11q-34 0-55.5 20.5T53 742q0 35 21.5 56.5T130 820q35 0 56-22t21-60v-88q0-100-104-100H70z"/><glyph glyph-name="Eng" unicode="Ŋ" horiz-adv-x="670" d="M66 0v700h251L454 90h18v610h132V0H353L216 610h-18V0H66zm288-200v104h94q28 0 28 30V0h128v-88q0-52-30-82t-80-30H354z"/><glyph glyph-name="eng" unicode="ŋ" horiz-adv-x="616" d="M70 0v496h124v-65h18q12 26 45 49.5T357 504q58 0 101.5-26.5t67.5-73T550 296V0H424v286q0 56-27.5 84T318 398q-58 0-90-38.5T196 252V0H70zm244-200v108h82q28 0 28 30V0h126v-88q0-50-30-81t-80-31H314z"/><glyph glyph-name="Omacron" unicode="Ō" horiz-adv-x="676" d="M338-14q-132 0-210 72.5T50 266v168q0 135 78 207.5T338 714t210-72.5T626 434V266q0-135-78-207.5T338-14zm0 118q74 0 115 43t41 115v176q0 72-41 115t-115 43q-73 0-114.5-43T182 438V262q0-72 41.5-115T338 104zM174 762v100h328V762H174z"/><glyph glyph-name="omacron" unicode="ō" horiz-adv-x="612" d="M306-14q-74 0-133 30t-93 87-34 137v16q0 80 34 137t93 87 133 30 133-30 93-87 34-137v-16q0-80-34-137t-93-87-133-30zm0 112q58 0 96 37.5T440 243v10q0 70-37.5 107.5T306 398q-58 0-96-37.5T172 253v-10q0-70 38-107.5T306 98zM142 566v100h328V566H142z"/><glyph glyph-name="Obreve" unicode="Ŏ" horiz-adv-x="676" d="M338-14q-132 0-210 72.5T50 266v168q0 135 78 207.5T338 714t210-72.5T626 434V266q0-135-78-207.5T338-14zm0 118q74 0 115 43t41 115v176q0 72-41 115t-115 43q-73 0-114.5-43T182 438V262q0-72 41.5-115T338 104zm0 648q-77 0-120.5 35.5T174 884v4h102v-4q0-24 14.5-41t47.5-17 47.5 17 14.5 41v4h102v-4q0-61-43.5-96.5T338 752z"/><glyph glyph-name="obreve" unicode="ŏ" horiz-adv-x="612" d="M306-14q-74 0-133 30t-93 87-34 137v16q0 80 34 137t93 87 133 30 133-30 93-87 34-137v-16q0-80-34-137t-93-87-133-30zm0 112q58 0 96 37.5T440 243v10q0 70-37.5 107.5T306 398q-58 0-96-37.5T172 253v-10q0-70 38-107.5T306 98zm0 450q-79 0-122.5 39T140 694v6h104v-4q0-28 14.5-47t47.5-19 47.5 19 14.5 47v4h104v-6q0-68-43.5-107T306 548z"/><glyph glyph-name="Ohungarumlaut" unicode="Ő" horiz-adv-x="676" d="M338-14q-132 0-210 72.5T50 266v168q0 135 78 207.5T338 714t210-72.5T626 434V266q0-135-78-207.5T338-14zm0 118q74 0 115 43t41 115v176q0 72-41 115t-115 43q-73 0-114.5-43T182 438V262q0-72 41.5-115T338 104zm14 654 71 130h130l-97-130H352zm-157 0 54 130h120l-80-130h-94z"/><glyph glyph-name="ohungarumlaut" unicode="ő" horiz-adv-x="612" d="M306-14q-74 0-133 30t-93 87-34 137v16q0 80 34 137t93 87 133 30 133-30 93-87 34-137v-16q0-80-34-137t-93-87-133-30zm0 112q58 0 96 37.5T440 243v10q0 70-37.5 107.5T306 398q-58 0-96-37.5T172 253v-10q0-70 38-107.5T306 98zm18 454 60 148h130l-90-148H324zm-161 0 48 148h118l-68-148h-98z"/><glyph glyph-name="OE" unicode="Œ" horiz-adv-x="836" d="M390 0v700h408V580H520V413h250V293H520V120h284V0H390zm0 0Q228 0 139 82T50 318v64q0 155 89 236.5T390 700V588q-112 0-160-53.5T182 388v-76q0-93 48-146.5T390 112V0z"/><glyph glyph-name="oe" unicode="œ" horiz-adv-x="984" d="M299-14q-71 0-128.5 30t-91 87T46 240v16q0 80 33.5 137t91 87T299 510t120-26.5 78-71.5h18q30 45 78 71.5T701 510q73 0 127-32.5t84-90T942 254v-43H581q2-51 38-83t88-32q53 0 78 23t38 51l103-54q-14-26-40-56.5t-69.5-52T707-14q-67 0-117 27t-75 71h-18q-29-45-78-71.5T299-14zm7 112q58 0 96 37.5T440 243v10q0 70-37.5 107.5T306 398q-58 0-96-37.5T172 253v-10q0-70 38-107.5T306 98zm276 207h232q-4 43-34.5 69T700 400q-51 0-81.5-27T582 305z"/><glyph glyph-name="Racute" unicode="Ŕ" horiz-adv-x="632" d="M66 0v700h304q66 0 115-23t76-65 27-99v-12q0-63-30-102t-74-57v-18q40-2 62-27.5t22-67.5V0H436v210q0 24-12.5 39T382 264H198V0H66zm132 384h158q47 0 73.5 25.5T456 477v10q0 42-26 67.5T356 580H198V384zm25 374 70 130h146L335 758H223z"/><glyph glyph-name="racute" unicode="ŕ" horiz-adv-x="396" d="M70 0v496h124v-56h18q11 30 36.5 44t59.5 14h60V386h-62q-48 0-79-25.5T196 282V0H70zm70 552 74 148h142L250 552H140z"/><glyph glyph-name="uni0156" unicode="Ŗ" horiz-adv-x="632" d="M66 0v700h304q66 0 115-23t76-65 27-99v-12q0-63-30-102t-74-57v-18q40-2 62-27.5t22-67.5V0H436v210q0 24-12.5 39T382 264H198V0H66zm132 384h158q47 0 73.5 25.5T456 477v10q0 42-26 67.5T356 580H198V384zm55-676v59h30q23 0 32 9t9 29v6h-13q-35 0-55 19t-20 50q0 32 21 51t55 19q35 0 56.5-20.5T390-130v-68q0-45-26.5-69.5T286-292h-33z"/><glyph glyph-name="uni0157" unicode="ŗ" horiz-adv-x="396" d="M70 0v496h124v-56h18q11 30 36.5 44t59.5 14h60V386h-62q-48 0-79-25.5T196 282V0H70zm5-292v59h30q23 0 32 9t9 29v6h-13q-35 0-55 19t-20 50q0 32 21 51t55 19q35 0 56.5-20.5T212-130v-68q0-45-26.5-69.5T108-292H75z"/><glyph glyph-name="Rcaron" unicode="Ř" horiz-adv-x="632" d="M66 0v700h304q66 0 115-23t76-65 27-99v-12q0-63-30-102t-74-57v-18q40-2 62-27.5t22-67.5V0H436v210q0 24-12.5 39T382 264H198V0H66zm132 384h158q47 0 73.5 25.5T456 477v10q0 42-26 67.5T356 580H198V384zm25 374L109 888h134l49-66h18l49 66h134L379 758H223z"/><glyph glyph-name="rcaron" unicode="ř" horiz-adv-x="396" d="M70 0v496h124v-56h18q11 30 36.5 44t59.5 14h60V386h-62q-48 0-79-25.5T196 282V0H70zm71 552L24 700h127l56-74h18l56 74h127L291 552H141z"/><glyph glyph-name="Sacute" unicode="Ś" horiz-adv-x="606" d="M309-14q-81 0-143 29T69 98 34 228v28h130v-28q0-63 39-94.5T309 102q68 0 101.5 27t33.5 69q0 29-16.5 47t-48 29.5T303 296l-23 5q-72 16-123.5 40.5t-79 64.5T50 510t30.5 109.5 86 70T297 714t133.5-25.5 92-76T556 486v-30H426v30q0 40-15.5 64.5t-44.5 36-69 11.5q-60 0-88.5-22.5T180 514q0-26 13.5-44t40.5-30 69-21l23-5q75-16 130.5-41t86.5-66 31-105-32.5-112.5-92-76T309-14zm-86 772 70 130h146L335 758H223z"/><glyph glyph-name="sacute" unicode="ś" horiz-adv-x="524" d="M276-14q-97 0-159 42T42 148l116 30q7-35 23.5-55t41-28.5T276 86q44 0 65 15.5t21 38.5-20 35.5-64 20.5l-28 5q-52 10-95 27.5T86 277t-26 80q0 74 54 113.5T256 510q83 0 138-37t72-97l-117-36q-8 38-32.5 54T256 410t-55-12.5-19-34.5q0-24 20-35.5t54-17.5l28-5q56-10 101.5-26.5t72-47T484 149q0-78-56.5-120.5T276-14zm-91 566 74 148h142L295 552H185z"/><glyph glyph-name="Scircumflex" unicode="Ŝ" horiz-adv-x="606" d="M309-14q-81 0-143 29T69 98 34 228v28h130v-28q0-63 39-94.5T309 102q68 0 101.5 27t33.5 69q0 29-16.5 47t-48 29.5T303 296l-23 5q-72 16-123.5 40.5t-79 64.5T50 510t30.5 109.5 86 70T297 714t133.5-25.5 92-76T556 486v-30H426v30q0 40-15.5 64.5t-44.5 36-69 11.5q-60 0-88.5-22.5T180 514q0-26 13.5-44t40.5-30 69-21l23-5q75-16 130.5-41t86.5-66 31-105-32.5-112.5-92-76T309-14zM109 758l114 130h156l114-130H359l-49 66h-18l-49-66H109z"/><glyph glyph-name="scircumflex" unicode="ŝ" horiz-adv-x="524" d="M276-14q-97 0-159 42T42 148l116 30q7-35 23.5-55t41-28.5T276 86q44 0 65 15.5t21 38.5-20 35.5-64 20.5l-28 5q-52 10-95 27.5T86 277t-26 80q0 74 54 113.5T256 510q83 0 138-37t72-97l-117-36q-8 38-32.5 54T256 410t-55-12.5-19-34.5q0-24 20-35.5t54-17.5l28-5q56-10 101.5-26.5t72-47T484 149q0-78-56.5-120.5T276-14zM69 552l117 148h150l117-148H326l-56 74h-18l-56-74H69z"/><glyph glyph-name="Scedilla" unicode="Ş" horiz-adv-x="606" d="M309-14q-81 0-143 29T69 98 34 228v28h130v-28q0-63 39-94.5T309 102q68 0 101.5 27t33.5 69q0 29-16.5 47t-48 29.5T303 296l-23 5q-72 16-123.5 40.5t-79 64.5T50 510t30.5 109.5 86 70T297 714t133.5-25.5 92-76T556 486v-30H426v30q0 40-15.5 64.5t-44.5 36-69 11.5q-60 0-88.5-22.5T180 514q0-26 13.5-44t40.5-30 69-21l23-5q75-16 130.5-41t86.5-66 31-105-32.5-112.5-92-76T309-14zm6-200q-32 0-62.5 6T200-195l20 75q19-6 40.5-11t48.5-5q20 0 33 7t13 22q0 14-11.5 20.5T306-80h-38l7 100h86l-4-59q38 0 64.5-21t26.5-62q0-32-19-52.5t-49.5-30T315-214z"/><glyph glyph-name="scedilla" unicode="ş" horiz-adv-x="524" d="M276-14q-97 0-159 42T42 148l116 30q7-35 23.5-55t41-28.5T276 86q44 0 65 15.5t21 38.5-20 35.5-64 20.5l-28 5q-52 10-95 27.5T86 277t-26 80q0 74 54 113.5T256 510q83 0 138-37t72-97l-117-36q-8 38-32.5 54T256 410t-55-12.5-19-34.5q0-24 20-35.5t54-17.5l28-5q56-10 101.5-26.5t72-47T484 149q0-78-56.5-120.5T276-14zm-11-200q-32 0-62.5 6T150-195l20 75q19-6 40.5-11t48.5-5q20 0 33 7t13 22q0 14-11.5 20.5T256-80h-38l7 100h86l-4-59q38 0 64.5-21t26.5-62q0-32-19-52.5t-49.5-30T265-214z"/><glyph glyph-name="Scaron" unicode="Š" horiz-adv-x="606" d="M309-14q-81 0-143 29T69 98 34 228v28h130v-28q0-63 39-94.5T309 102q68 0 101.5 27t33.5 69q0 29-16.5 47t-48 29.5T303 296l-23 5q-72 16-123.5 40.5t-79 64.5T50 510t30.5 109.5 86 70T297 714t133.5-25.5 92-76T556 486v-30H426v30q0 40-15.5 64.5t-44.5 36-69 11.5q-60 0-88.5-22.5T180 514q0-26 13.5-44t40.5-30 69-21l23-5q75-16 130.5-41t86.5-66 31-105-32.5-112.5-92-76T309-14zm-86 772L109 888h134l49-66h18l49 66h134L379 758H223z"/><glyph glyph-name="scaron" unicode="š" horiz-adv-x="524" d="M276-14q-97 0-159 42T42 148l116 30q7-35 23.5-55t41-28.5T276 86q44 0 65 15.5t21 38.5-20 35.5-64 20.5l-28 5q-52 10-95 27.5T86 277t-26 80q0 74 54 113.5T256 510q83 0 138-37t72-97l-117-36q-8 38-32.5 54T256 410t-55-12.5-19-34.5q0-24 20-35.5t54-17.5l28-5q56-10 101.5-26.5t72-47T484 149q0-78-56.5-120.5T276-14zm-90 566L69 700h127l56-74h18l56 74h127L336 552H186z"/><glyph glyph-name="uni0162" unicode="Ţ" horiz-adv-x="588" d="M228 0v580H24v120h540V580H360V0H228zm66-214q-32 0-62.5 6T179-195l20 75q19-6 40.5-11t48.5-5q20 0 33 7t13 22q0 14-11.5 20.5T285-80h-38l7 100h86l-4-59q38 0 64.5-21t26.5-62q0-32-19-52.5t-49.5-30T294-214z"/><glyph glyph-name="uni0163" unicode="ţ" horiz-adv-x="456" d="M260 0q-49 0-79.5 30.5T150 112v280H26v104h124v154h126V496h136V392H276V134q0-30 28-30h96V0H260zm-28-214q-32 0-62.5 6T117-195l20 75q19-6 40.5-11t48.5-5q20 0 33 7t13 22q0 14-11.5 20.5T223-80h-38l7 100h86l-4-59q38 0 64.5-21t26.5-62q0-32-19-52.5t-49.5-30T232-214z"/><glyph glyph-name="Tcaron" unicode="Ť" horiz-adv-x="588" d="M228 0v580H24v120h540V580H360V0H228zm-12 758L102 888h134l49-66h18l49 66h134L372 758H216z"/><glyph glyph-name="tcaron" unicode="ť" horiz-adv-x="456" d="M260 0q-49 0-79.5 30.5T150 112v280H26v104h124v154h126V496h136V392H276V134q0-30 28-30h96V0H260zm76 555 8 202h120l-42-202h-86z"/><glyph glyph-name="Tbar" unicode="Ŧ" horiz-adv-x="588" d="M228 0v580H24v120h540V580H360V0H228zM124 306v90h340v-90H124z"/><glyph glyph-name="tbar" unicode="ŧ" horiz-adv-x="456" d="M260 0q-49 0-79.5 30.5T150 112v280H26v104h124v154h126V496h136V392H276V134q0-30 28-30h96V0H260zM26 208v84h386v-84H26z"/><glyph glyph-name="Utilde" unicode="Ũ" horiz-adv-x="672" d="M336-14q-86 0-147.5 31.5t-94 90T62 246v454h132V242q0-64 36.5-101T336 104t105.5 37T478 242v458h132V246q0-80-32.5-138.5t-94-90T336-14zM219 746l-64 51 32 43q18 24 38.5 37t48.5 13q24 0 39-7t32-21q10-8 20.5-16.5T391 837q16 0 26 10t19 21l17 22 64-51-32-43q-18-24-38.5-37T398 746q-24 0-39 7t-32 21q-10 8-20.5 16.5T281 799q-16 0-26-10t-19-21z"/><glyph glyph-name="utilde" unicode="ũ" horiz-adv-x="616" d="M259-8q-58 0-101.5 26.5T90 92 66 200v296h126V210q0-56 27.5-84T298 98q58 0 90 38.5T420 244v252h126V0H422v65h-18q-12-25-45-49T259-8zm-65 550-69 44 33 57q15 26 36.5 37.5T241 692q22 0 38.5-8.5T312 661q9-8 19.5-16t23.5-8q15 0 24.5 10t16.5 21l16 24 69-44-33-57q-15-25-36-37t-47-12q-22 0-38.5 8.5T294 573q-9 8-19 16t-24 8q-15 0-24-10t-17-21z"/><glyph glyph-name="Umacron" unicode="Ū" horiz-adv-x="672" d="M336-14q-86 0-147.5 31.5t-94 90T62 246v454h132V242q0-64 36.5-101T336 104t105.5 37T478 242v458h132V246q0-80-32.5-138.5t-94-90T336-14zM172 762v100h328V762H172z"/><glyph glyph-name="umacron" unicode="ū" horiz-adv-x="616" d="M259-8q-58 0-101.5 26.5T90 92 66 200v296h126V210q0-56 27.5-84T298 98q58 0 90 38.5T420 244v252h126V0H422v65h-18q-12-25-45-49T259-8zM142 566v100h328V566H142z"/><glyph glyph-name="Ubreve" unicode="Ŭ" horiz-adv-x="672" d="M336-14q-86 0-147.5 31.5t-94 90T62 246v454h132V242q0-64 36.5-101T336 104t105.5 37T478 242v458h132V246q0-80-32.5-138.5t-94-90T336-14zm0 766q-77 0-120.5 35.5T172 884v4h102v-4q0-24 14.5-41t47.5-17 47.5 17 14.5 41v4h102v-4q0-61-43.5-96.5T336 752z"/><glyph glyph-name="ubreve" unicode="ŭ" horiz-adv-x="616" d="M259-8q-58 0-101.5 26.5T90 92 66 200v296h126V210q0-56 27.5-84T298 98q58 0 90 38.5T420 244v252h126V0H422v65h-18q-12-25-45-49T259-8zm47 556q-79 0-122.5 39T140 694v6h104v-4q0-28 14.5-47t47.5-19 47.5 19 14.5 47v4h104v-6q0-68-43.5-107T306 548z"/><glyph glyph-name="Uring" unicode="Ů" horiz-adv-x="672" d="M336-14q-86 0-147.5 31.5t-94 90T62 246v454h132V242q0-64 36.5-101T336 104t105.5 37T478 242v458h132V246q0-80-32.5-138.5t-94-90T336-14zm0 762q-43 0-73.5 28.5T232 848t30 71.5 74 28.5 74-28 30-72q0-46-31.5-73T336 748zm0 70q14 0 22 8.5t8 21.5-8 21.5-22 8.5q-13 0-21.5-8.5T306 848t8.5-21.5T336 818z"/><glyph glyph-name="uring" unicode="ů" horiz-adv-x="616" d="M259-8q-58 0-101.5 26.5T90 92 66 200v296h126V210q0-56 27.5-84T298 98q58 0 90 38.5T420 244v252h126V0H422v65h-18q-12-25-45-49T259-8zm47 547q-43 0-73.5 28.5T202 639t30 71.5 74 28.5 74-28 30-72q0-46-31.5-73T306 539zm0 70q14 0 22 8.5t8 21.5-8 21.5-22 8.5q-13 0-21.5-8.5T276 639t8.5-21.5T306 609z"/><glyph glyph-name="Uhungarumlaut" unicode="Ű" horiz-adv-x="672" d="M336-14q-86 0-147.5 31.5t-94 90T62 246v454h132V242q0-64 36.5-101T336 104t105.5 37T478 242v458h132V246q0-80-32.5-138.5t-94-90T336-14zm14 772 71 130h130l-97-130H350zm-157 0 54 130h120l-80-130h-94z"/><glyph glyph-name="uhungarumlaut" unicode="ű" horiz-adv-x="616" d="M259-8q-58 0-101.5 26.5T90 92 66 200v296h126V210q0-56 27.5-84T298 98q58 0 90 38.5T420 244v252h126V0H422v65h-18q-12-25-45-49T259-8zm65 560 60 148h130l-90-148H324zm-161 0 48 148h118l-68-148h-98z"/><glyph glyph-name="Uogonek" unicode="Ų" horiz-adv-x="672" d="M336-14q-86 0-147.5 31.5t-94 90T62 246v454h132V242q0-64 36.5-101T336 104t105.5 37T478 242v458h132V246q0-80-32.5-138.5t-94-90T336-14zm104-156q-34 0-56 19t-22 50q0 15 2.5 32t6.5 33l13 56h81l-10-55q-1-7-2.5-14.5T451-64q0-22 23-22h46v-84h-80z"/><glyph glyph-name="uogonek" unicode="ų" horiz-adv-x="616" d="M259-8q-58 0-101.5 26.5T90 92 66 200v296h126V210q0-56 27.5-84T298 98q58 0 90 38.5T420 244v252h126V0H422v65h-18q-12-25-45-49T259-8zm241-162q-34 0-56 19t-22 50q0 15 2.5 32t6.5 33l13 56h81l-10-55q-1-7-2.5-14.5T511-64q0-22 23-22h46v-84h-80z"/><glyph glyph-name="Wcircumflex" unicode="Ŵ" horiz-adv-x="898" d="M122 0 30 700h131l68-608h18l88 608h228l88-608h18l68 608h131L776 0H548l-90 622h-18L350 0H122zm135 758 114 130h156l114-130H507l-49 66h-18l-49-66H257z"/><glyph glyph-name="wcircumflex" unicode="ŵ" horiz-adv-x="784" d="M110 0 40 496h125l44-411h18l64 411h202l64-411h18l44 411h125L674 0H465l-64 411h-18L319 0H110zm90 552 117 148h150l117-148H457l-56 74h-18l-56-74H200z"/><glyph glyph-name="Ycircumflex" unicode="Ŷ" horiz-adv-x="624" d="M246 0v241L8 700h147l148-300h18l148 300h147L378 241V0H246zM120 758l114 130h156l114-130H370l-49 66h-18l-49-66H120z"/><glyph glyph-name="ycircumflex" unicode="ŷ" horiz-adv-x="616" d="M124-200v110h270q28 0 28 30V65h-18q-8-17-25-34T333 3 259-8q-58 0-101.5 26.5T90 92 66 200v296h126V210q0-56 27.5-84T298 98q58 0 90 38.5T420 244v252h126V-88q0-51-30-81.5T436-200H124zm-10 752 117 148h150l117-148H371l-56 74h-18l-56-74H114z"/><glyph glyph-name="Ydieresis" unicode="Ÿ" horiz-adv-x="624" d="M246 0v241L8 700h147l148-300h18l148 300h147L378 241V0H246zm177 754q-34 0-57.5 21.5T342 834t23.5 58.5T423 914q35 0 58-21.5t23-58.5-23-58.5-58-21.5zm-222 0q-34 0-57.5 21.5T120 834t23.5 58.5T201 914q35 0 58-21.5t23-58.5-23-58.5-58-21.5z"/><glyph glyph-name="Zacute" unicode="Ź" horiz-adv-x="576" d="M46 0v168l346 398v16H56v118h474V532L184 134v-16h348V0H46zm169 758 70 130h146L327 758H215z"/><glyph glyph-name="zacute" unicode="ź" horiz-adv-x="518" d="M52 0v150l272 226v16H62v104h400V346L190 120v-16h280V0H52zm132 552 74 148h142L294 552H184z"/><glyph glyph-name="Zdotaccent" unicode="Ż" horiz-adv-x="576" d="M46 0v168l346 398v16H56v118h474V532L184 134v-16h348V0H46zm247 754q-34 0-57.5 22T212 834t23.5 58 57.5 22q35 0 58-22t23-58-23-58-58-22z"/><glyph glyph-name="zdotaccent" unicode="ż" horiz-adv-x="518" d="M52 0v150l272 226v16H62v104h400V346L190 120v-16h280V0H52zm208 554q-34 0-57.5 22T179 634t23.5 58 57.5 22q35 0 58-22t23-58-23-58-58-22z"/><glyph glyph-name="Zcaron" unicode="Ž" horiz-adv-x="576" d="M46 0v168l346 398v16H56v118h474V532L184 134v-16h348V0H46zm169 758L101 888h134l49-66h18l49 66h134L371 758H215z"/><glyph glyph-name="zcaron" unicode="ž" horiz-adv-x="518" d="M52 0v150l272 226v16H62v104h400V346L190 120v-16h280V0H52zm133 552L68 700h127l56-74h18l56 74h127L335 552H185z"/><glyph glyph-name="longs" unicode="ſ" horiz-adv-x="370" d="M132 0v392H26v104h106v92q0 51 30.5 81.5T242 700h130V596h-86q-28 0-28-30V0H132z"/><glyph glyph-name="uni0180" unicode="ƀ" horiz-adv-x="638" d="M368-14q-67 0-103 23t-53 51h-18V0H70v700h126V439h18q11 18 29.5 34t49 26.5T368 510q60 0 111-29.5t82-86.5 31-138v-16q0-81-31-138t-82-86.5T368-14zM330 96q58 0 97 37.5T466 243v10q0 72-38.5 109.5T330 400q-58 0-97-37.5T194 253v-10q0-72 39-109.5T330 96zM0 556v70h340v-70H0z"/><glyph glyph-name="uni018F" unicode="Ə" horiz-adv-x="652" d="M325-14q-129 0-202 72T50 260v128h420V268H180v-14q0-73 36.5-111.5T325 104t108.5 38.5T470 254v202q0 65-37 102.5T325 596q-70 0-107.5-36T180 470v-2H50v2q0 113 73 178.5T325 714q131 0 204-67.5T602 454V260q0-130-74-202T325-14z"/><glyph glyph-name="florin" unicode="ƒ" horiz-adv-x="620" d="M64 0v120h155q27 0 27 30v192H105v120h141v136q0 43 29 72.5t72 29.5h222V580H399q-27 0-27-30v-88h145V342H372V102q0-43-29-72.5T271 0H64z"/><glyph glyph-name="Ohorn" unicode="Ơ" horiz-adv-x="692" d="M338-14q-132 0-210 72.5T50 266v168q0 135 78 207.5T338 714t210-72.5T626 434V266q0-135-78-207.5T338-14zm0 118q74 0 115 43t41 115v176q0 72-41 115t-115 43q-73 0-114.5-43T182 438V262q0-72 41.5-115T338 104zm195 482-48 79q43 2 62 19t19 62v48h118v-52q0-61-18.5-95.5t-52.5-48-80-12.5z"/><glyph glyph-name="ohorn" unicode="ơ" horiz-adv-x="642" d="M306-14q-74 0-133 30t-93 87-34 137v16q0 80 34 137t93 87 133 30 133-30 93-87 34-137v-16q0-80-34-137t-93-87-133-30zm0 112q58 0 96 37.5T440 243v10q0 70-37.5 107.5T306 398q-58 0-96-37.5T172 253v-10q0-70 38-107.5T306 98zm175 284-48 79q43 2 62 19t19 62v48h118v-52q0-61-18.5-95.5t-52.5-48-80-12.5z"/><glyph glyph-name="Uhorn" unicode="Ư" horiz-adv-x="744" d="M336-14q-86 0-147.5 31.5t-94 90T62 246v454h132V242q0-64 36.5-101T336 104t105.5 37T478 242v458h132V246q0-80-32.5-138.5t-94-90T336-14zm246 624v90h9q20 0 30 10.5t10 31.5v68h119l-1-68q-1-67-35.5-99.5T611 610h-29z"/><glyph glyph-name="uhorn" unicode="ư" horiz-adv-x="684" d="M259-8q-58 0-101.5 26.5T90 92 66 200v296h126V210q0-56 27.5-84T298 98q58 0 90 38.5T420 244v252h126V0H422v65h-18q-12-25-45-49T259-8zm259 414v90h9q20 0 30 10.5t10 31.5v68h119l-1-68q-1-67-35.5-99.5T547 406h-29z"/><glyph glyph-name="uni01C4" unicode="Ǆ" horiz-adv-x="1230" d="M46 0v116h92v468H46v116h288q141 0 214.5-71.5T622 416V284q0-141-73.5-212.5T334 0H46zm224 120h66q80 0 117 42t37 118v140q0 77-37 118.5T336 580h-66V120zM700 0v168l346 398v16H710v118h474V532L838 134v-16h348V0H700zm169 758L755 888h134l49-66h18l49 66h134l-114-130H869z"/><glyph glyph-name="uni01C5" unicode="ǅ" horiz-adv-x="1184" d="M46 0v116h92v468H46v116h288q141 0 214.5-71.5T622 416V284q0-141-73.5-212.5T334 0H46zm224 120h66q80 0 117 42t37 118v140q0 77-37 118.5T336 580h-66V120zM718 0v150l272 226v16H728v104h400V346L856 120v-16h280V0H718zm133 552L734 700h127l56-74h18l56 74h127l-117-148H851z"/><glyph glyph-name="uni01C6" unicode="ǆ" horiz-adv-x="1156" d="M270-14q-59 0-110.5 29.5T77 102 46 240v16q0 81 31 138t82 86.5T270 510q45 0 75.5-10.5T395 473t29-34h18v261h126V0H444v60h-18q-17-28-52.5-51T270-14zm38 110q58 0 97 37.5T444 243v10q0 72-38.5 109.5T308 400q-58 0-97-37.5T172 253v-10q0-72 39-109.5T308 96zM690 0v150l272 226v16H700v104h400V346L828 120v-16h280V0H690zm133 552L706 700h127l56-74h18l56 74h127L973 552H823z"/><glyph glyph-name="uni01C7" unicode="Ǉ" horiz-adv-x="1152" d="M66 0v700h132V120h320V0H66zm743-14q-108 0-171.5 59T574 210v66h132v-66q0-47 26-73.5t73-26.5q44 0 68.5 26t24.5 74v370H778v120h332V580h-80V210q0-109-59-166.5T809-14z"/><glyph glyph-name="uni01C8" unicode="ǈ" horiz-adv-x="810" d="M66 0v700h132V120h320V0H66zm454-200v108h66q28 0 28 30v558h126V-88q0-51-30-81.5T630-200H520zm157 754q-34 0-57.5 22T596 634t23.5 58 57.5 22q35 0 58-22t23-58-23-58-58-22z"/><glyph glyph-name="uni01C9" unicode="ǉ" horiz-adv-x="534" d="M70 0v700h126V0H70zm174-200v108h66q28 0 28 30v558h126V-88q0-51-30-81.5T354-200H244zm157 754q-34 0-57.5 22T320 634t23.5 58 57.5 22q35 0 58-22t23-58-23-58-58-22z"/><glyph glyph-name="uni01CA" unicode="Ǌ" horiz-adv-x="1280" d="M66 0v700h251L456 90h18v610h130V0H353L214 610h-18V0H66zm871-14q-108 0-171.5 59T702 210v66h132v-66q0-47 26-73.5t73-26.5q44 0 68.5 26t24.5 74v370H906v120h332V580h-80V210q0-109-59-166.5T937-14z"/><glyph glyph-name="uni01CB" unicode="ǋ" horiz-adv-x="938" d="M66 0v700h251L456 90h18v610h130V0H353L214 610h-18V0H66zm582-200v108h66q28 0 28 30v558h126V-88q0-51-30-81.5T758-200H648zm157 754q-34 0-57.5 22T724 634t23.5 58 57.5 22q35 0 58-22t23-58-23-58-58-22z"/><glyph glyph-name="uni01CC" unicode="ǌ" horiz-adv-x="884" d="M70 0v496h124v-65h18q12 26 45 49.5T357 504q58 0 101.5-26.5t67.5-73T550 296V0H424v286q0 56-27.5 84T318 398q-58 0-90-38.5T196 252V0H70zm524-200v108h66q28 0 28 30v558h126V-88q0-51-30-81.5T704-200H594zm157 754q-34 0-57.5 22T670 634t23.5 58 57.5 22q35 0 58-22t23-58-23-58-58-22z"/><glyph glyph-name="uni01CD" unicode="Ǎ" horiz-adv-x="634" d="m18 0 184 700h230L616 0H480l-38 154H192L154 0H18zm205 276h188l-85 341h-18zm16 482L125 888h134l49-66h18l49 66h134L395 758H239z"/><glyph glyph-name="uni01CE" unicode="ǎ" horiz-adv-x="578" d="M224-14q-53 0-95 18.5t-66.5 54T38 145t24.5 85.5 68 52T230 300h136v28q0 35-22 57.5T274 408q-47 0-70-21.5T174 331L58 370q12 38 38.5 69.5t71 51T276 510q98 0 155-49t57-142V134q0-30 28-30h40V0h-84q-37 0-61 18t-24 48v1h-19q-4-12-18-31.5T306 1t-82-15zm22 102q53 0 86.5 29.5T366 196v10H239q-35 0-55-15t-20-42 21-44 61-17zm-40 464L89 700h127l56-74h18l56 74h127L356 552H206z"/><glyph glyph-name="uni01CF" unicode="Ǐ" horiz-adv-x="264" d="M66 0v700h132V0H66zM54 758-60 888H74l49-66h18l49 66h134L210 758H54z"/><glyph glyph-name="uni01D0" unicode="ǐ" horiz-adv-x="266" d="M70 0v496h126V0H70zM58 552-59 700H68l56-74h18l56 74h127L208 552H58z"/><glyph glyph-name="uni01D1" unicode="Ǒ" horiz-adv-x="676" d="M338-14q-132 0-210 72.5T50 266v168q0 135 78 207.5T338 714t210-72.5T626 434V266q0-135-78-207.5T338-14zm0 118q74 0 115 43t41 115v176q0 72-41 115t-115 43q-73 0-114.5-43T182 438V262q0-72 41.5-115T338 104zm-78 654L146 888h134l49-66h18l49 66h134L416 758H260z"/><glyph glyph-name="uni01D2" unicode="ǒ" horiz-adv-x="612" d="M306-14q-74 0-133 30t-93 87-34 137v16q0 80 34 137t93 87 133 30 133-30 93-87 34-137v-16q0-80-34-137t-93-87-133-30zm0 112q58 0 96 37.5T440 243v10q0 70-37.5 107.5T306 398q-58 0-96-37.5T172 253v-10q0-70 38-107.5T306 98zm-75 454L114 700h127l56-74h18l56 74h127L381 552H231z"/><glyph glyph-name="uni01D3" unicode="Ǔ" horiz-adv-x="672" d="M336-14q-86 0-147.5 31.5t-94 90T62 246v454h132V242q0-64 36.5-101T336 104t105.5 37T478 242v458h132V246q0-80-32.5-138.5t-94-90T336-14zm-78 772L144 888h134l49-66h18l49 66h134L414 758H258z"/><glyph glyph-name="uni01D4" unicode="ǔ" horiz-adv-x="616" d="M259-8q-58 0-101.5 26.5T90 92 66 200v296h126V210q0-56 27.5-84T298 98q58 0 90 38.5T420 244v252h126V0H422v65h-18q-12-25-45-49T259-8zm-28 560L114 700h127l56-74h18l56 74h127L381 552H231z"/><glyph glyph-name="uni01D5" unicode="Ǖ" horiz-adv-x="672" d="M336-14q-86 0-147.5 31.5t-94 90T62 246v454h132V242q0-64 36.5-101T336 104t105.5 37T478 242v458h132V246q0-80-32.5-138.5t-94-90T336-14zm111 768q-34 0-57.5 21.5T366 834t23.5 58.5T447 914q35 0 58-21.5t23-58.5-23-58.5-58-21.5zm-222 0q-34 0-57.5 21.5T144 834t23.5 58.5T225 914q35 0 58-21.5t23-58.5-23-58.5-58-21.5zm-53 206v100h328V960H172z"/><glyph glyph-name="uni01D6" unicode="ǖ" horiz-adv-x="616" d="M259-8q-58 0-101.5 26.5T90 92 66 200v296h126V210q0-56 27.5-84T298 98q58 0 90 38.5T420 244v252h126V0H422v65h-18q-12-25-45-49T259-8zm150 558q-34 0-57.5 21.5T328 630t23.5 58.5T409 710q35 0 58-21.5t23-58.5-23-58.5-58-21.5zm-206 0q-34 0-57.5 21.5T122 630t23.5 58.5T203 710q35 0 58-21.5t23-58.5-23-58.5-58-21.5zm-61 204v100h328V754H142z"/><glyph glyph-name="uni01D7" unicode="Ǘ" horiz-adv-x="672" d="M336-14q-86 0-147.5 31.5t-94 90T62 246v454h132V242q0-64 36.5-101T336 104t105.5 37T478 242v458h132V246q0-80-32.5-138.5t-94-90T336-14zm111 768q-34 0-57.5 21.5T366 834t23.5 58.5T447 914q35 0 58-21.5t23-58.5-23-58.5-58-21.5zm-222 0q-34 0-57.5 21.5T144 834t23.5 58.5T225 914q35 0 58-21.5t23-58.5-23-58.5-58-21.5zm33 202 70 130h146L370 956H258z"/><glyph glyph-name="uni01D8" unicode="ǘ" horiz-adv-x="616" d="M259-8q-58 0-101.5 26.5T90 92 66 200v296h126V210q0-56 27.5-84T298 98q58 0 90 38.5T420 244v252h126V0H422v65h-18q-12-25-45-49T259-8zm150 558q-34 0-57.5 21.5T328 630t23.5 58.5T409 710q35 0 58-21.5t23-58.5-23-58.5-58-21.5zm-206 0q-34 0-57.5 21.5T122 630t23.5 58.5T203 710q35 0 58-21.5t23-58.5-23-58.5-58-21.5zm27 190 74 148h142L340 740H230z"/><glyph glyph-name="uni01D9" unicode="Ǚ" horiz-adv-x="672" d="M336-14q-86 0-147.5 31.5t-94 90T62 246v454h132V242q0-64 36.5-101T336 104t105.5 37T478 242v458h132V246q0-80-32.5-138.5t-94-90T336-14zm111 768q-34 0-57.5 21.5T366 834t23.5 58.5T447 914q35 0 58-21.5t23-58.5-23-58.5-58-21.5zm-222 0q-34 0-57.5 21.5T144 834t23.5 58.5T225 914q35 0 58-21.5t23-58.5-23-58.5-58-21.5zm33 202-114 130h134l49-66h18l49 66h134L414 956H258z"/><glyph glyph-name="uni01DA" unicode="ǚ" horiz-adv-x="616" d="M259-8q-58 0-101.5 26.5T90 92 66 200v296h126V210q0-56 27.5-84T298 98q58 0 90 38.5T420 244v252h126V0H422v65h-18q-12-25-45-49T259-8zm150 558q-34 0-57.5 21.5T328 630t23.5 58.5T409 710q35 0 58-21.5t23-58.5-23-58.5-58-21.5zm-206 0q-34 0-57.5 21.5T122 630t23.5 58.5T203 710q35 0 58-21.5t23-58.5-23-58.5-58-21.5zm28 190L114 888h127l56-74h18l56 74h127L381 740H231z"/><glyph glyph-name="uni01DB" unicode="Ǜ" horiz-adv-x="672" d="M336-14q-86 0-147.5 31.5t-94 90T62 246v454h132V242q0-64 36.5-101T336 104t105.5 37T478 242v458h132V246q0-80-32.5-138.5t-94-90T336-14zm111 768q-34 0-57.5 21.5T366 834t23.5 58.5T447 914q35 0 58-21.5t23-58.5-23-58.5-58-21.5zm-222 0q-34 0-57.5 21.5T144 834t23.5 58.5T225 914q35 0 58-21.5t23-58.5-23-58.5-58-21.5zm77 202-104 130h146l70-130H302z"/><glyph glyph-name="uni01DC" unicode="ǜ" horiz-adv-x="616" d="M259-8q-58 0-101.5 26.5T90 92 66 200v296h126V210q0-56 27.5-84T298 98q58 0 90 38.5T420 244v252h126V0H422v65h-18q-12-25-45-49T259-8zm150 558q-34 0-57.5 21.5T328 630t23.5 58.5T409 710q35 0 58-21.5t23-58.5-23-58.5-58-21.5zm-206 0q-34 0-57.5 21.5T122 630t23.5 58.5T203 710q35 0 58-21.5t23-58.5-23-58.5-58-21.5zm69 190L166 888h142l74-148H272z"/><glyph glyph-name="Gcaron" unicode="Ǧ" horiz-adv-x="662" d="M308-14q-72 0-130.5 32.5t-93 95T50 266v168q0 135 76 207.5T332 714q129 0 199.5-68.5T602 460v-4H472v8q0 37-15.5 67T410 578.5 332 596q-70 0-110-43t-40-117V264q0-73 40-117.5T334 102t105 38 33 96v10H306v112h296V0H480v67h-18q-7-17-22.5-36T393-1t-85-13zm-51 772L143 888h134l49-66h18l49 66h134L413 758H257z"/><glyph glyph-name="gcaron" unicode="ǧ" horiz-adv-x="638" d="M46 246v16q0 78 31 133.5t82.5 85T272 510q68 0 103-24t51-50h18v60h124V-88q0-51-30-81.5T458-200H126v110h288q28 0 28 30V69h-18q-10-16-28-32.5T348 9 272-2q-61 0-112.5 29.5t-82.5 85T46 246zm262-138q58 0 97 37t39 104v10q0 68-38.5 104.5T308 400q-58 0-97-36.5T172 259v-10q0-67 39-104t97-37zm-55 444L136 700h127l56-74h18l56 74h127L403 552H253z"/><glyph glyph-name="uni01EA" unicode="Ǫ" horiz-adv-x="676" d="M338-14q-132 0-210 72.5T50 266v168q0 135 78 207.5T338 714t210-72.5T626 434V266q0-135-78-207.5T338-14zm0 118q74 0 115 43t41 115v176q0 72-41 115t-115 43q-73 0-114.5-43T182 438V262q0-72 41.5-115T338 104zm30-274q-34 0-56 19t-22 50q0 15 2.5 32t6.5 33l13 56h81l-10-55q-1-7-2.5-14.5T379-64q0-22 23-22h46v-84h-80z"/><glyph glyph-name="uni01EB" unicode="ǫ" horiz-adv-x="612" d="M306-14q-74 0-133 30t-93 87-34 137v16q0 80 34 137t93 87 133 30 133-30 93-87 34-137v-16q0-80-34-137t-93-87-133-30zm0 112q58 0 96 37.5T440 243v10q0 70-37.5 107.5T306 398q-58 0-96-37.5T172 253v-10q0-70 38-107.5T306 98zm28-268q-34 0-56 19t-22 50q0 15 2.5 32t6.5 33l13 56h81l-10-55q-1-7-2.5-14.5T345-64q0-22 23-22h46v-84h-80z"/><glyph glyph-name="Aringacute" unicode="Ǻ" horiz-adv-x="634" d="m18 0 184 700h230L616 0H480l-38 154H192L154 0H18zm205 276h188l-85 341h-18zm78 622 80 138h120L397 898h-96zm16-150q-43 0-73.5 28.5T213 848t30 71.5 74 28.5 74-28 30-72q0-46-31.5-73T317 748zm0 70q14 0 22 8.5t8 21.5-8 21.5-22 8.5q-13 0-21.5-8.5T287 848t8.5-21.5T317 818z"/><glyph glyph-name="aringacute" unicode="ǻ" horiz-adv-x="578" d="M224-14q-53 0-95 18.5t-66.5 54T38 145t24.5 85.5 68 52T230 300h136v28q0 35-22 57.5T274 408q-47 0-70-21.5T174 331L58 370q12 38 38.5 69.5t71 51T276 510q98 0 155-49t57-142V134q0-30 28-30h40V0h-84q-37 0-61 18t-24 48v1h-19q-4-12-18-31.5T306 1t-82-15zm22 102q53 0 86.5 29.5T366 196v10H239q-35 0-55-15t-20-42 21-44 61-17zm23 612 71 128h110l-92-128h-89zm12-161q-43 0-73.5 28.5T177 639t30 71.5 74 28.5 74-28 30-72q0-46-31.5-73T281 539zm0 70q14 0 22 8.5t8 21.5-8 21.5-22 8.5q-13 0-21.5-8.5T251 639t8.5-21.5T281 609z"/><glyph glyph-name="AEacute" unicode="Ǽ" horiz-adv-x="821" d="M375 0v700h408V580H505V413h250V293H505V120h284V0H375zM18 0l234 700h123v-70h-18L242 276h133V154H203L153 0H18zm329 758 70 130h146L459 758H347z"/><glyph glyph-name="aeacute" unicode="ǽ" horiz-adv-x="896" d="M615-14q-71 0-124.5 36t-83 96.5T378 252t29.5 131.5 81 92.5T607 510q72 0 122-33t76.5-88.5T832 266v-61H491q2-47 34-78t84-31q51 0 77.5 21.5T726 161l93-67q-19-27-45.5-52T709 1.5 615-14zM250 88q53 0 85.5 30.5T368 198v7H243q-38 0-59.5-14.5T162 149t22.5-44T250 88zM236-14q-87 0-142.5 41T38 144q0 77 54.5 116T234 299h134v29q0 34-25 57t-73 23q-46 0-71-22t-35-55L52 370q14 38 41 69.5t71 51T270 510q61 0 98.5-19t61.5-49h28l-22-182 9-185h-28q-9-15-29-36T331.5 2 236-14zm256 313h216q-1 47-30 74t-76 27q-50 0-79-27.5T492 299zM368 552l74 148h142L478 552H368z"/><glyph glyph-name="Oslashacute" unicode="Ǿ" horiz-adv-x="676" d="M338-14q-132 0-210 72.5T50 266v168q0 135 78 207.5T338 714t210-72.5T626 434V266q0-135-78-207.5T338-14zm0 118q74 0 115 43t41 115v176q0 72-41 115t-115 43q-73 0-114.5-43T182 438V262q0-72 41.5-115T338 104zM207-93l-83 34 346 840 83-34zm53 851 70 130h146L372 758H260z"/><glyph glyph-name="oslashacute" unicode="ǿ" horiz-adv-x="612" d="M306-14q-74 0-133 30t-93 87-34 137v16q0 80 34 137t93 87 133 30 133-30 93-87 34-137v-16q0-80-34-137t-93-87-133-30zm0 112q58 0 96 37.5T440 243v10q0 70-37.5 107.5T306 398q-58 0-96-37.5T172 253v-10q0-70 38-107.5T306 98zM148-71 78-25l386 588 70-46zm82 623 74 148h142L340 552H230z"/><glyph glyph-name="uni0200" unicode="Ȁ" horiz-adv-x="634" d="m18 0 184 700h230L616 0H480l-38 154H192L154 0H18zm205 276h188l-85 341h-18zm-24 482-97 130h130l71-130H199zm167 0-80 130h120l54-130h-94z"/><glyph glyph-name="uni0201" unicode="ȁ" horiz-adv-x="578" d="M224-14q-53 0-95 18.5t-66.5 54T38 145t24.5 85.5 68 52T230 300h136v28q0 35-22 57.5T274 408q-47 0-70-21.5T174 331L58 370q12 38 38.5 69.5t71 51T276 510q98 0 155-49t57-142V134q0-30 28-30h40V0h-84q-37 0-61 18t-24 48v1h-19q-4-12-18-31.5T306 1t-82-15zm22 102q53 0 86.5 29.5T366 196v10H239q-35 0-55-15t-20-42 21-44 61-17zm-83 464L73 700h130l60-148H163zm163 0-68 148h118l48-148h-98z"/><glyph glyph-name="uni0202" unicode="Ȃ" horiz-adv-x="634" d="m18 0 184 700h230L616 0H480l-38 154H192L154 0H18zm205 276h188l-85 341h-18zm-72 480v6q0 68 43.5 107T317 908t122.5-39T483 762v-6H379v4q0 28-14.5 47T317 826t-47.5-19-14.5-47v-4H151z"/><glyph glyph-name="uni0203" unicode="ȃ" horiz-adv-x="578" d="M224-14q-53 0-95 18.5t-66.5 54T38 145t24.5 85.5 68 52T230 300h136v28q0 35-22 57.5T274 408q-47 0-70-21.5T174 331L58 370q12 38 38.5 69.5t71 51T276 510q98 0 155-49t57-142V134q0-30 28-30h40V0h-84q-37 0-61 18t-24 48v1h-19q-4-12-18-31.5T306 1t-82-15zm22 102q53 0 86.5 29.5T366 196v10H239q-35 0-55-15t-20-42 21-44 61-17zM115 552v6q0 68 43.5 107T281 704t122.5-39T447 558v-6H343v4q0 28-14.5 47T281 622t-47.5-19-14.5-47v-4H115z"/><glyph glyph-name="uni0204" unicode="Ȅ" horiz-adv-x="554" d="M66 0v700h450V580H198V413h290V293H198V120h324V0H66zm112 758L81 888h130l71-130H178zm167 0-80 130h120l54-130h-94z"/><glyph glyph-name="uni0205" unicode="ȅ" horiz-adv-x="577" d="M296-14q-74 0-130.5 31.5t-88 89T46 242v12q0 78 31 135.5t87 89T294 510q73 0 127-32.5t84-90T535 254v-43H174q2-51 38-83t88-32q53 0 78 23t38 51l103-54q-14-26-40.5-56.5T408 7.5 296-14zM175 305h232q-4 43-34.5 69T293 400q-51 0-81-26t-37-69zm1 247L86 700h130l60-148H176zm163 0-68 148h118l48-148h-98z"/><glyph glyph-name="uni0206" unicode="Ȇ" horiz-adv-x="554" d="M66 0v700h450V580H198V413h290V293H198V120h324V0H66zm64 756v6q0 68 43.5 107T296 908t122.5-39T462 762v-6H358v4q0 28-14.5 47T296 826t-47.5-19-14.5-47v-4H130z"/><glyph glyph-name="uni0207" unicode="ȇ" horiz-adv-x="577" d="M296-14q-74 0-130.5 31.5t-88 89T46 242v12q0 78 31 135.5t87 89T294 510q73 0 127-32.5t84-90T535 254v-43H174q2-51 38-83t88-32q53 0 78 23t38 51l103-54q-14-26-40.5-56.5T408 7.5 296-14zM175 305h232q-4 43-34.5 69T293 400q-51 0-81-26t-37-69zm-47 247v6q0 68 43.5 107T294 704t122.5-39T460 558v-6H356v4q0 28-14.5 47T294 622t-47.5-19-14.5-47v-4H128z"/><glyph glyph-name="uni0208" unicode="Ȉ" horiz-adv-x="264" d="M66 0v700h132V0H66zM14 758l-97 130H47l71-130H14zm167 0-80 130h120l54-130h-94z"/><glyph glyph-name="uni0209" unicode="ȉ" horiz-adv-x="266" d="M70 0v496h126V0H70zM15 552l-90 148H55l60-148H15zm163 0-68 148h118l48-148h-98z"/><glyph glyph-name="uni020A" unicode="Ȋ" horiz-adv-x="264" d="M66 0v700h132V0H66zM-34 756v6q0 68 43.5 107T132 908t122.5-39T298 762v-6H194v4q0 28-14.5 47T132 826t-47.5-19T70 760v-4H-34z"/><glyph glyph-name="uni020B" unicode="ȋ" horiz-adv-x="266" d="M70 0v496h126V0H70zM-33 552v6q0 68 43.5 107T133 704t122.5-39T299 558v-6H195v4q0 28-14.5 47T133 622t-47.5-19T71 556v-4H-33z"/><glyph glyph-name="uni020C" unicode="Ȍ" horiz-adv-x="676" d="M338-14q-132 0-210 72.5T50 266v168q0 135 78 207.5T338 714t210-72.5T626 434V266q0-135-78-207.5T338-14zm0 118q74 0 115 43t41 115v176q0 72-41 115t-115 43q-73 0-114.5-43T182 438V262q0-72 41.5-115T338 104zM220 758l-97 130h130l71-130H220zm167 0-80 130h120l54-130h-94z"/><glyph glyph-name="uni020D" unicode="ȍ" horiz-adv-x="612" d="M306-14q-74 0-133 30t-93 87-34 137v16q0 80 34 137t93 87 133 30 133-30 93-87 34-137v-16q0-80-34-137t-93-87-133-30zm0 112q58 0 96 37.5T440 243v10q0 70-37.5 107.5T306 398q-58 0-96-37.5T172 253v-10q0-70 38-107.5T306 98zM188 552 98 700h130l60-148H188zm163 0-68 148h118l48-148h-98z"/><glyph glyph-name="uni020E" unicode="Ȏ" horiz-adv-x="676" d="M338-14q-132 0-210 72.5T50 266v168q0 135 78 207.5T338 714t210-72.5T626 434V266q0-135-78-207.5T338-14zm0 118q74 0 115 43t41 115v176q0 72-41 115t-115 43q-73 0-114.5-43T182 438V262q0-72 41.5-115T338 104zM172 756v6q0 68 43.5 107T338 908t122.5-39T504 762v-6H400v4q0 28-14.5 47T338 826t-47.5-19-14.5-47v-4H172z"/><glyph glyph-name="uni020F" unicode="ȏ" horiz-adv-x="612" d="M306-14q-74 0-133 30t-93 87-34 137v16q0 80 34 137t93 87 133 30 133-30 93-87 34-137v-16q0-80-34-137t-93-87-133-30zm0 112q58 0 96 37.5T440 243v10q0 70-37.5 107.5T306 398q-58 0-96-37.5T172 253v-10q0-70 38-107.5T306 98zM140 552v6q0 68 43.5 107T306 704t122.5-39T472 558v-6H368v4q0 28-14.5 47T306 622t-47.5-19-14.5-47v-4H140z"/><glyph glyph-name="uni0210" unicode="Ȑ" horiz-adv-x="632" d="M66 0v700h304q66 0 115-23t76-65 27-99v-12q0-63-30-102t-74-57v-18q40-2 62-27.5t22-67.5V0H436v210q0 24-12.5 39T382 264H198V0H66zm132 384h158q47 0 73.5 25.5T456 477v10q0 42-26 67.5T356 580H198V384zm-15 374L86 888h130l71-130H183zm167 0-80 130h120l54-130h-94z"/><glyph glyph-name="uni0211" unicode="ȑ" horiz-adv-x="396" d="M70 0v496h124v-56h18q11 30 36.5 44t59.5 14h60V386h-62q-48 0-79-25.5T196 282V0H70zm28 552L8 700h130l60-148H98zm163 0-68 148h118l48-148h-98z"/><glyph glyph-name="uni0212" unicode="Ȓ" horiz-adv-x="632" d="M66 0v700h304q66 0 115-23t76-65 27-99v-12q0-63-30-102t-74-57v-18q40-2 62-27.5t22-67.5V0H436v210q0 24-12.5 39T382 264H198V0H66zm132 384h158q47 0 73.5 25.5T456 477v10q0 42-26 67.5T356 580H198V384zm-63 372v6q0 68 43.5 107T301 908t122.5-39T467 762v-6H363v4q0 28-14.5 47T301 826t-47.5-19-14.5-47v-4H135z"/><glyph glyph-name="uni0213" unicode="ȓ" horiz-adv-x="396" d="M70 0v496h124v-56h18q11 30 36.5 44t59.5 14h60V386h-62q-48 0-79-25.5T196 282V0H70zM50 552v6q0 68 43.5 107T216 704t122.5-39T382 558v-6H278v4q0 28-14.5 47T216 622t-47.5-19-14.5-47v-4H50z"/><glyph glyph-name="uni0214" unicode="Ȕ" horiz-adv-x="672" d="M336-14q-86 0-147.5 31.5t-94 90T62 246v454h132V242q0-64 36.5-101T336 104t105.5 37T478 242v458h132V246q0-80-32.5-138.5t-94-90T336-14zM218 758l-97 130h130l71-130H218zm167 0-80 130h120l54-130h-94z"/><glyph glyph-name="uni0215" unicode="ȕ" horiz-adv-x="616" d="M259-8q-58 0-101.5 26.5T90 92 66 200v296h126V210q0-56 27.5-84T298 98q58 0 90 38.5T420 244v252h126V0H422v65h-18q-12-25-45-49T259-8zm-71 560L98 700h130l60-148H188zm163 0-68 148h118l48-148h-98z"/><glyph glyph-name="uni0216" unicode="Ȗ" horiz-adv-x="672" d="M336-14q-86 0-147.5 31.5t-94 90T62 246v454h132V242q0-64 36.5-101T336 104t105.5 37T478 242v458h132V246q0-80-32.5-138.5t-94-90T336-14zM170 756v6q0 68 43.5 107T336 908t122.5-39T502 762v-6H398v4q0 28-14.5 47T336 826t-47.5-19-14.5-47v-4H170z"/><glyph glyph-name="uni0217" unicode="ȗ" horiz-adv-x="616" d="M259-8q-58 0-101.5 26.5T90 92 66 200v296h126V210q0-56 27.5-84T298 98q58 0 90 38.5T420 244v252h126V0H422v65h-18q-12-25-45-49T259-8zM140 552v6q0 68 43.5 107T306 704t122.5-39T472 558v-6H368v4q0 28-14.5 47T306 622t-47.5-19-14.5-47v-4H140z"/><glyph glyph-name="uni0218" unicode="Ș" horiz-adv-x="606" d="M309-14q-81 0-143 29T69 98 34 228v28h130v-28q0-63 39-94.5T309 102q68 0 101.5 27t33.5 69q0 29-16.5 47t-48 29.5T303 296l-23 5q-72 16-123.5 40.5t-79 64.5T50 510t30.5 109.5 86 70T297 714t133.5-25.5 92-76T556 486v-30H426v30q0 40-15.5 64.5t-44.5 36-69 11.5q-60 0-88.5-22.5T180 514q0-26 13.5-44t40.5-30 69-21l23-5q75-16 130.5-41t86.5-66 31-105-32.5-112.5-92-76T309-14zm-54-278v59h30q23 0 32 9t9 29v6h-13q-35 0-55 19t-20 50q0 32 21 51t55 19q35 0 56.5-20.5T392-130v-68q0-45-26.5-69.5T288-292h-33z"/><glyph glyph-name="uni0219" unicode="ș" horiz-adv-x="524" d="M276-14q-97 0-159 42T42 148l116 30q7-35 23.5-55t41-28.5T276 86q44 0 65 15.5t21 38.5-20 35.5-64 20.5l-28 5q-52 10-95 27.5T86 277t-26 80q0 74 54 113.5T256 510q83 0 138-37t72-97l-117-36q-8 38-32.5 54T256 410t-55-12.5-19-34.5q0-24 20-35.5t54-17.5l28-5q56-10 101.5-26.5t72-47T484 149q0-78-56.5-120.5T276-14zm-71-278v59h30q23 0 32 9t9 29v6h-13q-35 0-55 19t-20 50q0 32 21 51t55 19q35 0 56.5-20.5T342-130v-68q0-45-26.5-69.5T238-292h-33z"/><glyph glyph-name="uni021A" unicode="Ț" horiz-adv-x="588" d="M228 0v580H24v120h540V580H360V0H228zm6-292v59h30q23 0 32 9t9 29v6h-13q-35 0-55 19t-20 50q0 32 21 51t55 19q35 0 56.5-20.5T371-130v-68q0-45-26.5-69.5T267-292h-33z"/><glyph glyph-name="uni021B" unicode="ț" horiz-adv-x="456" d="M260 0q-49 0-79.5 30.5T150 112v280H26v104h124v154h126V496h136V392H276V134q0-30 28-30h96V0H260zm-88-292v59h30q23 0 32 9t9 29v6h-13q-35 0-55 19t-20 50q0 32 21 51t55 19q35 0 56.5-20.5T309-130v-68q0-45-26.5-69.5T205-292h-33z"/><glyph glyph-name="uni022A" unicode="Ȫ" horiz-adv-x="676" d="M338-14q-132 0-210 72.5T50 266v168q0 135 78 207.5T338 714t210-72.5T626 434V266q0-135-78-207.5T338-14zm0 118q74 0 115 43t41 115v176q0 72-41 115t-115 43q-73 0-114.5-43T182 438V262q0-72 41.5-115T338 104zm111 650q-34 0-57.5 21.5T368 834t23.5 58.5T449 914q35 0 58-21.5t23-58.5-23-58.5-58-21.5zm-222 0q-34 0-57.5 21.5T146 834t23.5 58.5T227 914q35 0 58-21.5t23-58.5-23-58.5-58-21.5zm-53 206v100h328V960H174z"/><glyph glyph-name="uni022B" unicode="ȫ" horiz-adv-x="612" d="M306-14q-74 0-133 30t-93 87-34 137v16q0 80 34 137t93 87 133 30 133-30 93-87 34-137v-16q0-80-34-137t-93-87-133-30zm0 112q58 0 96 37.5T440 243v10q0 70-37.5 107.5T306 398q-58 0-96-37.5T172 253v-10q0-70 38-107.5T306 98zm103 452q-34 0-57.5 21.5T328 630t23.5 58.5T409 710q35 0 58-21.5t23-58.5-23-58.5-58-21.5zm-206 0q-34 0-57.5 21.5T122 630t23.5 58.5T203 710q35 0 58-21.5t23-58.5-23-58.5-58-21.5zm-61 204v100h328V754H142z"/><glyph glyph-name="uni022C" unicode="Ȭ" horiz-adv-x="676" d="M338-14q-132 0-210 72.5T50 266v168q0 135 78 207.5T338 714t210-72.5T626 434V266q0-135-78-207.5T338-14zm0 118q74 0 115 43t41 115v176q0 72-41 115t-115 43q-73 0-114.5-43T182 438V262q0-72 41.5-115T338 104zM221 746l-64 51 32 43q18 24 38.5 37t48.5 13q24 0 39-7t32-21q10-8 20.5-16.5T393 837q16 0 26 10t19 21l17 22 64-51-32-43q-18-24-38.5-37T400 746q-24 0-39 7t-32 21q-10 8-20.5 16.5T283 799q-16 0-26-10t-19-21zm-47 180v100h328V926H174z"/><glyph glyph-name="uni022D" unicode="ȭ" horiz-adv-x="612" d="M306-14q-74 0-133 30t-93 87-34 137v16q0 80 34 137t93 87 133 30 133-30 93-87 34-137v-16q0-80-34-137t-93-87-133-30zm0 112q58 0 96 37.5T440 243v10q0 70-37.5 107.5T306 398q-58 0-96-37.5T172 253v-10q0-70 38-107.5T306 98zM194 542l-69 44 33 57q15 26 36.5 37.5T241 692q22 0 38.5-8.5T312 661q9-8 19.5-16t23.5-8q15 0 24.5 10t16.5 21l16 24 69-44-33-57q-15-25-36-37t-47-12q-22 0-38.5 8.5T294 573q-9 8-19 16t-24 8q-15 0-24-10t-17-21zm-52 192v100h328V734H142z"/><glyph glyph-name="uni0230" unicode="Ȱ" horiz-adv-x="676" d="M338-14q-132 0-210 72.5T50 266v168q0 135 78 207.5T338 714t210-72.5T626 434V266q0-135-78-207.5T338-14zm0 118q74 0 115 43t41 115v176q0 72-41 115t-115 43q-73 0-114.5-43T182 438V262q0-72 41.5-115T338 104zm0 650q-34 0-57.5 22T257 834t23.5 58 57.5 22q35 0 58-22t23-58-23-58-58-22zM174 950v100h328V950H174z"/><glyph glyph-name="uni0231" unicode="ȱ" horiz-adv-x="612" d="M306-14q-74 0-133 30t-93 87-34 137v16q0 80 34 137t93 87 133 30 133-30 93-87 34-137v-16q0-80-34-137t-93-87-133-30zm0 112q58 0 96 37.5T440 243v10q0 70-37.5 107.5T306 398q-58 0-96-37.5T172 253v-10q0-70 38-107.5T306 98zm0 456q-34 0-57.5 22T225 634t23.5 58 57.5 22q35 0 58-22t23-58-23-58-58-22zM142 754v100h328V754H142z"/><glyph glyph-name="uni0232" unicode="Ȳ" horiz-adv-x="624" d="M246 0v241L8 700h147l148-300h18l148 300h147L378 241V0H246zm-98 762v100h328V762H148z"/><glyph glyph-name="uni0233" unicode="ȳ" horiz-adv-x="616" d="M124-200v110h270q28 0 28 30V65h-18q-8-17-25-34T333 3 259-8q-58 0-101.5 26.5T90 92 66 200v296h126V210q0-56 27.5-84T298 98q58 0 90 38.5T420 244v252h126V-88q0-51-30-81.5T436-200H124zm18 766v100h328V566H142z"/><glyph glyph-name="uni0237" unicode="ȷ" horiz-adv-x="268" d="M-22-200v108h66q28 0 28 30v558h126V-88q0-51-30-81.5T88-200H-22z"/><glyph glyph-name="uni0243" unicode="Ƀ" horiz-adv-x="664" d="M46 0v116h92v468H46v116h360q64 0 111.5-21.5t74-61T618 523v-10q0-48-18-78.5t-42.5-47T511 364v-18q22-6 48-22.5t44.5-47.5 18.5-81v-10q0-58-27-99.5T520.5 22 410 0H46zm224 120h124q43 0 69.5 21t26.5 60v10q0 39-26 60t-70 21H270V120zm0 292h122q41 0 67.5 21t26.5 58v10q0 38-26 58.5T392 580H270V412zM46 160v90h340v-90H46z"/><glyph glyph-name="uni0251" unicode="ɑ" horiz-adv-x="660" d="M270-14q-60 0-111 29.5T77 102 46 240v16q0 81 31 138t82.5 86.5T270 510q68 0 103.5-22.5T426 436h18v60h124V134q0-30 28-30h40V0H536q-36 0-59.5 20T453 75v1h-18q-17-37-54.5-63.5T270-14zm38 110q59 0 97.5 37.5T444 243v10q0 72-39 109.5T308 400t-97-37.5T172 253v-10q0-72 39-109.5T308 96z"/><glyph glyph-name="uni0259" unicode="ə" horiz-adv-x="577" d="M281 510q74 0 130.5-31.5t88-89T531 254v-12q0-78-31-135.5t-87-89T283-14q-73 0-127 32.5t-84 90T42 242v43h361q-2 51-38 83t-88 32q-53 0-78-23t-38-51L58 380q14 26 40.5 56.5t70.5 52T281 510zm121-319H170q4-43 34.5-69T284 96q51 0 81 26t37 69z"/><glyph glyph-name="uni02B9" unicode="ʹ" horiz-adv-x="232" d="m48 420 11 280h129l-40-280H48z"/><glyph glyph-name="uni02BA" unicode="ʺ" horiz-adv-x="416" d="m230 420 17 280h125l-42-280H230zm-182 0 3 280h125l-32-280H48z"/><glyph glyph-name="uni02BB" unicode="ʻ" horiz-adv-x="294" d="M215 714v-68h-39q-46 0-46-46v-32h17q40 0 66.5-24t26.5-61q0-40-26.5-65T147 393q-41 0-67 25.5T54 487v115q0 112 112 112h49z"/><glyph glyph-name="uni02BC" unicode="ʼ" horiz-adv-x="294" d="M79 393v68h39q46 0 46 46v32h-17q-40 0-66.5 24T54 624q0 40 26.5 65t66.5 25q41 0 67-25.5t26-68.5V505q0-112-112-112H79z"/><glyph glyph-name="uni02BE" unicode="ʾ" horiz-adv-x="240" d="M48 476v84q30 0 49 15.5t19 44.5-19 44.5T48 680v84q66-1 111-38t45-106q0-46-21.5-78T126 493t-78-17z"/><glyph glyph-name="uni02BF" unicode="ʿ" horiz-adv-x="240" d="M192 476q-42 0-77.5 17t-57 49T36 620q0 69 45 106t111 38v-84q-30 0-49-15.5T124 620t19-44.5 49-15.5v-84z"/><glyph glyph-name="circumflex" unicode="ˆ" horiz-adv-x="464" d="m40 552 117 148h150l117-148H297l-56 74h-18l-56-74H40z"/><glyph glyph-name="caron" unicode="ˇ" horiz-adv-x="464" d="M157 552 40 700h127l56-74h18l56 74h127L307 552H157z"/><glyph glyph-name="uni02C8" unicode="ˈ" horiz-adv-x="188" d="M40 552v230h108V552H40z"/><glyph glyph-name="uni02C9" unicode="ˉ" horiz-adv-x="408" d="M40 566v100h328V566H40z"/><glyph glyph-name="uni02CA" unicode="ˊ" horiz-adv-x="296" d="m40 552 74 148h142L150 552H40z"/><glyph glyph-name="uni02CB" unicode="ˋ" horiz-adv-x="296" d="M146 552 40 700h142l74-148H146z"/><glyph glyph-name="uni02CC" unicode="ˌ" horiz-adv-x="188" d="M40-286v230h108v-230H40z"/><glyph glyph-name="breve" unicode="˘" horiz-adv-x="412" d="M206 548q-79 0-122.5 39T40 694v6h104v-4q0-28 14.5-47t47.5-19 47.5 19 14.5 47v4h104v-6q0-68-43.5-107T206 548z"/><glyph glyph-name="dotaccent" unicode="˙" horiz-adv-x="242" d="M121 554q-34 0-57.5 22T40 634t23.5 58 57.5 22q35 0 58-22t23-58-23-58-58-22z"/><glyph glyph-name="ring" unicode="˚" horiz-adv-x="288" d="M144 539q-43 0-73.5 28.5T40 639t30 71.5 74 28.5 74-28 30-72q0-46-31.5-73T144 539zm0 70q14 0 22 8.5t8 21.5-8 21.5-22 8.5q-13 0-21.5-8.5T114 639t8.5-21.5T144 609z"/><glyph glyph-name="ogonek" unicode="˛" horiz-adv-x="238" d="M118-170q-34 0-56 19t-22 50q0 15 2.5 32T49-36l13 56h81l-10-55q-1-7-2.5-14.5T129-64q0-22 23-22h46v-84h-80z"/><glyph glyph-name="tilde" unicode="˜" horiz-adv-x="436" d="m109 542-69 44 33 57q15 26 36.5 37.5T156 692q22 0 38.5-8.5T227 661q9-8 19.5-16t23.5-8q15 0 24.5 10t16.5 21l16 24 69-44-33-57q-15-25-36-37t-47-12q-22 0-38.5 8.5T209 573q-9 8-19 16t-24 8q-15 0-24-10t-17-21z"/><glyph glyph-name="hungarumlaut" unicode="˝" horiz-adv-x="431" d="m201 552 60 148h130l-90-148H201zm-161 0 48 148h118l-68-148H40z"/><glyph glyph-name="gravecomb" unicode="̀" d="M146 552 40 700h142l74-148H146z"/><glyph glyph-name="acutecomb" unicode="́" d="m40 552 74 148h142L150 552H40z"/><glyph glyph-name="uni0302" unicode="̂" d="m40 552 117 148h150l117-148H297l-56 74h-18l-56-74H40z"/><glyph glyph-name="tildecomb" unicode="̃" d="m109 542-69 44 33 57q15 26 36.5 37.5T156 692q22 0 38.5-8.5T227 661q9-8 19.5-16t23.5-8q15 0 24.5 10t16.5 21l16 24 69-44-33-57q-15-25-36-37t-47-12q-22 0-38.5 8.5T209 573q-9 8-19 16t-24 8q-15 0-24-10t-17-21z"/><glyph glyph-name="uni0304" unicode="̄" d="M40 566v100h328V566H40z"/><glyph glyph-name="uni0306" unicode="̆" d="M206 548q-79 0-122.5 39T40 694v6h104v-4q0-28 14.5-47t47.5-19 47.5 19 14.5 47v4h104v-6q0-68-43.5-107T206 548z"/><glyph glyph-name="uni0307" unicode="̇" d="M121 554q-34 0-57.5 22T40 634t23.5 58 57.5 22q35 0 58-22t23-58-23-58-58-22z"/><glyph glyph-name="uni0308" unicode="̈" d="M327 550q-34 0-57.5 21.5T246 630t23.5 58.5T327 710q35 0 58-21.5t23-58.5-23-58.5-58-21.5zm-206 0q-34 0-57.5 21.5T40 630t23.5 58.5T121 710q35 0 58-21.5t23-58.5-23-58.5-58-21.5z"/><glyph glyph-name="hookabovecomb" unicode="̉" d="m113 542-5 80h38q26 0 37.5 7.5T195 651q0 16-13 23.5t-33 7.5q-27 0-48.5-5T60 666l-20 75q22 8 52.5 13.5T155 760q34 0 64.5-10t49.5-30.5 19-53.5q0-40-26.5-62.5T197 581l3-39h-87z"/><glyph glyph-name="uni030A" unicode="̊" d="M144 539q-43 0-73.5 28.5T40 639t30 71.5 74 28.5 74-28 30-72q0-46-31.5-73T144 539zm0 70q14 0 22 8.5t8 21.5-8 21.5-22 8.5q-13 0-21.5-8.5T114 639t8.5-21.5T144 609z"/><glyph glyph-name="uni030B" unicode="̋" d="m201 552 60 148h130l-90-148H201zm-161 0 48 148h118l-68-148H40z"/><glyph glyph-name="uni030C" unicode="̌" d="M157 552 40 700h127l56-74h18l56 74h127L307 552H157z"/><glyph glyph-name="uni030F" unicode="̏" d="M130 552 40 700h130l60-148H130zm163 0-68 148h118l48-148h-98z"/><glyph glyph-name="uni0311" unicode="̑" d="M40 552v6q0 68 43.5 107T206 704t122.5-39T372 558v-6H268v4q0 28-14.5 47T206 622t-47.5-19-14.5-47v-4H40z"/><glyph glyph-name="uni0312" unicode="̒" d="M177 788v-59h-30q-22 0-31.5-9t-9.5-29v-6h13q35 0 55-19t20-50q0-32-20.5-51T118 546q-34 0-56 20.5T40 626v68q0 45 26.5 69.5T144 788h33z"/><glyph glyph-name="uni031B" unicode="̛" d="M40 406v90h9q20 0 30 10.5T89 538v68h119l-1-68q-1-67-35.5-99.5T69 406H40z"/><glyph glyph-name="dotbelowcomb" unicode="̣" d="M121-214q-34 0-57.5 22T40-134t23.5 58T121-54q35 0 58-22t23-58-23-58-58-22z"/><glyph glyph-name="uni0324" unicode="̤" d="M327-214q-34 0-57.5 21.5T246-134t23.5 58.5T327-54q35 0 58-21.5t23-58.5-23-58.5-58-21.5zm-206 0q-34 0-57.5 21.5T40-134t23.5 58.5T121-54q35 0 58-21.5t23-58.5-23-58.5-58-21.5z"/><glyph glyph-name="uni0326" unicode="̦" d="M57-292v59h30q23 0 32 9t9 29v6h-13q-35 0-55 19t-20 50q0 32 21 51t55 19q35 0 56.5-20.5T194-130v-68q0-45-26.5-69.5T90-292H57z"/><glyph glyph-name="uni0327" unicode="̧" d="M155-214q-32 0-62.5 6T40-195l20 75q19-6 40.5-11t48.5-5q20 0 33 7t13 22q0 14-11.5 20.5T146-80h-38l7 100h86l-4-59q38 0 64.5-21t26.5-62q0-32-19-52.5t-49.5-30T155-214z"/><glyph glyph-name="uni0328" unicode="̨" d="M118-170q-34 0-56 19t-22 50q0 15 2.5 32T49-36l13 56h81l-10-55q-1-7-2.5-14.5T129-64q0-22 23-22h46v-84h-80z"/><glyph glyph-name="uni032E" unicode="̮" d="M206-214q-79 0-122.5 39T40-68v6h104v-4q0-28 14.5-47t47.5-19 47.5 19T268-66v4h104v-6q0-68-43.5-107T206-214z"/><glyph glyph-name="uni0331" unicode="̱" d="M40-170v100h328v-100H40z"/><glyph glyph-name="uni0335" unicode="̵" d="M40 556v70h340v-70H40z"/><glyph glyph-name="uni0336" unicode="̶" d="M40 506v90h680v-90H40z"/><glyph glyph-name="uni0337" unicode="̷" d="M110-71 40-25l386 588 70-46z"/><glyph glyph-name="uni0338" unicode="̸" d="M123-93 40-59l346 840 83-34z"/><glyph glyph-name="uni0394" unicode="Δ" horiz-adv-x="620" d="m26 0 173 700h222L594 0H26zm156 116h256L319 597h-18z"/><glyph glyph-name="uni03A9" unicode="Ω" horiz-adv-x="620" d="M40 0v114h98v18q-37 23-61.5 66T52 314v122q0 84 31 146.5t88.5 97T310 714t139-34.5 88.5-97T568 436V314q0-74-24-116.5T482 132v-18h98V0H346v144q42 11 62 34t26 60.5 6 93.5v106q0 80-35 120t-95 40-95-40-35-120V332q0-56 6-93.5t26-60.5 62-34V0H40z"/><glyph glyph-name="pi" unicode="π" horiz-adv-x="578" d="M104 0v392H26v104h514V392h-78V134q0-30 28-30h50V0h-94q-49 0-79.5 30.5T336 112v280H230V0H104z"/><glyph glyph-name="uni0E3F" unicode="฿" horiz-adv-x="722" d="M46 0v116h92v468H46v116h418q64 0 111.5-21.5t74-61T676 523v-10q0-48-18-78.5t-42.5-47T569 364v-18q22-6 48-22.5t44.5-47.5 18.5-81v-10q0-58-27-99.5T578.5 22 468 0H46zm224 120h182q43 0 69.5 21t26.5 60v10q0 39-26 60t-70 21H270V120zm0 292h180q41 0 67.5 21t26.5 58v10q0 38-26 58.5T450 580H270V412zm192-528H342v932h120v-932z"/><glyph glyph-name="uni1E08" unicode="Ḉ" horiz-adv-x="644" d="M332-14q-130 0-206 72.5T50 266v168q0 135 76 207.5T332 714q129 0 199.5-70.5T602 450v-6H472v10q0 62-34.5 102T332 596q-70 0-110-43t-40-117V264q0-73 40-116.5T332 104q71 0 105.5 40.5T472 246v18h130v-14q0-123-70.5-193.5T332-14zm0-200q-32 0-62.5 6T217-195l20 75q19-6 40.5-11t48.5-5q20 0 33 7t13 22q0 14-11.5 20.5T323-80h-38l7 100h86l-4-59q38 0 64.5-21t26.5-62q0-32-19-52.5t-49.5-30T332-214zm-78 972 70 130h146L366 758H254z"/><glyph glyph-name="uni1E09" unicode="ḉ" horiz-adv-x="586" d="M303-14q-72 0-130.5 30T80 103 46 241v14q0 81 34 138t92.5 87T303 510q71 0 122-25t82.5-68.5T549 318l-122-26q-4 30-18 54t-39.5 38-63.5 14-68.5-16.5-48-49T172 253v-10q0-47 17.5-79.5t48-49T306 98q57 0 86.5 29.5T430 205l122-29q-13-53-44.5-96.5T425 11 303-14zm0-200q-32 0-62.5 6T188-195l20 75q19-6 40.5-11t48.5-5q20 0 33 7t13 22q0 14-11.5 20.5T294-80h-38l7 100h86l-4-59q38 0 64.5-21t26.5-62q0-32-19-52.5t-49.5-30T303-214zm-76 766 74 148h142L337 552H227z"/><glyph glyph-name="uni1E0C" unicode="Ḍ" horiz-adv-x="666" d="M46 0v116h92v468H46v116h288q141 0 214.5-71.5T622 416V284q0-141-73.5-212.5T334 0H46zm224 120h66q80 0 117 42t37 118v140q0 77-37 118.5T336 580h-66V120zm50-334q-34 0-57.5 22T239-134t23.5 58T320-54q35 0 58-22t23-58-23-58-58-22z"/><glyph glyph-name="uni1E0D" unicode="ḍ" horiz-adv-x="638" d="M270-14q-59 0-110.5 29.5T77 102 46 240v16q0 81 31 138t82 86.5T270 510q45 0 75.5-10.5T395 473t29-34h18v261h126V0H444v60h-18q-17-28-52.5-51T270-14zm38 110q58 0 97 37.5T444 243v10q0 72-38.5 109.5T308 400q-58 0-97-37.5T172 253v-10q0-72 39-109.5T308 96zm16-310q-34 0-57.5 22T243-134t23.5 58T324-54q35 0 58-22t23-58-23-58-58-22z"/><glyph glyph-name="uni1E0E" unicode="Ḏ" horiz-adv-x="666" d="M46 0v116h92v468H46v116h288q141 0 214.5-71.5T622 416V284q0-141-73.5-212.5T334 0H46zm224 120h66q80 0 117 42t37 118v140q0 77-37 118.5T336 580h-66V120zM156-170v100h328v-100H156z"/><glyph glyph-name="uni1E0F" unicode="ḏ" horiz-adv-x="638" d="M270-14q-59 0-110.5 29.5T77 102 46 240v16q0 81 31 138t82 86.5T270 510q45 0 75.5-10.5T395 473t29-34h18v261h126V0H444v60h-18q-17-28-52.5-51T270-14zm38 110q58 0 97 37.5T444 243v10q0 72-38.5 109.5T308 400q-58 0-97-37.5T172 253v-10q0-72 39-109.5T308 96zM160-170v100h328v-100H160z"/><glyph glyph-name="uni1E14" unicode="Ḕ" horiz-adv-x="554" d="M66 0v700h450V580H198V413h290V293H198V120h324V0H66zm66 762v100h328V762H132zm130 150-104 130h146l70-130H262z"/><glyph glyph-name="uni1E15" unicode="ḕ" horiz-adv-x="577" d="M296-14q-74 0-130.5 31.5t-88 89T46 242v12q0 78 31 135.5t87 89T294 510q73 0 127-32.5t84-90T535 254v-43H174q2-51 38-83t88-32q53 0 78 23t38 51l103-54q-14-26-40.5-56.5T408 7.5 296-14zM175 305h232q-4 43-34.5 69T293 400q-51 0-81-26t-37-69zm-45 261v100h328V566H130zm130 158L154 872h142l74-148H260z"/><glyph glyph-name="uni1E16" unicode="Ḗ" horiz-adv-x="554" d="M66 0v700h450V580H198V413h290V293H198V120h324V0H66zm66 762v100h328V762H132zm86 150 70 130h146L330 912H218z"/><glyph glyph-name="uni1E17" unicode="ḗ" horiz-adv-x="577" d="M296-14q-74 0-130.5 31.5t-88 89T46 242v12q0 78 31 135.5t87 89T294 510q73 0 127-32.5t84-90T535 254v-43H174q2-51 38-83t88-32q53 0 78 23t38 51l103-54q-14-26-40.5-56.5T408 7.5 296-14zM175 305h232q-4 43-34.5 69T293 400q-51 0-81-26t-37-69zm-45 261v100h328V566H130zm88 158 74 148h142L328 724H218z"/><glyph glyph-name="uni1E1C" unicode="Ḝ" horiz-adv-x="554" d="M66 0v700h450V580H198V413h290V293H198V120h324V0H66zm228-214q-32 0-62.5 6T179-195l20 75q19-6 40.5-11t48.5-5q20 0 33 7t13 22q0 14-11.5 20.5T285-80h-38l7 100h86l-4-59q38 0 64.5-21t26.5-62q0-32-19-52.5t-49.5-30T294-214zm2 966q-77 0-120.5 35.5T132 884v4h102v-4q0-24 14.5-41t47.5-17 47.5 17 14.5 41v4h102v-4q0-61-43.5-96.5T296 752z"/><glyph glyph-name="uni1E1D" unicode="ḝ" horiz-adv-x="577" d="M296-14q-74 0-130.5 31.5t-88 89T46 242v12q0 78 31 135.5t87 89T294 510q73 0 127-32.5t84-90T535 254v-43H174q2-51 38-83t88-32q53 0 78 23t38 51l103-54q-14-26-40.5-56.5T408 7.5 296-14zM175 305h232q-4 43-34.5 69T293 400q-51 0-81-26t-37-69zm121-519q-32 0-62.5 6T181-195l20 75q19-6 40.5-11t48.5-5q20 0 33 7t13 22q0 14-11.5 20.5T287-80h-38l7 100h86l-4-59q38 0 64.5-21t26.5-62q0-32-19-52.5t-49.5-30T296-214zm-2 762q-79 0-122.5 39T128 694v6h104v-4q0-28 14.5-47t47.5-19 47.5 19 14.5 47v4h104v-6q0-68-43.5-107T294 548z"/><glyph glyph-name="uni1E20" unicode="Ḡ" horiz-adv-x="662" d="M308-14q-72 0-130.5 32.5t-93 95T50 266v168q0 135 76 207.5T332 714q129 0 199.5-68.5T602 460v-4H472v8q0 37-15.5 67T410 578.5 332 596q-70 0-110-43t-40-117V264q0-73 40-117.5T334 102t105 38 33 96v10H306v112h296V0H480v67h-18q-7-17-22.5-36T393-1t-85-13zM171 762v100h328V762H171z"/><glyph glyph-name="uni1E21" unicode="ḡ" horiz-adv-x="638" d="M46 246v16q0 78 31 133.5t82.5 85T272 510q68 0 103-24t51-50h18v60h124V-88q0-51-30-81.5T458-200H126v110h288q28 0 28 30V69h-18q-10-16-28-32.5T348 9 272-2q-61 0-112.5 29.5t-82.5 85T46 246zm262-138q58 0 97 37t39 104v10q0 68-38.5 104.5T308 400q-58 0-97-36.5T172 259v-10q0-67 39-104t97-37zM164 566v100h328V566H164z"/><glyph glyph-name="uni1E24" unicode="Ḥ" horiz-adv-x="656" d="M66 0v700h132V411h260v289h132V0H458v291H198V0H66zm262-214q-34 0-57.5 22T247-134t23.5 58T328-54q35 0 58-22t23-58-23-58-58-22z"/><glyph glyph-name="uni1E25" unicode="ḥ" horiz-adv-x="616" d="M70 0v700h126V435h18q8 16 25 32t45.5 26.5T357 504q58 0 101.5-26.5t67.5-73T550 296V0H424v286q0 56-27.5 84T318 398q-58 0-90-38.5T196 252V0H70zm240-214q-34 0-57.5 22T229-134t23.5 58T310-54q35 0 58-22t23-58-23-58-58-22z"/><glyph glyph-name="uni1E2A" unicode="Ḫ" horiz-adv-x="656" d="M66 0v700h132V411h260v289h132V0H458v291H198V0H66zm262-214q-79 0-122.5 39T162-68v6h104v-4q0-28 14.5-47t47.5-19 47.5 19T390-66v4h104v-6q0-68-43.5-107T328-214z"/><glyph glyph-name="uni1E2B" unicode="ḫ" horiz-adv-x="616" d="M70 0v700h126V435h18q8 16 25 32t45.5 26.5T357 504q58 0 101.5-26.5t67.5-73T550 296V0H424v286q0 56-27.5 84T318 398q-58 0-90-38.5T196 252V0H70zm240-214q-79 0-122.5 39T144-68v6h104v-4q0-28 14.5-47t47.5-19 47.5 19T372-66v4h104v-6q0-68-43.5-107T310-214z"/><glyph glyph-name="uni1E2E" unicode="Ḯ" horiz-adv-x="264" d="M66 0v700h132V0H66zm177 754q-34 0-57.5 21.5T162 834t23.5 58.5T243 914q35 0 58-21.5t23-58.5-23-58.5-58-21.5zm-222 0q-34 0-57.5 21.5T-60 834t23.5 58.5T21 914q35 0 58-21.5t23-58.5-23-58.5T21 754zm33 202 70 130h146L166 956H54z"/><glyph glyph-name="uni1E2F" unicode="ḯ" horiz-adv-x="266" d="M70 0v496h126V0H70zm166 550q-34 0-57.5 21.5T155 630t23.5 58.5T236 710q35 0 58-21.5t23-58.5-23-58.5-58-21.5zm-206 0q-34 0-57.5 21.5T-51 630t23.5 58.5T30 710q35 0 58-21.5t23-58.5-23-58.5T30 550zm27 190 74 148h142L167 740H57z"/><glyph glyph-name="uni1E36" unicode="Ḷ" horiz-adv-x="542" d="M66 0v700h132V120h320V0H66zm226-214q-34 0-57.5 22T211-134t23.5 58T292-54q35 0 58-22t23-58-23-58-58-22z"/><glyph glyph-name="uni1E37" unicode="ḷ" horiz-adv-x="266" d="M70 0v700h126V0H70zm63-214q-34 0-57.5 22T52-134t23.5 58T133-54q35 0 58-22t23-58-23-58-58-22z"/><glyph glyph-name="uni1E38" unicode="Ḹ" horiz-adv-x="542" d="M66 0v700h132V120h320V0H66zm226-214q-34 0-57.5 22T211-134t23.5 58T292-54q35 0 58-22t23-58-23-58-58-22zM-32 762v100h328V762H-32z"/><glyph glyph-name="uni1E39" unicode="ḹ" horiz-adv-x="266" d="M70 0v700h126V0H70zm63-214q-34 0-57.5 22T52-134t23.5 58T133-54q35 0 58-22t23-58-23-58-58-22zM-31 762v100h328V762H-31z"/><glyph glyph-name="uni1E3A" unicode="Ḻ" horiz-adv-x="542" d="M66 0v700h132V120h320V0H66zm62-170v100h328v-100H128z"/><glyph glyph-name="uni1E3B" unicode="ḻ" horiz-adv-x="266" d="M70 0v700h126V0H70zM-31-170v100h328v-100H-31z"/><glyph glyph-name="uni1E42" unicode="Ṃ" horiz-adv-x="882" d="M66 0v700h245L432 90h18l121 610h245V0H688v603h-18L550 0H332L212 603h-18V0H66zm375-214q-34 0-57.5 22T360-134t23.5 58T441-54q35 0 58-22t23-58-23-58-58-22z"/><glyph glyph-name="uni1E43" unicode="ṃ" horiz-adv-x="854" d="M70 0v496h124v-54h18q13 25 43 43.5t79 18.5q53 0 85-20.5t49-53.5h18q17 32 48 53t88 21q46 0 83.5-19.5t60-59T788 326V0H662v317q0 41-21 61.5T582 399q-43 0-66.5-27.5T492 293V0H366v317q0 41-21 61.5T286 399q-43 0-66.5-27.5T196 293V0H70zm359-214q-34 0-57.5 22T348-134t23.5 58T429-54q35 0 58-22t23-58-23-58-58-22z"/><glyph glyph-name="uni1E44" unicode="Ṅ" horiz-adv-x="670" d="M66 0v700h251L456 90h18v610h130V0H353L214 610h-18V0H66zm268 754q-34 0-57.5 22T253 834t23.5 58 57.5 22q35 0 58-22t23-58-23-58-58-22z"/><glyph glyph-name="uni1E45" unicode="ṅ" horiz-adv-x="616" d="M70 0v496h124v-65h18q12 26 45 49.5T357 504q58 0 101.5-26.5t67.5-73T550 296V0H424v286q0 56-27.5 84T318 398q-58 0-90-38.5T196 252V0H70zm233 554q-34 0-57.5 22T222 634t23.5 58 57.5 22q35 0 58-22t23-58-23-58-58-22z"/><glyph glyph-name="uni1E46" unicode="Ṇ" horiz-adv-x="670" d="M66 0v700h251L456 90h18v610h130V0H353L214 610h-18V0H66zm270-214q-34 0-57.5 22T255-134t23.5 58T336-54q35 0 58-22t23-58-23-58-58-22z"/><glyph glyph-name="uni1E47" unicode="ṇ" horiz-adv-x="616" d="M70 0v496h124v-65h18q12 26 45 49.5T357 504q58 0 101.5-26.5t67.5-73T550 296V0H424v286q0 56-27.5 84T318 398q-58 0-90-38.5T196 252V0H70zm240-214q-34 0-57.5 22T229-134t23.5 58T310-54q35 0 58-22t23-58-23-58-58-22z"/><glyph glyph-name="uni1E48" unicode="Ṉ" horiz-adv-x="670" d="M66 0v700h251L456 90h18v610h130V0H353L214 610h-18V0H66zm106-170v100h328v-100H172z"/><glyph glyph-name="uni1E49" unicode="ṉ" horiz-adv-x="616" d="M70 0v496h124v-65h18q12 26 45 49.5T357 504q58 0 101.5-26.5t67.5-73T550 296V0H424v286q0 56-27.5 84T318 398q-58 0-90-38.5T196 252V0H70zm76-170v100h328v-100H146z"/><glyph glyph-name="uni1E4C" unicode="Ṍ" horiz-adv-x="676" d="M338-14q-132 0-210 72.5T50 266v168q0 135 78 207.5T338 714t210-72.5T626 434V266q0-135-78-207.5T338-14zm0 118q74 0 115 43t41 115v176q0 72-41 115t-115 43q-73 0-114.5-43T182 438V262q0-72 41.5-115T338 104zM221 746l-64 51 32 43q18 24 38.5 37t48.5 13q24 0 39-7t32-21q10-8 20.5-16.5T393 837q16 0 26 10t19 21l17 22 64-51-32-43q-18-24-38.5-37T400 746q-24 0-39 7t-32 21q-10 8-20.5 16.5T283 799q-16 0-26-10t-19-21zm39 176 70 130h146L372 922H260z"/><glyph glyph-name="uni1E4D" unicode="ṍ" horiz-adv-x="612" d="M306-14q-74 0-133 30t-93 87-34 137v16q0 80 34 137t93 87 133 30 133-30 93-87 34-137v-16q0-80-34-137t-93-87-133-30zm0 112q58 0 96 37.5T440 243v10q0 70-37.5 107.5T306 398q-58 0-96-37.5T172 253v-10q0-70 38-107.5T306 98zM194 542l-69 44 33 57q15 26 36.5 37.5T241 692q22 0 38.5-8.5T312 661q9-8 19.5-16t23.5-8q15 0 24.5 10t16.5 21l16 24 69-44-33-57q-15-25-36-37t-47-12q-22 0-38.5 8.5T294 573q-9 8-19 16t-24 8q-15 0-24-10t-17-21zm36 178 74 148h142L340 720H230z"/><glyph glyph-name="uni1E4E" unicode="Ṏ" horiz-adv-x="676" d="M338-14q-132 0-210 72.5T50 266v168q0 135 78 207.5T338 714t210-72.5T626 434V266q0-135-78-207.5T338-14zm0 118q74 0 115 43t41 115v176q0 72-41 115t-115 43q-73 0-114.5-43T182 438V262q0-72 41.5-115T338 104zM221 746l-64 51 32 43q18 24 38.5 37t48.5 13q24 0 39-7t32-21q10-8 20.5-16.5T393 837q16 0 26 10t19 21l17 22 64-51-32-43q-18-24-38.5-37T400 746q-24 0-39 7t-32 21q-10 8-20.5 16.5T283 799q-16 0-26-10t-19-21zm228 172q-34 0-57.5 21.5T368 998t23.5 58.5T449 1078q35 0 58-21.5t23-58.5-23-58.5-58-21.5zm-222 0q-34 0-57.5 21.5T146 998t23.5 58.5T227 1078q35 0 58-21.5t23-58.5-23-58.5-58-21.5z"/><glyph glyph-name="uni1E4F" unicode="ṏ" horiz-adv-x="612" d="M306-14q-74 0-133 30t-93 87-34 137v16q0 80 34 137t93 87 133 30 133-30 93-87 34-137v-16q0-80-34-137t-93-87-133-30zm0 112q58 0 96 37.5T440 243v10q0 70-37.5 107.5T306 398q-58 0-96-37.5T172 253v-10q0-70 38-107.5T306 98zM194 542l-69 44 33 57q15 26 36.5 37.5T241 692q22 0 38.5-8.5T312 661q9-8 19.5-16t23.5-8q15 0 24.5 10t16.5 21l16 24 69-44-33-57q-15-25-36-37t-47-12q-22 0-38.5 8.5T294 573q-9 8-19 16t-24 8q-15 0-24-10t-17-21zm215 176q-34 0-57.5 21.5T328 798t23.5 58.5T409 878q35 0 58-21.5t23-58.5-23-58.5-58-21.5zm-206 0q-34 0-57.5 21.5T122 798t23.5 58.5T203 878q35 0 58-21.5t23-58.5-23-58.5-58-21.5z"/><glyph glyph-name="uni1E50" unicode="Ṑ" horiz-adv-x="676" d="M338-14q-132 0-210 72.5T50 266v168q0 135 78 207.5T338 714t210-72.5T626 434V266q0-135-78-207.5T338-14zm0 118q74 0 115 43t41 115v176q0 72-41 115t-115 43q-73 0-114.5-43T182 438V262q0-72 41.5-115T338 104zM174 762v100h328V762H174zm130 150-104 130h146l70-130H304z"/><glyph glyph-name="uni1E51" unicode="ṑ" horiz-adv-x="612" d="M306-14q-74 0-133 30t-93 87-34 137v16q0 80 34 137t93 87 133 30 133-30 93-87 34-137v-16q0-80-34-137t-93-87-133-30zm0 112q58 0 96 37.5T440 243v10q0 70-37.5 107.5T306 398q-58 0-96-37.5T172 253v-10q0-70 38-107.5T306 98zM142 566v100h328V566H142zm130 158L166 872h142l74-148H272z"/><glyph glyph-name="uni1E52" unicode="Ṓ" horiz-adv-x="676" d="M338-14q-132 0-210 72.5T50 266v168q0 135 78 207.5T338 714t210-72.5T626 434V266q0-135-78-207.5T338-14zm0 118q74 0 115 43t41 115v176q0 72-41 115t-115 43q-73 0-114.5-43T182 438V262q0-72 41.5-115T338 104zM174 762v100h328V762H174zm86 150 70 130h146L372 912H260z"/><glyph glyph-name="uni1E53" unicode="ṓ" horiz-adv-x="612" d="M306-14q-74 0-133 30t-93 87-34 137v16q0 80 34 137t93 87 133 30 133-30 93-87 34-137v-16q0-80-34-137t-93-87-133-30zm0 112q58 0 96 37.5T440 243v10q0 70-37.5 107.5T306 398q-58 0-96-37.5T172 253v-10q0-70 38-107.5T306 98zM142 566v100h328V566H142zm88 158 74 148h142L340 724H230z"/><glyph glyph-name="uni1E5A" unicode="Ṛ" horiz-adv-x="632" d="M66 0v700h304q66 0 115-23t76-65 27-99v-12q0-63-30-102t-74-57v-18q40-2 62-27.5t22-67.5V0H436v210q0 24-12.5 39T382 264H198V0H66zm132 384h158q47 0 73.5 25.5T456 477v10q0 42-26 67.5T356 580H198V384zm115-598q-34 0-57.5 22T232-134t23.5 58T313-54q35 0 58-22t23-58-23-58-58-22z"/><glyph glyph-name="uni1E5B" unicode="ṛ" horiz-adv-x="396" d="M70 0v496h124v-56h18q11 30 36.5 44t59.5 14h60V386h-62q-48 0-79-25.5T196 282V0H70zm65-214q-34 0-57.5 22T54-134t23.5 58T135-54q35 0 58-22t23-58-23-58-58-22z"/><glyph glyph-name="uni1E5C" unicode="Ṝ" horiz-adv-x="632" d="M66 0v700h304q66 0 115-23t76-65 27-99v-12q0-63-30-102t-74-57v-18q40-2 62-27.5t22-67.5V0H436v210q0 24-12.5 39T382 264H198V0H66zm132 384h158q47 0 73.5 25.5T456 477v10q0 42-26 67.5T356 580H198V384zm115-598q-34 0-57.5 22T232-134t23.5 58T313-54q35 0 58-22t23-58-23-58-58-22zM137 762v100h328V762H137z"/><glyph glyph-name="uni1E5D" unicode="ṝ" horiz-adv-x="396" d="M70 0v496h124v-56h18q11 30 36.5 44t59.5 14h60V386h-62q-48 0-79-25.5T196 282V0H70zm65-214q-34 0-57.5 22T54-134t23.5 58T135-54q35 0 58-22t23-58-23-58-58-22zM52 566v100h328V566H52z"/><glyph glyph-name="uni1E5E" unicode="Ṟ" horiz-adv-x="632" d="M66 0v700h304q66 0 115-23t76-65 27-99v-12q0-63-30-102t-74-57v-18q40-2 62-27.5t22-67.5V0H436v210q0 24-12.5 39T382 264H198V0H66zm132 384h158q47 0 73.5 25.5T456 477v10q0 42-26 67.5T356 580H198V384zm-49-554v100h328v-100H149z"/><glyph glyph-name="uni1E5F" unicode="ṟ" horiz-adv-x="396" d="M70 0v496h124v-56h18q11 30 36.5 44t59.5 14h60V386h-62q-48 0-79-25.5T196 282V0H70zm-99-170v100h328v-100H-29z"/><glyph glyph-name="uni1E60" unicode="Ṡ" horiz-adv-x="606" d="M309-14q-81 0-143 29T69 98 34 228v28h130v-28q0-63 39-94.5T309 102q68 0 101.5 27t33.5 69q0 29-16.5 47t-48 29.5T303 296l-23 5q-72 16-123.5 40.5t-79 64.5T50 510t30.5 109.5 86 70T297 714t133.5-25.5 92-76T556 486v-30H426v30q0 40-15.5 64.5t-44.5 36-69 11.5q-60 0-88.5-22.5T180 514q0-26 13.5-44t40.5-30 69-21l23-5q75-16 130.5-41t86.5-66 31-105-32.5-112.5-92-76T309-14zm-8 768q-34 0-57.5 22T220 834t23.5 58 57.5 22q35 0 58-22t23-58-23-58-58-22z"/><glyph glyph-name="uni1E61" unicode="ṡ" horiz-adv-x="524" d="M276-14q-97 0-159 42T42 148l116 30q7-35 23.5-55t41-28.5T276 86q44 0 65 15.5t21 38.5-20 35.5-64 20.5l-28 5q-52 10-95 27.5T86 277t-26 80q0 74 54 113.5T256 510q83 0 138-37t72-97l-117-36q-8 38-32.5 54T256 410t-55-12.5-19-34.5q0-24 20-35.5t54-17.5l28-5q56-10 101.5-26.5t72-47T484 149q0-78-56.5-120.5T276-14zm-15 568q-34 0-57.5 22T180 634t23.5 58 57.5 22q35 0 58-22t23-58-23-58-58-22z"/><glyph glyph-name="uni1E62" unicode="Ṣ" horiz-adv-x="606" d="M309-14q-81 0-143 29T69 98 34 228v28h130v-28q0-63 39-94.5T309 102q68 0 101.5 27t33.5 69q0 29-16.5 47t-48 29.5T303 296l-23 5q-72 16-123.5 40.5t-79 64.5T50 510t30.5 109.5 86 70T297 714t133.5-25.5 92-76T556 486v-30H426v30q0 40-15.5 64.5t-44.5 36-69 11.5q-60 0-88.5-22.5T180 514q0-26 13.5-44t40.5-30 69-21l23-5q75-16 130.5-41t86.5-66 31-105-32.5-112.5-92-76T309-14zm6-200q-34 0-57.5 22T234-134t23.5 58T315-54q35 0 58-22t23-58-23-58-58-22z"/><glyph glyph-name="uni1E63" unicode="ṣ" horiz-adv-x="524" d="M276-14q-97 0-159 42T42 148l116 30q7-35 23.5-55t41-28.5T276 86q44 0 65 15.5t21 38.5-20 35.5-64 20.5l-28 5q-52 10-95 27.5T86 277t-26 80q0 74 54 113.5T256 510q83 0 138-37t72-97l-117-36q-8 38-32.5 54T256 410t-55-12.5-19-34.5q0-24 20-35.5t54-17.5l28-5q56-10 101.5-26.5t72-47T484 149q0-78-56.5-120.5T276-14zm-11-200q-34 0-57.5 22T184-134t23.5 58T265-54q35 0 58-22t23-58-23-58-58-22z"/><glyph glyph-name="uni1E64" unicode="Ṥ" horiz-adv-x="606" d="M309-14q-81 0-143 29T69 98 34 228v28h130v-28q0-63 39-94.5T309 102q68 0 101.5 27t33.5 69q0 29-16.5 47t-48 29.5T303 296l-23 5q-72 16-123.5 40.5t-79 64.5T50 510t30.5 109.5 86 70T297 714t133.5-25.5 92-76T556 486v-30H426v30q0 40-15.5 64.5t-44.5 36-69 11.5q-60 0-88.5-22.5T180 514q0-26 13.5-44t40.5-30 69-21l23-5q75-16 130.5-41t86.5-66 31-105-32.5-112.5-92-76T309-14zm4 780 70 130h146L425 766H313zm-102-12q-34 0-57.5 22T130 834t23.5 58 57.5 22q35 0 58-22t23-58-23-58-58-22z"/><glyph glyph-name="uni1E65" unicode="ṥ" horiz-adv-x="524" d="M276-14q-97 0-159 42T42 148l116 30q7-35 23.5-55t41-28.5T276 86q44 0 65 15.5t21 38.5-20 35.5-64 20.5l-28 5q-52 10-95 27.5T86 277t-26 80q0 74 54 113.5T256 510q83 0 138-37t72-97l-117-36q-8 38-32.5 54T256 410t-55-12.5-19-34.5q0-24 20-35.5t54-17.5l28-5q56-10 101.5-26.5t72-47T484 149q0-78-56.5-120.5T276-14zm-7 572 74 148h142L379 558H269zm-92-4q-34 0-57.5 22T96 634t23.5 58 57.5 22q35 0 58-22t23-58-23-58-58-22z"/><glyph glyph-name="uni1E66" unicode="Ṧ" horiz-adv-x="606" d="M309-14q-81 0-143 29T69 98 34 228v28h130v-28q0-63 39-94.5T309 102q68 0 101.5 27t33.5 69q0 29-16.5 47t-48 29.5T303 296l-23 5q-72 16-123.5 40.5t-79 64.5T50 510t30.5 109.5 86 70T297 714t133.5-25.5 92-76T556 486v-30H426v30q0 40-15.5 64.5t-44.5 36-69 11.5q-60 0-88.5-22.5T180 514q0-26 13.5-44t40.5-30 69-21l23-5q75-16 130.5-41t86.5-66 31-105-32.5-112.5-92-76T309-14zm-86 772L109 888h134l49-66h18l49 66h134L379 758H223zm78 155q-34 0-57.5 22T220 993t23.5 58 57.5 22q35 0 58-22t23-58-23-58-58-22z"/><glyph glyph-name="uni1E67" unicode="ṧ" horiz-adv-x="524" d="M276-14q-97 0-159 42T42 148l116 30q7-35 23.5-55t41-28.5T276 86q44 0 65 15.5t21 38.5-20 35.5-64 20.5l-28 5q-52 10-95 27.5T86 277t-26 80q0 74 54 113.5T256 510q83 0 138-37t72-97l-117-36q-8 38-32.5 54T256 410t-55-12.5-19-34.5q0-24 20-35.5t54-17.5l28-5q56-10 101.5-26.5t72-47T484 149q0-78-56.5-120.5T276-14zm-90 566L69 700h127l56-74h18l56 74h127L336 552H186zm75 172q-34 0-57.5 22T180 804t23.5 58 57.5 22q35 0 58-22t23-58-23-58-58-22z"/><glyph glyph-name="uni1E68" unicode="Ṩ" horiz-adv-x="606" d="M309-14q-81 0-143 29T69 98 34 228v28h130v-28q0-63 39-94.5T309 102q68 0 101.5 27t33.5 69q0 29-16.5 47t-48 29.5T303 296l-23 5q-72 16-123.5 40.5t-79 64.5T50 510t30.5 109.5 86 70T297 714t133.5-25.5 92-76T556 486v-30H426v30q0 40-15.5 64.5t-44.5 36-69 11.5q-60 0-88.5-22.5T180 514q0-26 13.5-44t40.5-30 69-21l23-5q75-16 130.5-41t86.5-66 31-105-32.5-112.5-92-76T309-14zm6-200q-34 0-57.5 22T234-134t23.5 58T315-54q35 0 58-22t23-58-23-58-58-22zm-14 968q-34 0-57.5 22T220 834t23.5 58 57.5 22q35 0 58-22t23-58-23-58-58-22z"/><glyph glyph-name="uni1E69" unicode="ṩ" horiz-adv-x="524" d="M276-14q-97 0-159 42T42 148l116 30q7-35 23.5-55t41-28.5T276 86q44 0 65 15.5t21 38.5-20 35.5-64 20.5l-28 5q-52 10-95 27.5T86 277t-26 80q0 74 54 113.5T256 510q83 0 138-37t72-97l-117-36q-8 38-32.5 54T256 410t-55-12.5-19-34.5q0-24 20-35.5t54-17.5l28-5q56-10 101.5-26.5t72-47T484 149q0-78-56.5-120.5T276-14zm-11-200q-34 0-57.5 22T184-134t23.5 58T265-54q35 0 58-22t23-58-23-58-58-22zm-4 768q-34 0-57.5 22T180 634t23.5 58 57.5 22q35 0 58-22t23-58-23-58-58-22z"/><glyph glyph-name="uni1E6C" unicode="Ṭ" horiz-adv-x="588" d="M228 0v580H24v120h540V580H360V0H228zm66-214q-34 0-57.5 22T213-134t23.5 58T294-54q35 0 58-22t23-58-23-58-58-22z"/><glyph glyph-name="uni1E6D" unicode="ṭ" horiz-adv-x="456" d="M260 0q-49 0-79.5 30.5T150 112v280H26v104h124v154h126V496h136V392H276V134q0-30 28-30h96V0H260zm-28-214q-34 0-57.5 22T151-134t23.5 58T232-54q35 0 58-22t23-58-23-58-58-22z"/><glyph glyph-name="uni1E6E" unicode="Ṯ" horiz-adv-x="588" d="M228 0v580H24v120h540V580H360V0H228zm-98-170v100h328v-100H130z"/><glyph glyph-name="uni1E6F" unicode="ṯ" horiz-adv-x="456" d="M136-170v100h264v-100H136zM260 0q-49 0-79.5 30.5T150 112v280H26v104h124v154h126V496h136V392H276V134q0-30 28-30h96V0H260z"/><glyph glyph-name="uni1E78" unicode="Ṹ" horiz-adv-x="672" d="M336-14q-86 0-147.5 31.5t-94 90T62 246v454h132V242q0-64 36.5-101T336 104t105.5 37T478 242v458h132V246q0-80-32.5-138.5t-94-90T336-14zM219 746l-64 51 32 43q18 24 38.5 37t48.5 13q24 0 39-7t32-21q10-8 20.5-16.5T391 837q16 0 26 10t19 21l17 22 64-51-32-43q-18-24-38.5-37T398 746q-24 0-39 7t-32 21q-10 8-20.5 16.5T281 799q-16 0-26-10t-19-21zm39 176 70 130h146L370 922H258z"/><glyph glyph-name="uni1E79" unicode="ṹ" horiz-adv-x="616" d="M259-8q-58 0-101.5 26.5T90 92 66 200v296h126V210q0-56 27.5-84T298 98q58 0 90 38.5T420 244v252h126V0H422v65h-18q-12-25-45-49T259-8zm-65 550-69 44 33 57q15 26 36.5 37.5T241 692q22 0 38.5-8.5T312 661q9-8 19.5-16t23.5-8q15 0 24.5 10t16.5 21l16 24 69-44-33-57q-15-25-36-37t-47-12q-22 0-38.5 8.5T294 573q-9 8-19 16t-24 8q-15 0-24-10t-17-21zm36 178 74 148h142L340 720H230z"/><glyph glyph-name="uni1E7A" unicode="Ṻ" horiz-adv-x="672" d="M336-14q-86 0-147.5 31.5t-94 90T62 246v454h132V242q0-64 36.5-101T336 104t105.5 37T478 242v458h132V246q0-80-32.5-138.5t-94-90T336-14zM172 762v100h328V762H172zm275 146q-34 0-57.5 21.5T366 988t23.5 58.5T447 1068q35 0 58-21.5t23-58.5-23-58.5-58-21.5zm-222 0q-34 0-57.5 21.5T144 988t23.5 58.5T225 1068q35 0 58-21.5t23-58.5-23-58.5-58-21.5z"/><glyph glyph-name="uni1E7B" unicode="ṻ" horiz-adv-x="616" d="M259-8q-58 0-101.5 26.5T90 92 66 200v296h126V210q0-56 27.5-84T298 98q58 0 90 38.5T420 244v252h126V0H422v65h-18q-12-25-45-49T259-8zM142 566v100h328V566H142zm267 156q-34 0-57.5 21.5T328 802t23.5 58.5T409 882q35 0 58-21.5t23-58.5-23-58.5-58-21.5zm-206 0q-34 0-57.5 21.5T122 802t23.5 58.5T203 882q35 0 58-21.5t23-58.5-23-58.5-58-21.5z"/><glyph glyph-name="Wgrave" unicode="Ẁ" horiz-adv-x="898" d="M122 0 30 700h131l68-608h18l88 608h228l88-608h18l68 608h131L776 0H548l-90 622h-18L350 0H122zm293 758L311 888h146l70-130H415z"/><glyph glyph-name="wgrave" unicode="ẁ" horiz-adv-x="784" d="M110 0 40 496h125l44-411h18l64 411h202l64-411h18l44 411h125L674 0H465l-64 411h-18L319 0H110zm248 552L252 700h142l74-148H358z"/><glyph glyph-name="Wacute" unicode="Ẃ" horiz-adv-x="898" d="M122 0 30 700h131l68-608h18l88 608h228l88-608h18l68 608h131L776 0H548l-90 622h-18L350 0H122zm249 758 70 130h146L483 758H371z"/><glyph glyph-name="wacute" unicode="ẃ" horiz-adv-x="784" d="M110 0 40 496h125l44-411h18l64 411h202l64-411h18l44 411h125L674 0H465l-64 411h-18L319 0H110zm206 552 74 148h142L426 552H316z"/><glyph glyph-name="Wdieresis" unicode="Ẅ" horiz-adv-x="898" d="M122 0 30 700h131l68-608h18l88 608h228l88-608h18l68 608h131L776 0H548l-90 622h-18L350 0H122zm438 754q-34 0-57.5 21.5T479 834t23.5 58.5T560 914q35 0 58-21.5t23-58.5-23-58.5-58-21.5zm-222 0q-34 0-57.5 21.5T257 834t23.5 58.5T338 914q35 0 58-21.5t23-58.5-23-58.5-58-21.5z"/><glyph glyph-name="wdieresis" unicode="ẅ" horiz-adv-x="784" d="M110 0 40 496h125l44-411h18l64 411h202l64-411h18l44 411h125L674 0H465l-64 411h-18L319 0H110zm385 550q-34 0-57.5 21.5T414 630t23.5 58.5T495 710q35 0 58-21.5t23-58.5-23-58.5-58-21.5zm-206 0q-34 0-57.5 21.5T208 630t23.5 58.5T289 710q35 0 58-21.5t23-58.5-23-58.5-58-21.5z"/><glyph glyph-name="uni1E8E" unicode="Ẏ" horiz-adv-x="624" d="M246 0v241L8 700h147l148-300h18l148 300h147L378 241V0H246zm66 754q-34 0-57.5 22T231 834t23.5 58 57.5 22q35 0 58-22t23-58-23-58-58-22z"/><glyph glyph-name="uni1E8F" unicode="ẏ" horiz-adv-x="616" d="M124-200v110h270q28 0 28 30V65h-18q-8-17-25-34T333 3 259-8q-58 0-101.5 26.5T90 92 66 200v296h126V210q0-56 27.5-84T298 98q58 0 90 38.5T420 244v252h126V-88q0-51-30-81.5T436-200H124zm182 754q-34 0-57.5 22T225 634t23.5 58 57.5 22q35 0 58-22t23-58-23-58-58-22z"/><glyph glyph-name="uni1E92" unicode="Ẓ" horiz-adv-x="576" d="M46 0v168l346 398v16H56v118h474V532L184 134v-16h348V0H46zm243-214q-34 0-57.5 22T208-134t23.5 58T289-54q35 0 58-22t23-58-23-58-58-22z"/><glyph glyph-name="uni1E93" unicode="ẓ" horiz-adv-x="518" d="M52 0v150l272 226v16H62v104h400V346L190 120v-16h280V0H52zm209-214q-34 0-57.5 22T180-134t23.5 58T261-54q35 0 58-22t23-58-23-58-58-22z"/><glyph glyph-name="uni1E97" unicode="ẗ" horiz-adv-x="456" d="M260 0q-49 0-79.5 30.5T150 112v280H26v104h124v154h126V496h136V392H276V134q0-30 28-30h96V0H260zm56 698q-34 0-57.5 21.5T235 778t23.5 58.5T316 858q35 0 58-21.5t23-58.5-23-58.5-58-21.5zm-206 0q-34 0-57.5 21.5T29 778t23.5 58.5T110 858q35 0 58-21.5t23-58.5-23-58.5-58-21.5z"/><glyph glyph-name="uni1E9E" unicode="ẞ" horiz-adv-x="651" d="M430-14q-94 0-146 50.5T232 168h130q0-31 19-47.5t49-16.5 46.5 15.5T493 159q0 26-19 40t-45 25l-48 21q-41 18-59.5 48T303 358t15.5 64 46.5 57l101 89v16H334q-33 0-65.5-15.5t-53.5-51-21-97.5V0H62v416q0 90 34.5 153.5t95.5 97T334 700h266V536L452 402q-7-7-13-13.5t-6-17.5q0-10 9-15.5t20-10.5l34-14q36-14 64.5-35.5t45.5-54 17-80.5q0-76-49-125.5T430-14z"/><glyph glyph-name="uni1EA0" unicode="Ạ" horiz-adv-x="634" d="m18 0 184 700h230L616 0H480l-38 154H192L154 0H18zm205 276h188l-85 341h-18zm94-490q-34 0-57.5 22T236-134t23.5 58T317-54q35 0 58-22t23-58-23-58-58-22z"/><glyph glyph-name="uni1EA1" unicode="ạ" horiz-adv-x="578" d="M224-14q-53 0-95 18.5t-66.5 54T38 145t24.5 85.5 68 52T230 300h136v28q0 35-22 57.5T274 408q-47 0-70-21.5T174 331L58 370q12 38 38.5 69.5t71 51T276 510q98 0 155-49t57-142V134q0-30 28-30h40V0h-84q-37 0-61 18t-24 48v1h-19q-4-12-18-31.5T306 1t-82-15zm22 102q53 0 86.5 29.5T366 196v10H239q-35 0-55-15t-20-42 21-44 61-17zm30-302q-34 0-57.5 22T195-134t23.5 58T276-54q35 0 58-22t23-58-23-58-58-22z"/><glyph glyph-name="uni1EA2" unicode="Ả" horiz-adv-x="634" d="m18 0 184 700h230L616 0H480l-38 154H192L154 0H18zm205 276h188l-85 341h-18zm57 472-5 80h38q26 0 37.5 7.5T362 857q0 16-13 23.5t-33 7.5q-27 0-48.5-5T227 872l-20 75q22 8 52.5 13.5T322 966q34 0 64.5-10t49.5-30.5 19-53.5q0-40-26.5-62.5T364 787l3-39h-87z"/><glyph glyph-name="uni1EA3" unicode="ả" horiz-adv-x="578" d="M224-14q-53 0-95 18.5t-66.5 54T38 145t24.5 85.5 68 52T230 300h136v28q0 35-22 57.5T274 408q-47 0-70-21.5T174 331L58 370q12 38 38.5 69.5t71 51T276 510q98 0 155-49t57-142V134q0-30 28-30h40V0h-84q-37 0-61 18t-24 48v1h-19q-4-12-18-31.5T306 1t-82-15zm22 102q53 0 86.5 29.5T366 196v10H239q-35 0-55-15t-20-42 21-44 61-17zm-5 454-5 80h38q26 0 37.5 7.5T323 651q0 16-13 23.5t-33 7.5q-27 0-48.5-5T188 666l-20 75q22 8 52.5 13.5T283 760q34 0 64.5-10t49.5-30.5 19-53.5q0-40-26.5-62.5T325 581l3-39h-87z"/><glyph glyph-name="uni1EA4" unicode="Ấ" horiz-adv-x="634" d="m18 0 184 700h230L616 0H480l-38 154H192L154 0H18zm205 276h188l-85 341h-18zm-98 482 114 130h156l114-130H375l-49 66h-18l-49-66H125zm338 92 40 132h116l-62-132h-94z"/><glyph glyph-name="uni1EA5" unicode="ấ" horiz-adv-x="578" d="M224-14q-53 0-95 18.5t-66.5 54T38 145t24.5 85.5 68 52T230 300h136v28q0 35-22 57.5T274 408q-47 0-70-21.5T174 331L58 370q12 38 38.5 69.5t71 51T276 510q98 0 155-49t57-142V134q0-30 28-30h40V0h-84q-37 0-61 18t-24 48v1h-19q-4-12-18-31.5T306 1t-82-15zm22 102q53 0 86.5 29.5T366 196v10H239q-35 0-55-15t-20-42 21-44 61-17zM89 552l117 148h150l117-148H346l-56 74h-18l-56-74H89zm338 114 52 150h122l-74-150H427z"/><glyph glyph-name="uni1EA6" unicode="Ầ" horiz-adv-x="634" d="m18 0 184 700h230L616 0H480l-38 154H192L154 0H18zm205 276h188l-85 341h-18zm-98 482 114 130h156l114-130H375l-49 66h-18l-49-66H125zm355 92-64 132h116l42-132h-94z"/><glyph glyph-name="uni1EA7" unicode="ầ" horiz-adv-x="578" d="M224-14q-53 0-95 18.5t-66.5 54T38 145t24.5 85.5 68 52T230 300h136v28q0 35-22 57.5T274 408q-47 0-70-21.5T174 331L58 370q12 38 38.5 69.5t71 51T276 510q98 0 155-49t57-142V134q0-30 28-30h40V0h-84q-37 0-61 18t-24 48v1h-19q-4-12-18-31.5T306 1t-82-15zm22 102q53 0 86.5 29.5T366 196v10H239q-35 0-55-15t-20-42 21-44 61-17zM89 552l117 148h150l117-148H346l-56 74h-18l-56-74H89zm356 114-80 150h122l58-150H445z"/><glyph glyph-name="uni1EA8" unicode="Ẩ" horiz-adv-x="634" d="m18 0 184 700h230L616 0H480l-38 154H192L154 0H18zm205 276h188l-85 341h-18zm-98 482 114 130h156l114-130H375l-49 66h-18l-49-66H125zm337 98-5 80h38q26 0 37.5 7.5T544 965q0 16-13 23.5t-33 7.5q-27 0-48.5-5T409 980l-20 75q22 8 52.5 13.5t62.5 5.5q34 0 64.5-10t49.5-30.5 19-53.5q0-40-26.5-62.5T546 895l3-39h-87z"/><glyph glyph-name="uni1EA9" unicode="ẩ" horiz-adv-x="578" d="M224-14q-53 0-95 18.5t-66.5 54T38 145t24.5 85.5 68 52T230 300h136v28q0 35-22 57.5T274 408q-47 0-70-21.5T174 331L58 370q12 38 38.5 69.5t71 51T276 510q98 0 155-49t57-142V134q0-30 28-30h40V0h-84q-37 0-61 18t-24 48v1h-19q-4-12-18-31.5T306 1t-82-15zm22 102q53 0 86.5 29.5T366 196v10H239q-35 0-55-15t-20-42 21-44 61-17zM89 552l117 148h150l117-148H346l-56 74h-18l-56-74H89zm350 104-5 80h38q26 0 37.5 7.5T521 765q0 16-13 23.5t-33 7.5q-27 0-48.5-5T386 780l-20 75q22 8 52.5 13.5T481 874q34 0 64.5-10t49.5-30.5 19-53.5q0-40-26.5-62.5T523 695l3-39h-87z"/><glyph glyph-name="uni1EAA" unicode="Ẫ" horiz-adv-x="634" d="m18 0 184 700h230L616 0H480l-38 154H192L154 0H18zm205 276h188l-85 341h-18zm-98 482 114 130h156l114-130H375l-49 66h-18l-49-66H125zm75 166-64 51 32 43q18 24 38.5 37t48.5 13q24 0 39-7t32-21q10-8 20.5-16.5t25.5-8.5q16 0 26 10t19 21l17 22 64-51-32-43q-18-24-38.5-37T379 924q-24 0-39 7t-32 21q-10 8-20.5 16.5T262 977q-16 0-26-10t-19-21z"/><glyph glyph-name="uni1EAB" unicode="ẫ" horiz-adv-x="578" d="M224-14q-53 0-95 18.5t-66.5 54T38 145t24.5 85.5 68 52T230 300h136v28q0 35-22 57.5T274 408q-47 0-70-21.5T174 331L58 370q12 38 38.5 69.5t71 51T276 510q98 0 155-49t57-142V134q0-30 28-30h40V0h-84q-37 0-61 18t-24 48v1h-19q-4-12-18-31.5T306 1t-82-15zm22 102q53 0 86.5 29.5T366 196v10H239q-35 0-55-15t-20-42 21-44 61-17zM89 552l117 148h150l117-148H346l-56 74h-18l-56-74H89zm80 188-69 44 33 57q15 26 36.5 37.5T216 890q22 0 38.5-8.5T287 859q9-8 19.5-16t23.5-8q15 0 24.5 10t16.5 21l16 24 69-44-33-57q-15-25-36-37t-47-12q-22 0-38.5 8.5T269 771q-9 8-19 16t-24 8q-15 0-24-10t-17-21z"/><glyph glyph-name="uni1EAC" unicode="Ậ" horiz-adv-x="634" d="m18 0 184 700h230L616 0H480l-38 154H192L154 0H18zm205 276h188l-85 341h-18zm94-490q-34 0-57.5 22T236-134t23.5 58T317-54q35 0 58-22t23-58-23-58-58-22zM125 758l114 130h156l114-130H375l-49 66h-18l-49-66H125z"/><glyph glyph-name="uni1EAD" unicode="ậ" horiz-adv-x="578" d="M224-14q-53 0-95 18.5t-66.5 54T38 145t24.5 85.5 68 52T230 300h136v28q0 35-22 57.5T274 408q-47 0-70-21.5T174 331L58 370q12 38 38.5 69.5t71 51T276 510q98 0 155-49t57-142V134q0-30 28-30h40V0h-84q-37 0-61 18t-24 48v1h-19q-4-12-18-31.5T306 1t-82-15zm22 102q53 0 86.5 29.5T366 196v10H239q-35 0-55-15t-20-42 21-44 61-17zm30-302q-34 0-57.5 22T195-134t23.5 58T276-54q35 0 58-22t23-58-23-58-58-22zM89 552l117 148h150l117-148H346l-56 74h-18l-56-74H89z"/><glyph glyph-name="uni1EAE" unicode="Ắ" horiz-adv-x="634" d="m18 0 184 700h230L616 0H480l-38 154H192L154 0H18zm205 276h188l-85 341h-18zm94 476q-77 0-120.5 35.5T153 884v4h102v-4q0-24 14.5-41t47.5-17 47.5 17 14.5 41v4h102v-4q0-61-43.5-96.5T317 752zm-72 172 70 130h146L357 924H245z"/><glyph glyph-name="uni1EAF" unicode="ắ" horiz-adv-x="578" d="M224-14q-53 0-95 18.5t-66.5 54T38 145t24.5 85.5 68 52T230 300h136v28q0 35-22 57.5T274 408q-47 0-70-21.5T174 331L58 370q12 38 38.5 69.5t71 51T276 510q98 0 155-49t57-142V134q0-30 28-30h40V0h-84q-37 0-61 18t-24 48v1h-19q-4-12-18-31.5T306 1t-82-15zm22 102q53 0 86.5 29.5T366 196v10H239q-35 0-55-15t-20-42 21-44 61-17zm35 460q-79 0-122.5 39T115 694v6h104v-4q0-28 14.5-47t47.5-19 47.5 19 14.5 47v4h104v-6q0-68-43.5-107T281 548zm-72 188 74 148h142L319 736H209z"/><glyph glyph-name="uni1EB0" unicode="Ằ" horiz-adv-x="634" d="m18 0 184 700h230L616 0H480l-38 154H192L154 0H18zm205 276h188l-85 341h-18zm94 476q-77 0-120.5 35.5T153 884v4h102v-4q0-24 14.5-41t47.5-17 47.5 17 14.5 41v4h102v-4q0-61-43.5-96.5T317 752zm-40 172-104 130h146l70-130H277z"/><glyph glyph-name="uni1EB1" unicode="ằ" horiz-adv-x="578" d="M224-14q-53 0-95 18.5t-66.5 54T38 145t24.5 85.5 68 52T230 300h136v28q0 35-22 57.5T274 408q-47 0-70-21.5T174 331L58 370q12 38 38.5 69.5t71 51T276 510q98 0 155-49t57-142V134q0-30 28-30h40V0h-84q-37 0-61 18t-24 48v1h-19q-4-12-18-31.5T306 1t-82-15zm22 102q53 0 86.5 29.5T366 196v10H239q-35 0-55-15t-20-42 21-44 61-17zm35 460q-79 0-122.5 39T115 694v6h104v-4q0-28 14.5-47t47.5-19 47.5 19 14.5 47v4h104v-6q0-68-43.5-107T281 548zm-38 188L137 884h142l74-148H243z"/><glyph glyph-name="uni1EB2" unicode="Ẳ" horiz-adv-x="634" d="m18 0 184 700h230L616 0H480l-38 154H192L154 0H18zm205 276h188l-85 341h-18zm94 476q-77 0-120.5 35.5T153 884v4h102v-4q0-24 14.5-41t47.5-17 47.5 17 14.5 41v4h102v-4q0-61-43.5-96.5T317 752zm-40 164-5 80h38q26 0 37.5 7.5T359 1025q0 16-13 23.5t-33 7.5q-27 0-48.5-5t-40.5-11l-20 75q22 8 52.5 13.5t62.5 5.5q34 0 64.5-10t49.5-30.5 19-53.5q0-40-26.5-62.5T361 955l3-39h-87z"/><glyph glyph-name="uni1EB3" unicode="ẳ" horiz-adv-x="578" d="M224-14q-53 0-95 18.5t-66.5 54T38 145t24.5 85.5 68 52T230 300h136v28q0 35-22 57.5T274 408q-47 0-70-21.5T174 331L58 370q12 38 38.5 69.5t71 51T276 510q98 0 155-49t57-142V134q0-30 28-30h40V0h-84q-37 0-61 18t-24 48v1h-19q-4-12-18-31.5T306 1t-82-15zm22 102q53 0 86.5 29.5T366 196v10H239q-35 0-55-15t-20-42 21-44 61-17zm35 460q-79 0-122.5 39T115 694v6h104v-4q0-28 14.5-47t47.5-19 47.5 19 14.5 47v4h104v-6q0-68-43.5-107T281 548zm-41 176-5 80h38q26 0 37.5 7.5T322 833q0 16-13 23.5t-33 7.5q-27 0-48.5-5T187 848l-20 75q22 8 52.5 13.5T282 942q34 0 64.5-10t49.5-30.5 19-53.5q0-40-26.5-62.5T324 763l3-39h-87z"/><glyph glyph-name="uni1EB4" unicode="Ẵ" horiz-adv-x="634" d="m18 0 184 700h230L616 0H480l-38 154H192L154 0H18zm205 276h188l-85 341h-18zm94 476q-77 0-120.5 35.5T153 884v4h102v-4q0-24 14.5-41t47.5-17 47.5 17 14.5 41v4h102v-4q0-61-43.5-96.5T317 752zM200 926l-64 51 32 43q18 24 38.5 37t48.5 13q24 0 39-7t32-21q10-8 20.5-16.5t25.5-8.5q16 0 26 10t19 21l17 22 64-51-32-43q-18-24-38.5-37T379 926q-24 0-39 7t-32 21q-10 8-20.5 16.5T262 979q-16 0-26-10t-19-21z"/><glyph glyph-name="uni1EB5" unicode="ẵ" horiz-adv-x="578" d="M224-14q-53 0-95 18.5t-66.5 54T38 145t24.5 85.5 68 52T230 300h136v28q0 35-22 57.5T274 408q-47 0-70-21.5T174 331L58 370q12 38 38.5 69.5t71 51T276 510q98 0 155-49t57-142V134q0-30 28-30h40V0h-84q-37 0-61 18t-24 48v1h-19q-4-12-18-31.5T306 1t-82-15zm22 102q53 0 86.5 29.5T366 196v10H239q-35 0-55-15t-20-42 21-44 61-17zm35 460q-79 0-122.5 39T115 694v6h104v-4q0-28 14.5-47t47.5-19 47.5 19 14.5 47v4h104v-6q0-68-43.5-107T281 548zM169 734l-69 44 33 57q15 26 36.5 37.5T216 884q22 0 38.5-8.5T287 853q9-8 19.5-16t23.5-8q15 0 24.5 10t16.5 21l16 24 69-44-33-57q-15-25-36-37t-47-12q-22 0-38.5 8.5T269 765q-9 8-19 16t-24 8q-15 0-24-10t-17-21z"/><glyph glyph-name="uni1EB6" unicode="Ặ" horiz-adv-x="634" d="m18 0 184 700h230L616 0H480l-38 154H192L154 0H18zm205 276h188l-85 341h-18zm94-490q-34 0-57.5 22T236-134t23.5 58T317-54q35 0 58-22t23-58-23-58-58-22zm0 966q-77 0-120.5 35.5T153 884v4h102v-4q0-24 14.5-41t47.5-17 47.5 17 14.5 41v4h102v-4q0-61-43.5-96.5T317 752z"/><glyph glyph-name="uni1EB7" unicode="ặ" horiz-adv-x="578" d="M224-14q-53 0-95 18.5t-66.5 54T38 145t24.5 85.5 68 52T230 300h136v28q0 35-22 57.5T274 408q-47 0-70-21.5T174 331L58 370q12 38 38.5 69.5t71 51T276 510q98 0 155-49t57-142V134q0-30 28-30h40V0h-84q-37 0-61 18t-24 48v1h-19q-4-12-18-31.5T306 1t-82-15zm22 102q53 0 86.5 29.5T366 196v10H239q-35 0-55-15t-20-42 21-44 61-17zm30-302q-34 0-57.5 22T195-134t23.5 58T276-54q35 0 58-22t23-58-23-58-58-22zm5 762q-79 0-122.5 39T115 694v6h104v-4q0-28 14.5-47t47.5-19 47.5 19 14.5 47v4h104v-6q0-68-43.5-107T281 548z"/><glyph glyph-name="uni1EB8" unicode="Ẹ" horiz-adv-x="554" d="M66 0v700h450V580H198V413h290V293H198V120h324V0H66zm228-214q-34 0-57.5 22T213-134t23.5 58T294-54q35 0 58-22t23-58-23-58-58-22z"/><glyph glyph-name="uni1EB9" unicode="ẹ" horiz-adv-x="577" d="M296-14q-74 0-130.5 31.5t-88 89T46 242v12q0 78 31 135.5t87 89T294 510q73 0 127-32.5t84-90T535 254v-43H174q2-51 38-83t88-32q53 0 78 23t38 51l103-54q-14-26-40.5-56.5T408 7.5 296-14zM175 305h232q-4 43-34.5 69T293 400q-51 0-81-26t-37-69zm121-519q-34 0-57.5 22T215-134t23.5 58T296-54q35 0 58-22t23-58-23-58-58-22z"/><glyph glyph-name="uni1EBA" unicode="Ẻ" horiz-adv-x="554" d="M66 0v700h450V580H198V413h290V293H198V120h324V0H66zm193 748-5 80h38q26 0 37.5 7.5T341 857q0 16-13 23.5t-33 7.5q-27 0-48.5-5T206 872l-20 75q22 8 52.5 13.5T301 966q34 0 64.5-10t49.5-30.5 19-53.5q0-40-26.5-62.5T343 787l3-39h-87z"/><glyph glyph-name="uni1EBB" unicode="ẻ" horiz-adv-x="577" d="M296-14q-74 0-130.5 31.5t-88 89T46 242v12q0 78 31 135.5t87 89T294 510q73 0 127-32.5t84-90T535 254v-43H174q2-51 38-83t88-32q53 0 78 23t38 51l103-54q-14-26-40.5-56.5T408 7.5 296-14zM175 305h232q-4 43-34.5 69T293 400q-51 0-81-26t-37-69zm79 237-5 80h38q26 0 37.5 7.5T336 651q0 16-13 23.5t-33 7.5q-27 0-48.5-5T201 666l-20 75q22 8 52.5 13.5T296 760q34 0 64.5-10t49.5-30.5 19-53.5q0-40-26.5-62.5T338 581l3-39h-87z"/><glyph glyph-name="uni1EBC" unicode="Ẽ" horiz-adv-x="554" d="M66 0v700h450V580H198V413h290V293H198V120h324V0H66zm113 746-64 51 32 43q18 24 38.5 37t48.5 13q24 0 39-7t32-21q10-8 20.5-16.5T351 837q16 0 26 10t19 21l17 22 64-51-32-43q-18-24-38.5-37T358 746q-24 0-39 7t-32 21q-10 8-20.5 16.5T241 799q-16 0-26-10t-19-21z"/><glyph glyph-name="uni1EBD" unicode="ẽ" horiz-adv-x="577" d="M296-14q-74 0-130.5 31.5t-88 89T46 242v12q0 78 31 135.5t87 89T294 510q73 0 127-32.5t84-90T535 254v-43H174q2-51 38-83t88-32q53 0 78 23t38 51l103-54q-14-26-40.5-56.5T408 7.5 296-14zM175 305h232q-4 43-34.5 69T293 400q-51 0-81-26t-37-69zm7 237-69 44 33 57q15 26 36.5 37.5T229 692q22 0 38.5-8.5T300 661q9-8 19.5-16t23.5-8q15 0 24.5 10t16.5 21l16 24 69-44-33-57q-15-25-36-37t-47-12q-22 0-38.5 8.5T282 573q-9 8-19 16t-24 8q-15 0-24-10t-17-21z"/><glyph glyph-name="uni1EBE" unicode="Ế" horiz-adv-x="554" d="M66 0v700h450V580H198V413h290V293H198V120h324V0H66zm38 758 114 130h156l114-130H354l-49 66h-18l-49-66H104zm338 92 40 132h116l-62-132h-94z"/><glyph glyph-name="uni1EBF" unicode="ế" horiz-adv-x="577" d="M296-14q-74 0-130.5 31.5t-88 89T46 242v12q0 78 31 135.5t87 89T294 510q73 0 127-32.5t84-90T535 254v-43H174q2-51 38-83t88-32q53 0 78 23t38 51l103-54q-14-26-40.5-56.5T408 7.5 296-14zM175 305h232q-4 43-34.5 69T293 400q-51 0-81-26t-37-69zm-73 247 117 148h150l117-148H359l-56 74h-18l-56-74H102zm338 114 52 150h122l-74-150H440z"/><glyph glyph-name="uni1EC0" unicode="Ề" horiz-adv-x="554" d="M66 0v700h450V580H198V413h290V293H198V120h324V0H66zm38 758 114 130h156l114-130H354l-49 66h-18l-49-66H104zm355 92-64 132h116l42-132h-94z"/><glyph glyph-name="uni1EC1" unicode="ề" horiz-adv-x="577" d="M296-14q-74 0-130.5 31.5t-88 89T46 242v12q0 78 31 135.5t87 89T294 510q73 0 127-32.5t84-90T535 254v-43H174q2-51 38-83t88-32q53 0 78 23t38 51l103-54q-14-26-40.5-56.5T408 7.5 296-14zM175 305h232q-4 43-34.5 69T293 400q-51 0-81-26t-37-69zm-73 247 117 148h150l117-148H359l-56 74h-18l-56-74H102zm356 114-80 150h122l58-150H458z"/><glyph glyph-name="uni1EC2" unicode="Ể" horiz-adv-x="554" d="M66 0v700h450V580H198V413h290V293H198V120h324V0H66zm38 758 114 130h156l114-130H354l-49 66h-18l-49-66H104zm337 98-5 80h38q26 0 37.5 7.5T523 965q0 16-13 23.5t-33 7.5q-27 0-48.5-5T388 980l-20 75q22 8 52.5 13.5t62.5 5.5q34 0 64.5-10t49.5-30.5 19-53.5q0-40-26.5-62.5T525 895l3-39h-87z"/><glyph glyph-name="uni1EC3" unicode="ể" horiz-adv-x="577" d="M296-14q-74 0-130.5 31.5t-88 89T46 242v12q0 78 31 135.5t87 89T294 510q73 0 127-32.5t84-90T535 254v-43H174q2-51 38-83t88-32q53 0 78 23t38 51l103-54q-14-26-40.5-56.5T408 7.5 296-14zM175 305h232q-4 43-34.5 69T293 400q-51 0-81-26t-37-69zm-73 247 117 148h150l117-148H359l-56 74h-18l-56-74H102zm350 104-5 80h38q26 0 37.5 7.5T534 765q0 16-13 23.5t-33 7.5q-27 0-48.5-5T399 780l-20 75q22 8 52.5 13.5T494 874q34 0 64.5-10t49.5-30.5 19-53.5q0-40-26.5-62.5T536 695l3-39h-87z"/><glyph glyph-name="uni1EC4" unicode="Ễ" horiz-adv-x="554" d="M66 0v700h450V580H198V413h290V293H198V120h324V0H66zm38 758 114 130h156l114-130H354l-49 66h-18l-49-66H104zm75 166-64 51 32 43q18 24 38.5 37t48.5 13q24 0 39-7t32-21q10-8 20.5-16.5t25.5-8.5q16 0 26 10t19 21l17 22 64-51-32-43q-18-24-38.5-37T358 924q-24 0-39 7t-32 21q-10 8-20.5 16.5T241 977q-16 0-26-10t-19-21z"/><glyph glyph-name="uni1EC5" unicode="ễ" horiz-adv-x="577" d="M296-14q-74 0-130.5 31.5t-88 89T46 242v12q0 78 31 135.5t87 89T294 510q73 0 127-32.5t84-90T535 254v-43H174q2-51 38-83t88-32q53 0 78 23t38 51l103-54q-14-26-40.5-56.5T408 7.5 296-14zM175 305h232q-4 43-34.5 69T293 400q-51 0-81-26t-37-69zm-73 247 117 148h150l117-148H359l-56 74h-18l-56-74H102zm80 188-69 44 33 57q15 26 36.5 37.5T229 890q22 0 38.5-8.5T300 859q9-8 19.5-16t23.5-8q15 0 24.5 10t16.5 21l16 24 69-44-33-57q-15-25-36-37t-47-12q-22 0-38.5 8.5T282 771q-9 8-19 16t-24 8q-15 0-24-10t-17-21z"/><glyph glyph-name="uni1EC6" unicode="Ệ" horiz-adv-x="554" d="M66 0v700h450V580H198V413h290V293H198V120h324V0H66zm228-214q-34 0-57.5 22T213-134t23.5 58T294-54q35 0 58-22t23-58-23-58-58-22zM104 758l114 130h156l114-130H354l-49 66h-18l-49-66H104z"/><glyph glyph-name="uni1EC7" unicode="ệ" horiz-adv-x="577" d="M296-14q-74 0-130.5 31.5t-88 89T46 242v12q0 78 31 135.5t87 89T294 510q73 0 127-32.5t84-90T535 254v-43H174q2-51 38-83t88-32q53 0 78 23t38 51l103-54q-14-26-40.5-56.5T408 7.5 296-14zM175 305h232q-4 43-34.5 69T293 400q-51 0-81-26t-37-69zm121-519q-34 0-57.5 22T215-134t23.5 58T296-54q35 0 58-22t23-58-23-58-58-22zM102 552l117 148h150l117-148H359l-56 74h-18l-56-74H102z"/><glyph glyph-name="uni1EC8" unicode="Ỉ" horiz-adv-x="264" d="M66 0v700h132V0H66zm29 748-5 80h38q26 0 37.5 7.5T177 857q0 16-13 23.5t-33 7.5q-27 0-48.5-5T42 872l-20 75q22 8 52.5 13.5T137 966q34 0 64.5-10t49.5-30.5 19-53.5q0-40-26.5-62.5T179 787l3-39H95z"/><glyph glyph-name="uni1EC9" unicode="ỉ" horiz-adv-x="266" d="M70 0v496h126V0H70zm23 542-5 80h38q26 0 37.5 7.5T175 651q0 16-13 23.5t-33 7.5q-27 0-48.5-5T40 666l-20 75q22 8 52.5 13.5T135 760q34 0 64.5-10t49.5-30.5 19-53.5q0-40-26.5-62.5T177 581l3-39H93z"/><glyph glyph-name="uni1ECA" unicode="Ị" horiz-adv-x="264" d="M66 0v700h132V0H66zm66-214q-34 0-57.5 22T51-134t23.5 58T132-54q35 0 58-22t23-58-23-58-58-22z"/><glyph glyph-name="uni1ECB" unicode="ị" horiz-adv-x="266" d="M70 0v496h126V0H70zm63 554q-34 0-57.5 22T52 634t23.5 58 57.5 22q35 0 58-22t23-58-23-58-58-22zm0-768q-34 0-57.5 22T52-134t23.5 58T133-54q35 0 58-22t23-58-23-58-58-22z"/><glyph glyph-name="uni1ECC" unicode="Ọ" horiz-adv-x="676" d="M338-14q-132 0-210 72.5T50 266v168q0 135 78 207.5T338 714t210-72.5T626 434V266q0-135-78-207.5T338-14zm0 118q74 0 115 43t41 115v176q0 72-41 115t-115 43q-73 0-114.5-43T182 438V262q0-72 41.5-115T338 104zm0-318q-34 0-57.5 22T257-134t23.5 58T338-54q35 0 58-22t23-58-23-58-58-22z"/><glyph glyph-name="uni1ECD" unicode="ọ" horiz-adv-x="612" d="M306-14q-74 0-133 30t-93 87-34 137v16q0 80 34 137t93 87 133 30 133-30 93-87 34-137v-16q0-80-34-137t-93-87-133-30zm0 112q58 0 96 37.5T440 243v10q0 70-37.5 107.5T306 398q-58 0-96-37.5T172 253v-10q0-70 38-107.5T306 98zm0-312q-34 0-57.5 22T225-134t23.5 58T306-54q35 0 58-22t23-58-23-58-58-22z"/><glyph glyph-name="uni1ECE" unicode="Ỏ" horiz-adv-x="676" d="M338-14q-132 0-210 72.5T50 266v168q0 135 78 207.5T338 714t210-72.5T626 434V266q0-135-78-207.5T338-14zm0 118q74 0 115 43t41 115v176q0 72-41 115t-115 43q-73 0-114.5-43T182 438V262q0-72 41.5-115T338 104zm-37 644-5 80h38q26 0 37.5 7.5T383 857q0 16-13 23.5t-33 7.5q-27 0-48.5-5T248 872l-20 75q22 8 52.5 13.5T343 966q34 0 64.5-10t49.5-30.5 19-53.5q0-40-26.5-62.5T385 787l3-39h-87z"/><glyph glyph-name="uni1ECF" unicode="ỏ" horiz-adv-x="612" d="M306-14q-74 0-133 30t-93 87-34 137v16q0 80 34 137t93 87 133 30 133-30 93-87 34-137v-16q0-80-34-137t-93-87-133-30zm0 112q58 0 96 37.5T440 243v10q0 70-37.5 107.5T306 398q-58 0-96-37.5T172 253v-10q0-70 38-107.5T306 98zm-40 444-5 80h38q26 0 37.5 7.5T348 651q0 16-13 23.5t-33 7.5q-27 0-48.5-5T213 666l-20 75q22 8 52.5 13.5T308 760q34 0 64.5-10t49.5-30.5 19-53.5q0-40-26.5-62.5T350 581l3-39h-87z"/><glyph glyph-name="uni1ED0" unicode="Ố" horiz-adv-x="676" d="M338-14q-132 0-210 72.5T50 266v168q0 135 78 207.5T338 714t210-72.5T626 434V266q0-135-78-207.5T338-14zm0 118q74 0 115 43t41 115v176q0 72-41 115t-115 43q-73 0-114.5-43T182 438V262q0-72 41.5-115T338 104zM146 758l114 130h156l114-130H396l-49 66h-18l-49-66H146zm338 92 40 132h116l-62-132h-94z"/><glyph glyph-name="uni1ED1" unicode="ố" horiz-adv-x="612" d="M306-14q-74 0-133 30t-93 87-34 137v16q0 80 34 137t93 87 133 30 133-30 93-87 34-137v-16q0-80-34-137t-93-87-133-30zm0 112q58 0 96 37.5T440 243v10q0 70-37.5 107.5T306 398q-58 0-96-37.5T172 253v-10q0-70 38-107.5T306 98zM114 552l117 148h150l117-148H371l-56 74h-18l-56-74H114zm338 114 52 150h122l-74-150H452z"/><glyph glyph-name="uni1ED2" unicode="Ồ" horiz-adv-x="676" d="M338-14q-132 0-210 72.5T50 266v168q0 135 78 207.5T338 714t210-72.5T626 434V266q0-135-78-207.5T338-14zm0 118q74 0 115 43t41 115v176q0 72-41 115t-115 43q-73 0-114.5-43T182 438V262q0-72 41.5-115T338 104zM146 758l114 130h156l114-130H396l-49 66h-18l-49-66H146zm355 92-64 132h116l42-132h-94z"/><glyph glyph-name="uni1ED3" unicode="ồ" horiz-adv-x="612" d="M306-14q-74 0-133 30t-93 87-34 137v16q0 80 34 137t93 87 133 30 133-30 93-87 34-137v-16q0-80-34-137t-93-87-133-30zm0 112q58 0 96 37.5T440 243v10q0 70-37.5 107.5T306 398q-58 0-96-37.5T172 253v-10q0-70 38-107.5T306 98zM114 552l117 148h150l117-148H371l-56 74h-18l-56-74H114zm356 114-80 150h122l58-150H470z"/><glyph glyph-name="uni1ED4" unicode="Ổ" horiz-adv-x="676" d="M338-14q-132 0-210 72.5T50 266v168q0 135 78 207.5T338 714t210-72.5T626 434V266q0-135-78-207.5T338-14zm0 118q74 0 115 43t41 115v176q0 72-41 115t-115 43q-73 0-114.5-43T182 438V262q0-72 41.5-115T338 104zM146 758l114 130h156l114-130H396l-49 66h-18l-49-66H146zm337 98-5 80h38q26 0 37.5 7.5T565 965q0 16-13 23.5t-33 7.5q-27 0-48.5-5T430 980l-20 75q22 8 52.5 13.5t62.5 5.5q34 0 64.5-10t49.5-30.5 19-53.5q0-40-26.5-62.5T567 895l3-39h-87z"/><glyph glyph-name="uni1ED5" unicode="ổ" horiz-adv-x="612" d="M306-14q-74 0-133 30t-93 87-34 137v16q0 80 34 137t93 87 133 30 133-30 93-87 34-137v-16q0-80-34-137t-93-87-133-30zm0 112q58 0 96 37.5T440 243v10q0 70-37.5 107.5T306 398q-58 0-96-37.5T172 253v-10q0-70 38-107.5T306 98zM114 552l117 148h150l117-148H371l-56 74h-18l-56-74H114zm350 104-5 80h38q26 0 37.5 7.5T546 765q0 16-13 23.5t-33 7.5q-27 0-48.5-5T411 780l-20 75q22 8 52.5 13.5T506 874q34 0 64.5-10t49.5-30.5 19-53.5q0-40-26.5-62.5T548 695l3-39h-87z"/><glyph glyph-name="uni1ED6" unicode="Ỗ" horiz-adv-x="676" d="M338-14q-132 0-210 72.5T50 266v168q0 135 78 207.5T338 714t210-72.5T626 434V266q0-135-78-207.5T338-14zm0 118q74 0 115 43t41 115v176q0 72-41 115t-115 43q-73 0-114.5-43T182 438V262q0-72 41.5-115T338 104zM146 758l114 130h156l114-130H396l-49 66h-18l-49-66H146zm75 166-64 51 32 43q18 24 38.5 37t48.5 13q24 0 39-7t32-21q10-8 20.5-16.5t25.5-8.5q16 0 26 10t19 21l17 22 64-51-32-43q-18-24-38.5-37T400 924q-24 0-39 7t-32 21q-10 8-20.5 16.5T283 977q-16 0-26-10t-19-21z"/><glyph glyph-name="uni1ED7" unicode="ỗ" horiz-adv-x="612" d="M306-14q-74 0-133 30t-93 87-34 137v16q0 80 34 137t93 87 133 30 133-30 93-87 34-137v-16q0-80-34-137t-93-87-133-30zm0 112q58 0 96 37.5T440 243v10q0 70-37.5 107.5T306 398q-58 0-96-37.5T172 253v-10q0-70 38-107.5T306 98zM114 552l117 148h150l117-148H371l-56 74h-18l-56-74H114zm80 188-69 44 33 57q15 26 36.5 37.5T241 890q22 0 38.5-8.5T312 859q9-8 19.5-16t23.5-8q15 0 24.5 10t16.5 21l16 24 69-44-33-57q-15-25-36-37t-47-12q-22 0-38.5 8.5T294 771q-9 8-19 16t-24 8q-15 0-24-10t-17-21z"/><glyph glyph-name="uni1ED8" unicode="Ộ" horiz-adv-x="676" d="M338-14q-132 0-210 72.5T50 266v168q0 135 78 207.5T338 714t210-72.5T626 434V266q0-135-78-207.5T338-14zm0 118q74 0 115 43t41 115v176q0 72-41 115t-115 43q-73 0-114.5-43T182 438V262q0-72 41.5-115T338 104zm0-318q-34 0-57.5 22T257-134t23.5 58T338-54q35 0 58-22t23-58-23-58-58-22zM146 758l114 130h156l114-130H396l-49 66h-18l-49-66H146z"/><glyph glyph-name="uni1ED9" unicode="ộ" horiz-adv-x="612" d="M306-14q-74 0-133 30t-93 87-34 137v16q0 80 34 137t93 87 133 30 133-30 93-87 34-137v-16q0-80-34-137t-93-87-133-30zm0 112q58 0 96 37.5T440 243v10q0 70-37.5 107.5T306 398q-58 0-96-37.5T172 253v-10q0-70 38-107.5T306 98zm0-312q-34 0-57.5 22T225-134t23.5 58T306-54q35 0 58-22t23-58-23-58-58-22zM114 552l117 148h150l117-148H371l-56 74h-18l-56-74H114z"/><glyph glyph-name="uni1EDA" unicode="Ớ" horiz-adv-x="692" d="M338-14q-132 0-210 72.5T50 266v168q0 135 78 207.5T338 714t210-72.5T626 434V266q0-135-78-207.5T338-14zm0 118q74 0 115 43t41 115v176q0 72-41 115t-115 43q-73 0-114.5-43T182 438V262q0-72 41.5-115T338 104zm195 482-48 79q43 2 62 19t19 62v48h118v-52q0-61-18.5-95.5t-52.5-48-80-12.5zM260 758l70 130h146L372 758H260z"/><glyph glyph-name="uni1EDB" unicode="ớ" horiz-adv-x="642" d="M306-14q-74 0-133 30t-93 87-34 137v16q0 80 34 137t93 87 133 30 133-30 93-87 34-137v-16q0-80-34-137t-93-87-133-30zm0 112q58 0 96 37.5T440 243v10q0 70-37.5 107.5T306 398q-58 0-96-37.5T172 253v-10q0-70 38-107.5T306 98zm175 284-48 79q43 2 62 19t19 62v48h118v-52q0-61-18.5-95.5t-52.5-48-80-12.5zM230 552l74 148h142L340 552H230z"/><glyph glyph-name="uni1EDC" unicode="Ờ" horiz-adv-x="692" d="M338-14q-132 0-210 72.5T50 266v168q0 135 78 207.5T338 714t210-72.5T626 434V266q0-135-78-207.5T338-14zm0 118q74 0 115 43t41 115v176q0 72-41 115t-115 43q-73 0-114.5-43T182 438V262q0-72 41.5-115T338 104zm195 482-48 79q43 2 62 19t19 62v48h118v-52q0-61-18.5-95.5t-52.5-48-80-12.5zM304 758 200 888h146l70-130H304z"/><glyph glyph-name="uni1EDD" unicode="ờ" horiz-adv-x="642" d="M306-14q-74 0-133 30t-93 87-34 137v16q0 80 34 137t93 87 133 30 133-30 93-87 34-137v-16q0-80-34-137t-93-87-133-30zm0 112q58 0 96 37.5T440 243v10q0 70-37.5 107.5T306 398q-58 0-96-37.5T172 253v-10q0-70 38-107.5T306 98zm175 284-48 79q43 2 62 19t19 62v48h118v-52q0-61-18.5-95.5t-52.5-48-80-12.5zM272 552 166 700h142l74-148H272z"/><glyph glyph-name="uni1EDE" unicode="Ở" horiz-adv-x="692" d="M338-14q-132 0-210 72.5T50 266v168q0 135 78 207.5T338 714t210-72.5T626 434V266q0-135-78-207.5T338-14zm0 118q74 0 115 43t41 115v176q0 72-41 115t-115 43q-73 0-114.5-43T182 438V262q0-72 41.5-115T338 104zm195 482-48 79q43 2 62 19t19 62v48h118v-52q0-61-18.5-95.5t-52.5-48-80-12.5zM301 748l-5 80h38q26 0 37.5 7.5T383 857q0 16-13 23.5t-33 7.5q-27 0-48.5-5T248 872l-20 75q22 8 52.5 13.5T343 966q34 0 64.5-10t49.5-30.5 19-53.5q0-40-26.5-62.5T385 787l3-39h-87z"/><glyph glyph-name="uni1EDF" unicode="ở" horiz-adv-x="642" d="M306-14q-74 0-133 30t-93 87-34 137v16q0 80 34 137t93 87 133 30 133-30 93-87 34-137v-16q0-80-34-137t-93-87-133-30zm0 112q58 0 96 37.5T440 243v10q0 70-37.5 107.5T306 398q-58 0-96-37.5T172 253v-10q0-70 38-107.5T306 98zm175 284-48 79q43 2 62 19t19 62v48h118v-52q0-61-18.5-95.5t-52.5-48-80-12.5zM266 542l-5 80h38q26 0 37.5 7.5T348 651q0 16-13 23.5t-33 7.5q-27 0-48.5-5T213 666l-20 75q22 8 52.5 13.5T308 760q34 0 64.5-10t49.5-30.5 19-53.5q0-40-26.5-62.5T350 581l3-39h-87z"/><glyph glyph-name="uni1EE0" unicode="Ỡ" horiz-adv-x="692" d="M338-14q-132 0-210 72.5T50 266v168q0 135 78 207.5T338 714t210-72.5T626 434V266q0-135-78-207.5T338-14zm0 118q74 0 115 43t41 115v176q0 72-41 115t-115 43q-73 0-114.5-43T182 438V262q0-72 41.5-115T338 104zm195 482-48 79q43 2 62 19t19 62v48h118v-52q0-61-18.5-95.5t-52.5-48-80-12.5zM221 746l-64 51 32 43q18 24 38.5 37t48.5 13q24 0 39-7t32-21q10-8 20.5-16.5T393 837q16 0 26 10t19 21l17 22 64-51-32-43q-18-24-38.5-37T400 746q-24 0-39 7t-32 21q-10 8-20.5 16.5T283 799q-16 0-26-10t-19-21z"/><glyph glyph-name="uni1EE1" unicode="ỡ" horiz-adv-x="642" d="M306-14q-74 0-133 30t-93 87-34 137v16q0 80 34 137t93 87 133 30 133-30 93-87 34-137v-16q0-80-34-137t-93-87-133-30zm0 112q58 0 96 37.5T440 243v10q0 70-37.5 107.5T306 398q-58 0-96-37.5T172 253v-10q0-70 38-107.5T306 98zm175 284-48 79q43 2 62 19t19 62v48h118v-52q0-61-18.5-95.5t-52.5-48-80-12.5zM194 542l-69 44 33 57q15 26 36.5 37.5T241 692q22 0 38.5-8.5T312 661q9-8 19.5-16t23.5-8q15 0 24.5 10t16.5 21l16 24 69-44-33-57q-15-25-36-37t-47-12q-22 0-38.5 8.5T294 573q-9 8-19 16t-24 8q-15 0-24-10t-17-21z"/><glyph glyph-name="uni1EE2" unicode="Ợ" horiz-adv-x="692" d="M338-14q-132 0-210 72.5T50 266v168q0 135 78 207.5T338 714t210-72.5T626 434V266q0-135-78-207.5T338-14zm0 118q74 0 115 43t41 115v176q0 72-41 115t-115 43q-73 0-114.5-43T182 438V262q0-72 41.5-115T338 104zm195 482-48 79q43 2 62 19t19 62v48h118v-52q0-61-18.5-95.5t-52.5-48-80-12.5zM338-214q-34 0-57.5 22T257-134t23.5 58T338-54q35 0 58-22t23-58-23-58-58-22z"/><glyph glyph-name="uni1EE3" unicode="ợ" horiz-adv-x="642" d="M306-14q-74 0-133 30t-93 87-34 137v16q0 80 34 137t93 87 133 30 133-30 93-87 34-137v-16q0-80-34-137t-93-87-133-30zm0 112q58 0 96 37.5T440 243v10q0 70-37.5 107.5T306 398q-58 0-96-37.5T172 253v-10q0-70 38-107.5T306 98zm175 284-48 79q43 2 62 19t19 62v48h118v-52q0-61-18.5-95.5t-52.5-48-80-12.5zM306-214q-34 0-57.5 22T225-134t23.5 58T306-54q35 0 58-22t23-58-23-58-58-22z"/><glyph glyph-name="uni1EE4" unicode="Ụ" horiz-adv-x="672" d="M336-14q-86 0-147.5 31.5t-94 90T62 246v454h132V242q0-64 36.5-101T336 104t105.5 37T478 242v458h132V246q0-80-32.5-138.5t-94-90T336-14zm0-200q-34 0-57.5 22T255-134t23.5 58T336-54q35 0 58-22t23-58-23-58-58-22z"/><glyph glyph-name="uni1EE5" unicode="ụ" horiz-adv-x="616" d="M259-8q-58 0-101.5 26.5T90 92 66 200v296h126V210q0-56 27.5-84T298 98q58 0 90 38.5T420 244v252h126V0H422v65h-18q-12-25-45-49T259-8zm45-206q-34 0-57.5 22T223-134t23.5 58T304-54q35 0 58-22t23-58-23-58-58-22z"/><glyph glyph-name="uni1EE6" unicode="Ủ" horiz-adv-x="672" d="M336-14q-86 0-147.5 31.5t-94 90T62 246v454h132V242q0-64 36.5-101T336 104t105.5 37T478 242v458h132V246q0-80-32.5-138.5t-94-90T336-14zm-37 752-5 80h38q26 0 37.5 7.5T381 847q0 16-13 23.5t-33 7.5q-27 0-48.5-5T246 862l-20 75q22 8 52.5 13.5T341 956q34 0 64.5-10t49.5-30.5 19-53.5q0-40-26.5-62.5T383 777l3-39h-87z"/><glyph glyph-name="uni1EE7" unicode="ủ" horiz-adv-x="616" d="M259-8q-58 0-101.5 26.5T90 92 66 200v296h126V210q0-56 27.5-84T298 98q58 0 90 38.5T420 244v252h126V0H422v65h-18q-12-25-45-49T259-8zm7 540-5 80h38q26 0 37.5 7.5T348 641q0 16-13 23.5t-33 7.5q-27 0-48.5-5T213 656l-20 75q22 8 52.5 13.5T308 750q34 0 64.5-10t49.5-30.5 19-53.5q0-40-26.5-62.5T350 571l3-39h-87z"/><glyph glyph-name="uni1EE8" unicode="Ứ" horiz-adv-x="744" d="M336-14q-86 0-147.5 31.5t-94 90T62 246v454h132V242q0-64 36.5-101T336 104t105.5 37T478 242v458h132V246q0-80-32.5-138.5t-94-90T336-14zm246 624v90h9q20 0 30 10.5t10 31.5v68h119l-1-68q-1-67-35.5-99.5T611 610h-29zM258 758l70 130h146L370 758H258z"/><glyph glyph-name="uni1EE9" unicode="ứ" horiz-adv-x="684" d="M259-8q-58 0-101.5 26.5T90 92 66 200v296h126V210q0-56 27.5-84T298 98q58 0 90 38.5T420 244v252h126V0H422v65h-18q-12-25-45-49T259-8zm259 414v90h9q20 0 30 10.5t10 31.5v68h119l-1-68q-1-67-35.5-99.5T547 406h-29zM230 552l74 148h142L340 552H230z"/><glyph glyph-name="uni1EEA" unicode="Ừ" horiz-adv-x="744" d="M336-14q-86 0-147.5 31.5t-94 90T62 246v454h132V242q0-64 36.5-101T336 104t105.5 37T478 242v458h132V246q0-80-32.5-138.5t-94-90T336-14zm246 624v90h9q20 0 30 10.5t10 31.5v68h119l-1-68q-1-67-35.5-99.5T611 610h-29zM302 758 198 888h146l70-130H302z"/><glyph glyph-name="uni1EEB" unicode="ừ" horiz-adv-x="684" d="M259-8q-58 0-101.5 26.5T90 92 66 200v296h126V210q0-56 27.5-84T298 98q58 0 90 38.5T420 244v252h126V0H422v65h-18q-12-25-45-49T259-8zm259 414v90h9q20 0 30 10.5t10 31.5v68h119l-1-68q-1-67-35.5-99.5T547 406h-29zM272 552 166 700h142l74-148H272z"/><glyph glyph-name="uni1EEC" unicode="Ử" horiz-adv-x="744" d="M336-14q-86 0-147.5 31.5t-94 90T62 246v454h132V242q0-64 36.5-101T336 104t105.5 37T478 242v458h132V246q0-80-32.5-138.5t-94-90T336-14zm246 624v90h9q20 0 30 10.5t10 31.5v68h119l-1-68q-1-67-35.5-99.5T611 610h-29zM299 738l-5 80h38q26 0 37.5 7.5T381 847q0 16-13 23.5t-33 7.5q-27 0-48.5-5T246 862l-20 75q22 8 52.5 13.5T341 956q34 0 64.5-10t49.5-30.5 19-53.5q0-40-26.5-62.5T383 777l3-39h-87z"/><glyph glyph-name="uni1EED" unicode="ử" horiz-adv-x="684" d="M259-8q-58 0-101.5 26.5T90 92 66 200v296h126V210q0-56 27.5-84T298 98q58 0 90 38.5T420 244v252h126V0H422v65h-18q-12-25-45-49T259-8zm259 414v90h9q20 0 30 10.5t10 31.5v68h119l-1-68q-1-67-35.5-99.5T547 406h-29zM266 532l-5 80h38q26 0 37.5 7.5T348 641q0 16-13 23.5t-33 7.5q-27 0-48.5-5T213 656l-20 75q22 8 52.5 13.5T308 750q34 0 64.5-10t49.5-30.5 19-53.5q0-40-26.5-62.5T350 571l3-39h-87z"/><glyph glyph-name="uni1EEE" unicode="Ữ" horiz-adv-x="744" d="M336-14q-86 0-147.5 31.5t-94 90T62 246v454h132V242q0-64 36.5-101T336 104t105.5 37T478 242v458h132V246q0-80-32.5-138.5t-94-90T336-14zm246 624v90h9q20 0 30 10.5t10 31.5v68h119l-1-68q-1-67-35.5-99.5T611 610h-29zM219 746l-64 51 32 43q18 24 38.5 37t48.5 13q24 0 39-7t32-21q10-8 20.5-16.5T391 837q16 0 26 10t19 21l17 22 64-51-32-43q-18-24-38.5-37T398 746q-24 0-39 7t-32 21q-10 8-20.5 16.5T281 799q-16 0-26-10t-19-21z"/><glyph glyph-name="uni1EEF" unicode="ữ" horiz-adv-x="684" d="M259-8q-58 0-101.5 26.5T90 92 66 200v296h126V210q0-56 27.5-84T298 98q58 0 90 38.5T420 244v252h126V0H422v65h-18q-12-25-45-49T259-8zm259 414v90h9q20 0 30 10.5t10 31.5v68h119l-1-68q-1-67-35.5-99.5T547 406h-29zM194 542l-69 44 33 57q15 26 36.5 37.5T241 692q22 0 38.5-8.5T312 661q9-8 19.5-16t23.5-8q15 0 24.5 10t16.5 21l16 24 69-44-33-57q-15-25-36-37t-47-12q-22 0-38.5 8.5T294 573q-9 8-19 16t-24 8q-15 0-24-10t-17-21z"/><glyph glyph-name="uni1EF0" unicode="Ự" horiz-adv-x="744" d="M336-14q-86 0-147.5 31.5t-94 90T62 246v454h132V242q0-64 36.5-101T336 104t105.5 37T478 242v458h132V246q0-80-32.5-138.5t-94-90T336-14zm246 624v90h9q20 0 30 10.5t10 31.5v68h119l-1-68q-1-67-35.5-99.5T611 610h-29zM336-214q-34 0-57.5 22T255-134t23.5 58T336-54q35 0 58-22t23-58-23-58-58-22z"/><glyph glyph-name="uni1EF1" unicode="ự" horiz-adv-x="684" d="M259-8q-58 0-101.5 26.5T90 92 66 200v296h126V210q0-56 27.5-84T298 98q58 0 90 38.5T420 244v252h126V0H422v65h-18q-12-25-45-49T259-8zm259 414v90h9q20 0 30 10.5t10 31.5v68h119l-1-68q-1-67-35.5-99.5T547 406h-29zM304-214q-34 0-57.5 22T223-134t23.5 58T304-54q35 0 58-22t23-58-23-58-58-22z"/><glyph glyph-name="Ygrave" unicode="Ỳ" horiz-adv-x="624" d="M246 0v241L8 700h147l148-300h18l148 300h147L378 241V0H246zm32 758L174 888h146l70-130H278z"/><glyph glyph-name="ygrave" unicode="ỳ" horiz-adv-x="616" d="M124-200v110h270q28 0 28 30V65h-18q-8-17-25-34T333 3 259-8q-58 0-101.5 26.5T90 92 66 200v296h126V210q0-56 27.5-84T298 98q58 0 90 38.5T420 244v252h126V-88q0-51-30-81.5T436-200H124zm148 752L166 700h142l74-148H272z"/><glyph glyph-name="uni1EF4" unicode="Ỵ" horiz-adv-x="624" d="M246 0v241L8 700h147l148-300h18l148 300h147L378 241V0H246zm66-214q-34 0-57.5 22T231-134t23.5 58T312-54q35 0 58-22t23-58-23-58-58-22z"/><glyph glyph-name="uni1EF5" unicode="ỵ" horiz-adv-x="616" d="M124-200v110h270q28 0 28 30V65h-18q-8-17-25-34T333 3 259-8q-58 0-101.5 26.5T90 92 66 200v296h126V210q0-56 27.5-84T298 98q58 0 90 38.5T420 244v252h126V-88q0-51-30-81.5T436-200H124zm536-14q-34 0-57.5 22T579-134t23.5 58T660-54q35 0 58-22t23-58-23-58-58-22z"/><glyph glyph-name="uni1EF6" unicode="Ỷ" horiz-adv-x="624" d="M246 0v241L8 700h147l148-300h18l148 300h147L378 241V0H246zm29 738-5 80h38q26 0 37.5 7.5T357 847q0 16-13 23.5t-33 7.5q-27 0-48.5-5T222 862l-20 75q22 8 52.5 13.5T317 956q34 0 64.5-10t49.5-30.5 19-53.5q0-40-26.5-62.5T359 777l3-39h-87z"/><glyph glyph-name="uni1EF7" unicode="ỷ" horiz-adv-x="616" d="M124-200v110h270q28 0 28 30V65h-18q-8-17-25-34T333 3 259-8q-58 0-101.5 26.5T90 92 66 200v296h126V210q0-56 27.5-84T298 98q58 0 90 38.5T420 244v252h126V-88q0-51-30-81.5T436-200H124zm142 732-5 80h38q26 0 37.5 7.5T348 641q0 16-13 23.5t-33 7.5q-27 0-48.5-5T213 656l-20 75q22 8 52.5 13.5T308 750q34 0 64.5-10t49.5-30.5 19-53.5q0-40-26.5-62.5T350 571l3-39h-87z"/><glyph glyph-name="uni1EF8" unicode="Ỹ" horiz-adv-x="624" d="M246 0v241L8 700h147l148-300h18l148 300h147L378 241V0H246zm-51 746-64 51 32 43q18 24 38.5 37t48.5 13q24 0 39-7t32-21q10-8 20.5-16.5T367 837q16 0 26 10t19 21l17 22 64-51-32-43q-18-24-38.5-37T374 746q-24 0-39 7t-32 21q-10 8-20.5 16.5T257 799q-16 0-26-10t-19-21z"/><glyph glyph-name="uni1EF9" unicode="ỹ" horiz-adv-x="616" d="M124-200v110h270q28 0 28 30V65h-18q-8-17-25-34T333 3 259-8q-58 0-101.5 26.5T90 92 66 200v296h126V210q0-56 27.5-84T298 98q58 0 90 38.5T420 244v252h126V-88q0-51-30-81.5T436-200H124zm70 742-69 44 33 57q15 26 36.5 37.5T241 692q22 0 38.5-8.5T312 661q9-8 19.5-16t23.5-8q15 0 24.5 10t16.5 21l16 24 69-44-33-57q-15-25-36-37t-47-12q-22 0-38.5 8.5T294 573q-9 8-19 16t-24 8q-15 0-24-10t-17-21z"/><glyph glyph-name="uni2007" horiz-adv-x="620"/><glyph glyph-name="uni2008" horiz-adv-x="298"/><glyph glyph-name="uni2009" horiz-adv-x="184"/><glyph glyph-name="uni200A" horiz-adv-x="46"/><glyph glyph-name="uni200B" unicode="​"/><glyph glyph-name="uni2010" unicode="‐" horiz-adv-x="432" d="M68 198v114h296V198H68z"/><glyph glyph-name="figuredash" unicode="‒" horiz-adv-x="620" d="M68 198v114h484V198H68z"/><glyph glyph-name="endash" unicode="–" horiz-adv-x="584" d="M68 198v114h448V198H68z"/><glyph glyph-name="emdash" unicode="—" horiz-adv-x="888" d="M68 198v114h752V198H68z"/><glyph glyph-name="uni2015" unicode="―" horiz-adv-x="888" d="M68 198v114h752V198H68z"/><glyph glyph-name="quoteleft" unicode="‘" horiz-adv-x="294" d="M215 714v-68h-39q-46 0-46-46v-32h17q40 0 66.5-24t26.5-61q0-40-26.5-65T147 393q-41 0-67 25.5T54 487v115q0 112 112 112h49z"/><glyph glyph-name="quoteright" unicode="’" horiz-adv-x="294" d="M79 393v68h39q46 0 46 46v32h-17q-40 0-66.5 24T54 624q0 40 26.5 65t66.5 25q41 0 67-25.5t26-68.5V505q0-112-112-112H79z"/><glyph glyph-name="quotesinglbase" unicode="‚" horiz-adv-x="294" d="M79-147v68h39q46 0 46 46v32h-17q-40 0-66.5 24T54 84q0 40 26.5 65t66.5 25q41 0 67-25.5T240 80V-35q0-112-112-112H79z"/><glyph glyph-name="quotedblleft" unicode="“" horiz-adv-x="514" d="M435 714v-68h-39q-46 0-46-46v-32h17q40 0 66.5-24t26.5-61q0-40-26.5-65T367 393q-41 0-67 25.5T274 487v115q0 112 112 112h49zm-220 0v-68h-39q-46 0-46-46v-32h17q40 0 66.5-24t26.5-61q0-40-26.5-65T147 393q-41 0-67 25.5T54 487v115q0 112 112 112h49z"/><glyph glyph-name="quotedblright" unicode="”" horiz-adv-x="514" d="M79 393v68h39q46 0 46 46v32h-17q-40 0-66.5 24T54 624q0 40 26.5 65t66.5 25q41 0 67-25.5t26-68.5V505q0-112-112-112H79zm220 0v68h39q46 0 46 46v32h-17q-40 0-66.5 24T274 624q0 40 26.5 65t66.5 25q41 0 67-25.5t26-68.5V505q0-112-112-112h-49z"/><glyph glyph-name="quotedblbase" unicode="„" horiz-adv-x="514" d="M79-147v68h39q46 0 46 46v32h-17q-40 0-66.5 24T54 84q0 40 26.5 65t66.5 25q41 0 67-25.5T240 80V-35q0-112-112-112H79zm220 0v68h39q46 0 46 46v32h-17q-40 0-66.5 24T274 84q0 40 26.5 65t66.5 25q41 0 67-25.5T460 80V-35q0-112-112-112h-49z"/><glyph glyph-name="dagger" unicode="†" horiz-adv-x="570" d="M222 0v392H62v104h160v204h126V496h160V392H348V0H222z"/><glyph glyph-name="daggerdbl" unicode="‡" horiz-adv-x="570" d="M222 0v180H62v104h160v134H62v104h160v178h126V522h160V418H348V284h160V180H348V0H222z"/><glyph glyph-name="bullet" unicode="•" horiz-adv-x="400" d="M200 111q-40 0-72.5 19t-52 52T56 256q0 40 18.5 72.5T126 380t74 19q42 0 74.5-18.5t51-51T344 255t-19.5-74.5-52.5-51-72-18.5z"/><glyph glyph-name="ellipsis" unicode="…" horiz-adv-x="798" d="M150-14q-41 0-68.5 26.5T54 81t27.5 68.5T150 176q40 0 67-26.5T244 81t-27-68.5T150-14zm250 0q-41 0-68.5 26.5T304 81t27.5 68.5T400 176q40 0 67-26.5T494 81t-27-68.5T400-14zm250 0q-41 0-68.5 26.5T554 81t27.5 68.5T650 176q40 0 67-26.5T744 81t-27-68.5T650-14z"/><glyph glyph-name="perthousand" unicode="‰" horiz-adv-x="954" d="M148-13 72 48l538 665 76-61zm403 3q-67 0-104 41t-37 111v6q0 71 37 111.5T551 300t101-40.5T686 148v-6q0-70-34-111T551-10zm11 82q26 0 42 18.5t16 48.5v12q0 30-16 48.5T562 218t-42-18.5-16-48.5v-12q0-30 16-48.5T562 72zM188 400q-76 0-119 40.5T26 551v7q0 71 43 111.5T188 710q74 0 118-40.5T350 558v-7q0-70-43-110.5T188 400zm0 82q29 0 45.5 18t16.5 47v16q0 29-16.5 47T188 628t-45.5-18-16.5-47v-16q0-29 16.5-47t45.5-18zM660 42v206h18V42h-18zm116 30q26 0 42 18.5t16 48.5v12q0 30-16 48.5T776 218t-42-18.5-16-48.5v-12q0-30 16-48.5T776 72zm11-82q-67 0-101 41t-34 111v6q0 71 34 111.5T787 300q68 0 104.5-40.5T928 148v-6q0-70-36.5-111T787-10z"/><glyph glyph-name="minute" unicode="′" horiz-adv-x="232" d="m48 420 11 280h129l-40-280H48z"/><glyph glyph-name="second" unicode="″" horiz-adv-x="416" d="m230 420 17 280h125l-42-280H230zm-182 0 3 280h125l-32-280H48z"/><glyph glyph-name="guilsinglleft" unicode="‹" horiz-adv-x="480" d="M406 6 52 176v144l354 170h6V355l-234-98v-18l234-98V6h-6z"/><glyph glyph-name="guilsinglright" unicode="›" horiz-adv-x="480" d="M68 6v135l234 98v18L68 355v135h6l354-170V176L74 6h-6z"/><glyph glyph-name="fraction" unicode="⁄" horiz-adv-x="638" d="M83-10 16 45l539 665 67-55z"/><glyph glyph-name="uni2052" unicode="⁒" horiz-adv-x="686" d="M112-13 36 48l538 665 76-61zm428-1q-43 0-73.5 30T436 90t29.5 74 74.5 30 74.5-29.5T644 90q0-46-31-75t-73-29zM156 506q-43 0-73.5 30T52 610t29.5 74 74.5 30 74.5-29.5T260 610q0-46-31-75t-73-29z"/><glyph glyph-name="uni2070" unicode="⁰" horiz-adv-x="380" d="M190 340q-76 0-117 40.5T32 491v67q0 71 41 111.5T190 710t117-40.5T348 558v-67q0-70-41-110.5T190 340zm1 76q31 0 47 19t16 50v80q0 31-16 50t-47 19q-32 0-48.5-19T126 565v-80q0-31 16.5-50t48.5-19z"/><glyph glyph-name="uni2071" unicode="ⁱ" horiz-adv-x="200" d="M53 350v350h94V350H53zm47 396q-27 0-45.5 18T36 808t18.5 44 45.5 18 45.5-18 18.5-44-18.5-44-45.5-18z"/><glyph glyph-name="uni2074" unicode="⁴" horiz-adv-x="390" d="M220 350v71H18v88l133 191h163V497h60v-76h-60v-71h-94zM118 497h102v139h-14l-88-127v-12z"/><glyph glyph-name="uni2075" unicode="⁵" horiz-adv-x="360" d="M182 338q-70 0-111 33t-47 82l94 7q4-19 21-32.5t43-13.5q27 0 43.5 14.5T242 466t-15.5 35-37.5 12q-21 0-32.5-7.5T139 491H34v209h292v-76H128v-68h14q10 9 27.5 17.5T220 582q29 0 55.5-13t43.5-38.5 17-63.5q0-56-40-92.5T182 338z"/><glyph glyph-name="uni2076" unicode="⁶" horiz-adv-x="370" d="M189 338q-69 0-113 35t-44 95v108q0 63 45 99.5T189 712q65 0 104-30.5t46-73.5l-95-7q-3 13-15 24t-40 11-45.5-16-17.5-42v-26h14q8 8 26 16.5t49 8.5q53 0 92-28t39-85-44-91.5T189 338zm0 76q30 0 46.5 13.5T252 462t-16.5 34.5T189 510t-46.5-13.5T126 462t16.5-34.5T189 414z"/><glyph glyph-name="uni2077" unicode="⁷" horiz-adv-x="336" d="M77 350q0 33 6.5 56.5T112 459l113 151v14H12v76h310V594L190 416q-13-19-17-31.5t-4-34.5H77z"/><glyph glyph-name="uni2078" unicode="⁸" horiz-adv-x="372" d="M187 338q-77 0-118 29.5T28 443q0 28 10 44.5T62 513t25 12v14q-14 5-33.5 22T34 614q0 44 41 71t111 27 111-27 41-71q0-36-19.5-53T285 539v-14q11-3 25-12t24-25.5 10-44.5q0-46-40.5-75.5T187 338zm-1 76q31 0 48.5 10.5T252 453t-17.5 28.5T186 492t-48.5-10.5T120 453t17.5-28.5T186 414zm0 154q29 0 44.5 10t15.5 25-15.5 24-43.5 9q-29 0-45-9t-16-24 16-25 44-10z"/><glyph glyph-name="uni2079" unicode="⁹" horiz-adv-x="370" d="M181 338q-64 0-103.5 30.5T31 442l95 7q3-13 15-24t40-11q29 0 46 16.5t17 41.5v26h-14q-7-7-25.5-16t-49.5-9q-52 0-91.5 28T24 586t44 91.5T181 712t113-35 44-95V474q0-63-44.5-99.5T181 338zm0 202q30 0 46.5 13.5T244 588t-16.5 34.5T181 636t-46.5-13.5T118 588t16.5-34.5T181 540z"/><glyph glyph-name="uni207D" unicode="⁽" horiz-adv-x="274" d="M264 266q-106 0-162 54T46 484v80q0 110 56 164t162 54v-78q-68 0-100-33.5T132 564v-80q0-73 32-106.5T264 344v-78z"/><glyph glyph-name="uni207E" unicode="⁾" horiz-adv-x="274" d="M10 266v78q68 0 100 33.5T142 484v80q0 73-32 106.5T10 704v78q106 0 162-54t56-164v-80q0-110-56-164T10 266z"/><glyph glyph-name="uni207F" unicode="ⁿ" horiz-adv-x="446" d="M50 350v350h92v-46h14q9 18 33.5 36t70.5 18q65 0 102.5-42T400 558V350h-94v200q0 80-75 80-41 0-64-27.5T144 526V350H50z"/><glyph glyph-name="uni2080" unicode="₀" horiz-adv-x="380" d="M190-210q-76 0-117 40.5T32-59V8q0 71 41 111.5T190 160t117-40.5T348 8v-67q0-70-41-110.5T190-210zm1 76q31 0 47 19t16 50v80q0 31-16 50t-47 19q-32 0-48.5-19T126 15v-80q0-31 16.5-50t48.5-19z"/><glyph glyph-name="uni2081" unicode="₁" horiz-adv-x="262" d="M130-200V72h-14L101-6H16l38 156h168v-350h-92z"/><glyph glyph-name="uni2082" unicode="₂" horiz-adv-x="364" d="M26-200v44q0 60 32 94t99 49q44 10 64.5 23T242 44q0 20-16 31t-40 11-42-12.5T124 30l-94 7q5 61 48 93t108 32 107.5-32.5T336 43t-37.5-81T197-79q-40-8-55.5-18T126-124h208v-76H26z"/><glyph glyph-name="uni2083" unicode="₃" horiz-adv-x="363" d="M181-212q-66 0-111 32T20-90l93 10q3-25 22.5-40.5T181-136q29 0 45.5 15T243-85q0 22-16.5 33.5T179-40h-66v66l85 36v14H27v74h308V72L229 22V8q51-2 79.5-25.5T337-89q0-36-20.5-63.5t-56-43.5-79.5-16z"/><glyph glyph-name="uni2084" unicode="₄" horiz-adv-x="390" d="M220-200v71H18v88l133 191h163V-53h60v-76h-60v-71h-94zM118-53h102V86h-14L118-41v-12z"/><glyph glyph-name="uni2085" unicode="₅" horiz-adv-x="360" d="M182-212q-70 0-111 33T24-97l94 7q4-19 21-32.5t43-13.5q27 0 43.5 14.5T242-84t-15.5 35T189-37q-21 0-32.5-7.5T139-59H34v209h292V74H128V6h14q10 9 27.5 17.5T220 32q29 0 55.5-13T319-19.5 336-83q0-56-40-92.5T182-212z"/><glyph glyph-name="uni2086" unicode="₆" horiz-adv-x="370" d="M189-212q-69 0-113 35T32-82V26q0 63 45 99.5T189 162q65 0 104-30.5T339 58l-95-7q-3 13-15 24t-40 11-45.5-16T126 28V2h14q8 8 26 16.5t49 8.5q53 0 92-28t39-85-44-91.5T189-212zm0 76q30 0 46.5 13.5T252-88t-16.5 34.5T189-40t-46.5-13.5T126-88t16.5-34.5T189-136z"/><glyph glyph-name="uni2087" unicode="₇" horiz-adv-x="336" d="M77-200q0 33 6.5 56.5T112-91L225 60v14H12v76h310V44L190-134q-13-19-17-31.5t-4-34.5H77z"/><glyph glyph-name="uni2088" unicode="₈" horiz-adv-x="372" d="M187-212q-77 0-118 29.5T28-107q0 28 10 44.5T62-37t25 12v14Q73-6 53.5 11T34 64q0 44 41 71t111 27 111-27 41-71q0-36-19.5-53T285-11v-14q11-3 25-12t24-25.5 10-44.5q0-46-40.5-75.5T187-212zm-1 76q31 0 48.5 10.5T252-97t-17.5 28.5T186-58t-48.5-10.5T120-97t17.5-28.5T186-136zm0 154q29 0 44.5 10T246 53t-15.5 24-43.5 9q-29 0-45-9t-16-24 16-25 44-10z"/><glyph glyph-name="uni2089" unicode="₉" horiz-adv-x="370" d="M181-212q-64 0-103.5 30.5T31-108l95 7q3-13 15-24t40-11q29 0 46 16.5T244-78v26h-14q-7-7-25.5-16T155-77q-52 0-91.5 28T24 36t44 91.5T181 162t113-35 44-95V-76q0-63-44.5-99.5T181-212zm0 202q30 0 46.5 13.5T244 38t-16.5 34.5T181 86t-46.5-13.5T118 38t16.5-34.5T181-10z"/><glyph glyph-name="uni208D" unicode="₍" horiz-adv-x="274" d="M264-284q-106 0-162 54T46-66v80q0 110 56 164t162 54v-78q-68 0-100-33.5T132 14v-80q0-73 32-106.5T264-206v-78z"/><glyph glyph-name="uni208E" unicode="₎" horiz-adv-x="274" d="M10-284v78q68 0 100 33.5T142-66v80q0 73-32 106.5T10 154v78q106 0 162-54t56-164v-80q0-110-56-164T10-284z"/><glyph glyph-name="uni2094" unicode="ₔ" horiz-adv-x="413" d="M205-210q-79 0-126 48.5T32-35V3h260q0 32-25 57.5T203 86t-58-14.5T115 35L45 72q19 32 56.5 60T206 160q53 0 92.5-23.5t61-65T381-23v-8q0-79-48-129t-128-50zm1 74q41 0 62 22t24 51H123q2-29 23-51t60-22z"/><glyph glyph-name="colonmonetary" unicode="₡" horiz-adv-x="664" d="M342-14q-135 0-213.5 75.5T50 276v148q0 140 78.5 215T342 714q134 0 207-73t73-201v-2H492v6q0 66-37 109t-113 43q-75 0-117.5-46T182 426V274q0-78 42.5-124T342 104q76 0 113 43t37 109v14h130v-10q0-127-73-200.5T342-14zM165-116l140 932h79L244-116h-79zm128 0 140 932h76L369-116h-76z"/><glyph glyph-name="franc" unicode="₣" horiz-adv-x="598" d="M130 0v700h440V580H262V430h284V310H262V0H130zM38 104v102h376V104H38z"/><glyph glyph-name="lira" unicode="₤" horiz-adv-x="600" d="M52 0v114h74v380q0 104 61.5 162T354 714t166.5-58T582 494v-62H456v66q0 48-27.5 75T354 600q-46 0-74-27t-28-75V114h334V0H52zm4 210v102h296V210H56zm0 156v102h296V366H56z"/><glyph glyph-name="uni20A6" unicode="₦" horiz-adv-x="806" d="M134 0v700h251L522 90h18v610h132V0H421L284 610h-18V0H134zM42 226v102h722V226H42zm0 156v102h722V382H42z"/><glyph glyph-name="peseta" unicode="₧" horiz-adv-x="758" d="M130 0v700h288q68 0 120-27t81-76.5T648 479v-14q0-67-30-117t-82-77-118-27H262V0H130zm132 364h143q50 0 80.5 27.5T516 467v10q0 48-30.5 75.5T405 580H262V364zM38 421v102h684V421H38z"/><glyph glyph-name="uni20A9" unicode="₩" horiz-adv-x="1020" d="M183 0 91 700h131l68-608h18l88 608h228l88-608h18l68 608h131L837 0H609l-90 622h-18L411 0H183zM42 226v102h936V226H42zm0 156v102h936V382H42z"/><glyph glyph-name="dong" unicode="₫" horiz-adv-x="704" d="M270-14q-59 0-110.5 29.5T77 102 46 240v16q0 81 31 138t82 86.5T270 510q45 0 75.5-10.5T395 473t29-34h18v261h126V0H444v60h-18q-17-28-52.5-51T270-14zm38 110q58 0 97 37.5T444 243v10q0 72-38.5 109.5T308 400q-58 0-97-37.5T172 253v-10q0-72 39-109.5T308 96zM78-130v70h490v-70H78zm220 686v70h340v-70H298z"/><glyph glyph-name="Euro" unicode="€" horiz-adv-x="678" d="M376-14q-124 0-197 73t-73 213v156q0 88 32 152t92.5 99T376 714q125 0 192.5-68.5T636 460v-24H504v18q0 63-31.5 101.5T376 594q-46 0-77-21t-46-56.5-15-78.5V262q0-70 32.5-113T376 106q71 0 99.5 39T504 246v18h132v-24q0-116-64.5-185T376-14zM42 226v102h334V226H42zm0 156v102h334V382H42z"/><glyph glyph-name="uni20AD" unicode="₭" horiz-adv-x="690" d="M130 0v700h132V410h18l229 290h167L392 355 686 0H514L280 296h-18V0H130zM38 302v102h565V302H38z"/><glyph glyph-name="uni20B1" unicode="₱" horiz-adv-x="756" d="M130 0v700h274q72 0 126.5-28.5t85-80T646 469v-14q0-70-32-122t-86.5-80.5T404 224H262V0H130zm132 344h129q55 0 89 30.5t34 82.5v10q0 53-33.5 83T391 580H262V344zM38 376v70h682v-70H38zm0 102v70h682v-70H38z"/><glyph glyph-name="uni20B2" unicode="₲" horiz-adv-x="662" d="M308-14q-72 0-130.5 32.5t-93 95T50 266v168q0 135 76 207.5T332 714q129 0 199.5-68.5T602 460v-4H472v8q0 37-15.5 67T410 578.5 332 596q-70 0-110-43t-40-117V264q0-73 40-117.5T334 102t105 38 33 96v10h-42v112h172V0H480v67h-18q-7-17-22.5-36T393-1t-85-13zm-34-102v932h120v-932H274z"/><glyph glyph-name="uni20B5" unicode="₵" horiz-adv-x="644" d="M332-14q-130 0-206 72.5T50 266v168q0 135 76 207.5T332 714q129 0 199.5-70.5T602 450v-6H472v10q0 62-34.5 102T332 596q-70 0-110-43t-40-117V264q0-73 40-116.5T332 104q71 0 105.5 40.5T472 246v18h130v-14q0-123-70.5-193.5T332-14zm-58-102v932h120v-932H274z"/><glyph glyph-name="uni20B9" unicode="₹" horiz-adv-x="622" d="M336 0v180q0 24-12.5 39T282 234H54v120h182q59 0 89.5 28.5T356 471t-30.5 88.5T236 588H54v112h540V598H422v-18q29-19 46.5-47t17.5-81q0-54-27.5-89T384 312v-18q40-2 62-27.5t22-67.5V0H336zM54 420v102h540V420H54z"/><glyph glyph-name="uni20BA" unicode="₺" horiz-adv-x="618" d="M258 0v120q71 0 112 23.5t58.5 68.5T446 320v8h130v-14q0-95-33.5-166t-104-109.5T258 0zM126 0v700h132V0H126zM42 250v105l324 106V356zm0 162v105l324 106V518z"/><glyph glyph-name="uni20BC" unicode="₼" horiz-adv-x="712" d="M62 0v424q0 89 35 154t101 100.5T356 714q93 0 158.5-35.5T615 578t35-154V0H518v428q0 79-41.5 123.5T356 596t-120.5-44.5T194 428V0H62zm234 116v700h120V116H296z"/><glyph glyph-name="uni20BD" unicode="₽" horiz-adv-x="668" d="M38 138v102h92v54H38v102h92v304h292q65 0 114.5-24t77.5-68.5T642 503v-14q0-60-28.5-104T535 317.5 422 294H262v-54h222V138H262V0H130v138H38zm224 258h147q45 0 73 23.5t28 63.5v10q0 41-27.5 64T409 580H262V396z"/><glyph glyph-name="uni20BF" unicode="₿" horiz-adv-x="684" d="M66 0v116h92v468H66v116h360q64 0 111.5-21.5t74-61T638 523v-10q0-48-18-78.5t-42.5-47T531 364v-18q22-6 48-22.5t44.5-47.5 18.5-81v-10q0-58-27-99.5T540.5 22 430 0H66zm224 120h124q43 0 69.5 21t26.5 60v10q0 39-26 60t-70 21H290V120zm0 292h122q41 0 67.5 21t26.5 58v10q0 38-26 58.5T412 580H290V412zM236 30h92v-146h-92V30zm92 640h-92v146h92V670zm136 0h-92v146h92V670zM372 30h92v-146h-92V30z"/><glyph glyph-name="uni2113" unicode="ℓ" horiz-adv-x="620" d="M295 11q-49 0-79.5 30.5T185 123v99q-21-2-43-3t-46-1v110q25 0 47 1t42 3v226q0 77 44 116.5T342 714q77 0 123.5-51.5T512 525q0-98-48.5-170T311 248V145q0-30 28-30h106V11H295zm16 354q44 23 63.5 63.5T394 529q0 41-14 61t-35 20q-18 0-26-10.5t-8-27.5V365z"/><glyph glyph-name="uni2116" unicode="№" horiz-adv-x="1272" d="M66 0v700h251L456 90h18v610h130V0H353L214 610h-18V0H66zm664 0v114h472V0H730zm236 202q-74 0-133 29t-93 84.5T706 450v12q0 79 34 134.5t93 84.5 133 29 133-29 93-84.5 34-134.5v-12q0-79-34-134.5t-93-84.5-133-29zm0 112q58 0 96 35.5t38 103.5v6q0 68-37.5 103.5T966 598q-58 0-96-35.5T832 459v-6q0-68 38-103.5t96-35.5z"/><glyph glyph-name="uni2120" unicode="℠" horiz-adv-x="546" d="M246 478v222h80l42-184h10l42 184h80V478h-42v184h-10l-42-184h-66l-42 184h-10V478h-42zm-117-4q-39 0-63 19.5T42 550v9h40v-9q0-19 12.5-30t34.5-11q21 0 31.5 9.5T171 541q0 14-11.5 21T127 573l-10 2q-34 7-52 21t-18 45q0 30 21.5 46.5T125 704t58-17.5 23-53.5v-10h-40v10q0 36-41 36-37 0-37-28 0-23 39-31l10-2q32-7 53.5-20t21.5-46q0-31-22.5-49.5T129 474z"/><glyph glyph-name="trademark" unicode="™" horiz-adv-x="552" d="M252 478v222h80l42-184h10l42 184h80V478h-42v184h-10l-42-184h-66l-42 184h-10V478h-42zm-146 0v184H32v38h190v-38h-74V478h-42z"/><glyph glyph-name="uni2126" unicode="Ω" horiz-adv-x="620" d="M40 0v114h98v18q-37 23-61.5 66T52 314v122q0 84 31 146.5t88.5 97T310 714t139-34.5 88.5-97T568 436V314q0-74-24-116.5T482 132v-18h98V0H346v144q42 11 62 34t26 60.5 6 93.5v106q0 80-35 120t-95 40-95-40-35-120V332q0-56 6-93.5t26-60.5 62-34V0H40z"/><glyph glyph-name="estimated" unicode="℮" horiz-adv-x="583" d="M292-14q-75 0-130.5 32.5T76 110 46 248t30 138 85.5 91.5T292 510t130-32.5 85-90T537 254v-24H160q-20 0-20-20v-88q0-26 15-41 27-27 62-41t75-14q50 0 89.5 18t67.5 58h55q-33-56-86.5-86T292-14zM160 270h264q20 0 20 20v85q0 26-15 41-24 26-59.5 40T292 470t-77.5-14-59.5-40q-15-15-15-41v-85q0-20 20-20z"/><glyph glyph-name="uni2153" unicode="⅓" horiz-adv-x="863" d="M130 350v272h-14l-15-78H16l38 156h168V350h-92zm15-360L78 45l539 665 67-55zm536-2q-66 0-111 32t-50 90l93 10q3-25 22.5-40.5T681 64q29 0 45.5 15t16.5 36q0 22-16.5 33.5T679 160h-66v66l85 36v14H527v74h308v-78l-106-50v-14q51-2 79.5-25.5T837 111q0-36-20.5-63.5T760.5 4 681-12z"/><glyph glyph-name="uni2154" unicode="⅔" horiz-adv-x="945" d="M26 350v44q0 60 32 94t99 49q44 10 64.5 23t20.5 34q0 20-16 31t-40 11-42-12.5-20-43.5l-94 7q5 61 48 93t108 32 107.5-32.5T336 593t-37.5-81T197 471q-40-8-55.5-18T126 426h208v-76H26zM227-10l-67 55 539 665 67-55zm536-2q-66 0-111 32t-50 90l93 10q3-25 22.5-40.5T763 64q29 0 45.5 15t16.5 36q0 22-16.5 33.5T761 160h-66v66l85 36v14H609v74h308v-78l-106-50v-14q51-2 79.5-25.5T919 111q0-36-20.5-63.5T842.5 4 763-12z"/><glyph glyph-name="oneeighth" unicode="⅛" horiz-adv-x="838" d="M130 350v272h-14l-15-78H16l38 156h168V350h-92zm15-360L78 45l539 665 67-55zm508-2q-77 0-118 29.5T494 93q0 28 10 44.5t24 25.5 25 12v14q-14 5-33.5 22T500 264q0 44 41 71t111 27 111-27 41-71q0-36-19.5-53T751 189v-14q11-3 25-12t24-25.5T810 93q0-46-40.5-75.5T653-12zm-1 76q31 0 48.5 10.5T718 103t-17.5 28.5T652 142t-48.5-10.5T586 103t17.5-28.5T652 64zm0 154q29 0 44.5 10t15.5 25-15.5 24-43.5 9q-29 0-45-9t-16-24 16-25 44-10z"/><glyph glyph-name="threeeighths" unicode="⅜" horiz-adv-x="899" d="M181 338q-66 0-111 32t-50 90l93 10q3-25 22.5-40.5T181 414q29 0 45.5 15t16.5 36q0 22-16.5 33.5T179 510h-66v66l85 36v14H27v74h308v-78l-106-50v-14q51-2 79.5-25.5T337 461q0-36-20.5-63.5t-56-43.5-79.5-16zm25-348-67 55 539 665 67-55zm508-2q-77 0-118 29.5T555 93q0 28 10 44.5t24 25.5 25 12v14q-14 5-33.5 22T561 264q0 44 41 71t111 27 111-27 41-71q0-36-19.5-53T812 189v-14q11-3 25-12t24-25.5T871 93q0-46-40.5-75.5T714-12zm-1 76q31 0 48.5 10.5T779 103t-17.5 28.5T713 142t-48.5-10.5T647 103t17.5-28.5T713 64zm0 154q29 0 44.5 10t15.5 25-15.5 24-43.5 9q-29 0-45-9t-16-24 16-25 44-10z"/><glyph glyph-name="fiveeighths" unicode="⅝" horiz-adv-x="896" d="M182 338q-70 0-111 33t-47 82l94 7q4-19 21-32.5t43-13.5q27 0 43.5 14.5T242 466t-15.5 35-37.5 12q-21 0-32.5-7.5T139 491H34v209h292v-76H128v-68h14q10 9 27.5 17.5T220 582q29 0 55.5-13t43.5-38.5 17-63.5q0-56-40-92.5T182 338zm21-348-67 55 539 665 67-55zm508-2q-77 0-118 29.5T552 93q0 28 10 44.5t24 25.5 25 12v14q-14 5-33.5 22T558 264q0 44 41 71t111 27 111-27 41-71q0-36-19.5-53T809 189v-14q11-3 25-12t24-25.5T868 93q0-46-40.5-75.5T711-12zm-1 76q31 0 48.5 10.5T776 103t-17.5 28.5T710 142t-48.5-10.5T644 103t17.5-28.5T710 64zm0 154q29 0 44.5 10t15.5 25-15.5 24-43.5 9q-29 0-45-9t-16-24 16-25 44-10z"/><glyph glyph-name="seveneighths" unicode="⅞" horiz-adv-x="816" d="M77 350q0 33 6.5 56.5T112 459l113 151v14H12v76h310V594L190 416q-13-19-17-31.5t-4-34.5H77zm46-360L56 45l539 665 67-55zm508-2q-77 0-118 29.5T472 93q0 28 10 44.5t24 25.5 25 12v14q-14 5-33.5 22T478 264q0 44 41 71t111 27 111-27 41-71q0-36-19.5-53T729 189v-14q11-3 25-12t24-25.5T788 93q0-46-40.5-75.5T631-12zm-1 76q31 0 48.5 10.5T696 103t-17.5 28.5T630 142t-48.5-10.5T564 103t17.5-28.5T630 64zm0 154q29 0 44.5 10t15.5 25-15.5 24-43.5 9q-29 0-45-9t-16-24 16-25 44-10z"/><glyph glyph-name="arrowleft" unicode="←" horiz-adv-x="800" d="M272-14 44 214v82l228 228 80-80-98-98-41-25 6-17 48 8h483V198H267l-48 8-6-17 41-25 98-98z"/></font>
</defs>
</svg>
